%TF.GenerationSoftware,KiCad,Pcbnew,(6.0.4)*%
%TF.CreationDate,2022-10-15T21:28:15-07:00*%
%TF.ProjectId,RaspiCar_PCB1,52617370-6943-4617-925f-504342312e6b,rev?*%
%TF.SameCoordinates,Original*%
%TF.FileFunction,Soldermask,Bot*%
%TF.FilePolarity,Negative*%
%FSLAX46Y46*%
G04 Gerber Fmt 4.6, Leading zero omitted, Abs format (unit mm)*
G04 Created by KiCad (PCBNEW (6.0.4)) date 2022-10-15 21:28:15*
%MOMM*%
%LPD*%
G01*
G04 APERTURE LIST*
%ADD10R,1.700000X1.700000*%
%ADD11O,1.700000X1.700000*%
%ADD12R,1.800000X1.800000*%
%ADD13C,1.800000*%
%ADD14C,2.200000*%
%ADD15C,1.600000*%
%ADD16O,1.600000X1.600000*%
%ADD17R,3.960000X1.980000*%
%ADD18O,3.960000X1.980000*%
%ADD19R,1.600000X1.600000*%
G04 APERTURE END LIST*
D10*
%TO.C,PWR_GND*%
X175260000Y-78740000D03*
D11*
X177800000Y-78740000D03*
%TD*%
D12*
%TO.C,LED1*%
X170275000Y-99000000D03*
D13*
X167735000Y-99000000D03*
%TD*%
D14*
%TO.C,H3*%
X205000000Y-123050000D03*
%TD*%
D10*
%TO.C,ServoPWR*%
X165100000Y-78740000D03*
D11*
X162560000Y-78740000D03*
%TD*%
D15*
%TO.C,R1*%
X153940000Y-99000000D03*
D16*
X161560000Y-99000000D03*
%TD*%
D10*
%TO.C,Raspi_Logic1*%
X148250000Y-98210000D03*
D11*
X148250000Y-100750000D03*
X148250000Y-103290000D03*
X148250000Y-105830000D03*
X148250000Y-108370000D03*
X148250000Y-110910000D03*
%TD*%
D17*
%TO.C,Motor_1*%
X201250000Y-88265000D03*
D18*
X201250000Y-83265000D03*
%TD*%
D14*
%TO.C,H1*%
X149000000Y-76500000D03*
%TD*%
D15*
%TO.C,R2*%
X153940000Y-107000000D03*
D16*
X161560000Y-107000000D03*
%TD*%
D14*
%TO.C,H4*%
X149000000Y-123000000D03*
%TD*%
D17*
%TO.C,Motor_2*%
X201250000Y-116750000D03*
D18*
X201250000Y-111750000D03*
%TD*%
D14*
%TO.C,H2*%
X205000000Y-76500000D03*
%TD*%
D12*
%TO.C,LED2*%
X170250000Y-107750000D03*
D13*
X167710000Y-107750000D03*
%TD*%
D19*
%TO.C,L293D1*%
X196125000Y-96450000D03*
D16*
X193585000Y-96450000D03*
X191045000Y-96450000D03*
X188505000Y-96450000D03*
X185965000Y-96450000D03*
X183425000Y-96450000D03*
X180885000Y-96450000D03*
X178345000Y-96450000D03*
X178345000Y-104070000D03*
X180885000Y-104070000D03*
X183425000Y-104070000D03*
X185965000Y-104070000D03*
X188505000Y-104070000D03*
X191045000Y-104070000D03*
X193585000Y-104070000D03*
X196125000Y-104070000D03*
%TD*%
D10*
%TO.C,Raspi_PWR1*%
X189275000Y-78250000D03*
D11*
X186735000Y-78250000D03*
%TD*%
M02*
