%TF.GenerationSoftware,KiCad,Pcbnew,(6.0.4)*%
%TF.CreationDate,2022-10-15T21:28:15-07:00*%
%TF.ProjectId,RaspiCar_PCB1,52617370-6943-4617-925f-504342312e6b,rev?*%
%TF.SameCoordinates,Original*%
%TF.FileFunction,Soldermask,Top*%
%TF.FilePolarity,Negative*%
%FSLAX46Y46*%
G04 Gerber Fmt 4.6, Leading zero omitted, Abs format (unit mm)*
G04 Created by KiCad (PCBNEW (6.0.4)) date 2022-10-15 21:28:15*
%MOMM*%
%LPD*%
G01*
G04 APERTURE LIST*
G04 Aperture macros list*
%AMRoundRect*
0 Rectangle with rounded corners*
0 $1 Rounding radius*
0 $2 $3 $4 $5 $6 $7 $8 $9 X,Y pos of 4 corners*
0 Add a 4 corners polygon primitive as box body*
4,1,4,$2,$3,$4,$5,$6,$7,$8,$9,$2,$3,0*
0 Add four circle primitives for the rounded corners*
1,1,$1+$1,$2,$3*
1,1,$1+$1,$4,$5*
1,1,$1+$1,$6,$7*
1,1,$1+$1,$8,$9*
0 Add four rect primitives between the rounded corners*
20,1,$1+$1,$2,$3,$4,$5,0*
20,1,$1+$1,$4,$5,$6,$7,0*
20,1,$1+$1,$6,$7,$8,$9,0*
20,1,$1+$1,$8,$9,$2,$3,0*%
G04 Aperture macros list end*
%ADD10R,1.700000X1.700000*%
%ADD11O,1.700000X1.700000*%
%ADD12RoundRect,0.250000X-1.137500X-0.550000X1.137500X-0.550000X1.137500X0.550000X-1.137500X0.550000X0*%
%ADD13R,1.800000X1.800000*%
%ADD14C,1.800000*%
%ADD15C,2.200000*%
%ADD16C,1.600000*%
%ADD17O,1.600000X1.600000*%
%ADD18RoundRect,0.250000X1.137500X0.550000X-1.137500X0.550000X-1.137500X-0.550000X1.137500X-0.550000X0*%
%ADD19R,3.960000X1.980000*%
%ADD20O,3.960000X1.980000*%
%ADD21R,1.600000X1.600000*%
G04 APERTURE END LIST*
D10*
%TO.C,PWR_GND*%
X175260000Y-78740000D03*
D11*
X177800000Y-78740000D03*
%TD*%
D12*
%TO.C,C1*%
X183357500Y-88900000D03*
X187482500Y-88900000D03*
%TD*%
D13*
%TO.C,LED1*%
X170275000Y-99000000D03*
D14*
X167735000Y-99000000D03*
%TD*%
D15*
%TO.C,H3*%
X205000000Y-123050000D03*
%TD*%
D10*
%TO.C,ServoPWR*%
X165100000Y-78740000D03*
D11*
X162560000Y-78740000D03*
%TD*%
D16*
%TO.C,R1*%
X153940000Y-99000000D03*
D17*
X161560000Y-99000000D03*
%TD*%
D18*
%TO.C,C2*%
X192562500Y-109220000D03*
X188437500Y-109220000D03*
%TD*%
D10*
%TO.C,Raspi_Logic1*%
X148250000Y-98210000D03*
D11*
X148250000Y-100750000D03*
X148250000Y-103290000D03*
X148250000Y-105830000D03*
X148250000Y-108370000D03*
X148250000Y-110910000D03*
%TD*%
D19*
%TO.C,Motor_1*%
X201250000Y-88265000D03*
D20*
X201250000Y-83265000D03*
%TD*%
D15*
%TO.C,H1*%
X149000000Y-76500000D03*
%TD*%
D16*
%TO.C,R2*%
X153940000Y-107000000D03*
D17*
X161560000Y-107000000D03*
%TD*%
D15*
%TO.C,H4*%
X149000000Y-123000000D03*
%TD*%
D19*
%TO.C,Motor_2*%
X201250000Y-116750000D03*
D20*
X201250000Y-111750000D03*
%TD*%
D15*
%TO.C,H2*%
X205000000Y-76500000D03*
%TD*%
D13*
%TO.C,LED2*%
X170250000Y-107750000D03*
D14*
X167710000Y-107750000D03*
%TD*%
D21*
%TO.C,L293D1*%
X196125000Y-96450000D03*
D17*
X193585000Y-96450000D03*
X191045000Y-96450000D03*
X188505000Y-96450000D03*
X185965000Y-96450000D03*
X183425000Y-96450000D03*
X180885000Y-96450000D03*
X178345000Y-96450000D03*
X178345000Y-104070000D03*
X180885000Y-104070000D03*
X183425000Y-104070000D03*
X185965000Y-104070000D03*
X188505000Y-104070000D03*
X191045000Y-104070000D03*
X193585000Y-104070000D03*
X196125000Y-104070000D03*
%TD*%
D10*
%TO.C,Raspi_PWR1*%
X189275000Y-78250000D03*
D11*
X186735000Y-78250000D03*
%TD*%
M02*
