%TF.GenerationSoftware,KiCad,Pcbnew,(6.0.4)*%
%TF.CreationDate,2022-10-15T21:28:15-07:00*%
%TF.ProjectId,RaspiCar_PCB1,52617370-6943-4617-925f-504342312e6b,rev?*%
%TF.SameCoordinates,Original*%
%TF.FileFunction,Copper,L1,Top*%
%TF.FilePolarity,Positive*%
%FSLAX46Y46*%
G04 Gerber Fmt 4.6, Leading zero omitted, Abs format (unit mm)*
G04 Created by KiCad (PCBNEW (6.0.4)) date 2022-10-15 21:28:15*
%MOMM*%
%LPD*%
G01*
G04 APERTURE LIST*
G04 Aperture macros list*
%AMRoundRect*
0 Rectangle with rounded corners*
0 $1 Rounding radius*
0 $2 $3 $4 $5 $6 $7 $8 $9 X,Y pos of 4 corners*
0 Add a 4 corners polygon primitive as box body*
4,1,4,$2,$3,$4,$5,$6,$7,$8,$9,$2,$3,0*
0 Add four circle primitives for the rounded corners*
1,1,$1+$1,$2,$3*
1,1,$1+$1,$4,$5*
1,1,$1+$1,$6,$7*
1,1,$1+$1,$8,$9*
0 Add four rect primitives between the rounded corners*
20,1,$1+$1,$2,$3,$4,$5,0*
20,1,$1+$1,$4,$5,$6,$7,0*
20,1,$1+$1,$6,$7,$8,$9,0*
20,1,$1+$1,$8,$9,$2,$3,0*%
G04 Aperture macros list end*
%TA.AperFunction,ComponentPad*%
%ADD10R,1.700000X1.700000*%
%TD*%
%TA.AperFunction,ComponentPad*%
%ADD11O,1.700000X1.700000*%
%TD*%
%TA.AperFunction,SMDPad,CuDef*%
%ADD12RoundRect,0.250000X-1.137500X-0.550000X1.137500X-0.550000X1.137500X0.550000X-1.137500X0.550000X0*%
%TD*%
%TA.AperFunction,ComponentPad*%
%ADD13R,1.800000X1.800000*%
%TD*%
%TA.AperFunction,ComponentPad*%
%ADD14C,1.800000*%
%TD*%
%TA.AperFunction,ComponentPad*%
%ADD15C,1.600000*%
%TD*%
%TA.AperFunction,ComponentPad*%
%ADD16O,1.600000X1.600000*%
%TD*%
%TA.AperFunction,SMDPad,CuDef*%
%ADD17RoundRect,0.250000X1.137500X0.550000X-1.137500X0.550000X-1.137500X-0.550000X1.137500X-0.550000X0*%
%TD*%
%TA.AperFunction,ComponentPad*%
%ADD18R,3.960000X1.980000*%
%TD*%
%TA.AperFunction,ComponentPad*%
%ADD19O,3.960000X1.980000*%
%TD*%
%TA.AperFunction,ComponentPad*%
%ADD20R,1.600000X1.600000*%
%TD*%
%TA.AperFunction,ViaPad*%
%ADD21C,0.800000*%
%TD*%
%TA.AperFunction,Conductor*%
%ADD22C,0.500000*%
%TD*%
%TA.AperFunction,Conductor*%
%ADD23C,0.250000*%
%TD*%
G04 APERTURE END LIST*
D10*
%TO.P,PWR_GND,1,Pin_1*%
%TO.N,+7.5V*%
X175260000Y-78740000D03*
D11*
%TO.P,PWR_GND,2,Pin_2*%
%TO.N,GND*%
X177800000Y-78740000D03*
%TD*%
D12*
%TO.P,C1,1*%
%TO.N,+7.5V*%
X183357500Y-88900000D03*
%TO.P,C1,2*%
%TO.N,GND*%
X187482500Y-88900000D03*
%TD*%
D13*
%TO.P,LED1,1,K*%
%TO.N,GND*%
X170275000Y-99000000D03*
D14*
%TO.P,LED1,2,A*%
%TO.N,Net-(LED1-Pad2)*%
X167735000Y-99000000D03*
%TD*%
D10*
%TO.P,ServoPWR,1,Pin_1*%
%TO.N,GND*%
X165100000Y-78740000D03*
D11*
%TO.P,ServoPWR,2,Pin_2*%
%TO.N,+7.5V*%
X162560000Y-78740000D03*
%TD*%
D15*
%TO.P,R1,1*%
%TO.N,Net-(L293D1-Pad1)*%
X153940000Y-99000000D03*
D16*
%TO.P,R1,2*%
%TO.N,Net-(LED1-Pad2)*%
X161560000Y-99000000D03*
%TD*%
D17*
%TO.P,C2,1*%
%TO.N,+5V*%
X192562500Y-109220000D03*
%TO.P,C2,2*%
%TO.N,GND*%
X188437500Y-109220000D03*
%TD*%
D10*
%TO.P,Raspi_Logic1,1,Pin_1*%
%TO.N,Net-(L293D1-Pad1)*%
X148250000Y-98210000D03*
D11*
%TO.P,Raspi_Logic1,2,Pin_2*%
%TO.N,Net-(L293D1-Pad9)*%
X148250000Y-100750000D03*
%TO.P,Raspi_Logic1,3,Pin_3*%
%TO.N,Net-(L293D1-Pad2)*%
X148250000Y-103290000D03*
%TO.P,Raspi_Logic1,4,Pin_4*%
%TO.N,Net-(L293D1-Pad7)*%
X148250000Y-105830000D03*
%TO.P,Raspi_Logic1,5,Pin_5*%
%TO.N,Net-(L293D1-Pad10)*%
X148250000Y-108370000D03*
%TO.P,Raspi_Logic1,6,Pin_6*%
%TO.N,Net-(L293D1-Pad15)*%
X148250000Y-110910000D03*
%TD*%
D18*
%TO.P,Motor_1,1,Pin_1*%
%TO.N,Net-(L293D1-Pad3)*%
X201250000Y-88265000D03*
D19*
%TO.P,Motor_1,2,Pin_2*%
%TO.N,Net-(L293D1-Pad6)*%
X201250000Y-83265000D03*
%TD*%
D15*
%TO.P,R2,1*%
%TO.N,Net-(L293D1-Pad9)*%
X153940000Y-107000000D03*
D16*
%TO.P,R2,2*%
%TO.N,Net-(LED2-Pad2)*%
X161560000Y-107000000D03*
%TD*%
D18*
%TO.P,Motor_2,1,Pin_1*%
%TO.N,Net-(L293D1-Pad11)*%
X201250000Y-116750000D03*
D19*
%TO.P,Motor_2,2,Pin_2*%
%TO.N,Net-(L293D1-Pad14)*%
X201250000Y-111750000D03*
%TD*%
D13*
%TO.P,LED2,1,K*%
%TO.N,GND*%
X170250000Y-107750000D03*
D14*
%TO.P,LED2,2,A*%
%TO.N,Net-(LED2-Pad2)*%
X167710000Y-107750000D03*
%TD*%
D20*
%TO.P,L293D1,1,EN1\u002C2*%
%TO.N,Net-(L293D1-Pad1)*%
X196125000Y-96450000D03*
D16*
%TO.P,L293D1,2,1A*%
%TO.N,Net-(L293D1-Pad2)*%
X193585000Y-96450000D03*
%TO.P,L293D1,3,1Y*%
%TO.N,Net-(L293D1-Pad3)*%
X191045000Y-96450000D03*
%TO.P,L293D1,4,GND*%
%TO.N,GND*%
X188505000Y-96450000D03*
%TO.P,L293D1,5,GND*%
X185965000Y-96450000D03*
%TO.P,L293D1,6,2Y*%
%TO.N,Net-(L293D1-Pad6)*%
X183425000Y-96450000D03*
%TO.P,L293D1,7,2A*%
%TO.N,Net-(L293D1-Pad7)*%
X180885000Y-96450000D03*
%TO.P,L293D1,8,VCC2*%
%TO.N,+7.5V*%
X178345000Y-96450000D03*
%TO.P,L293D1,9,EN3\u002C4*%
%TO.N,Net-(L293D1-Pad9)*%
X178345000Y-104070000D03*
%TO.P,L293D1,10,3A*%
%TO.N,Net-(L293D1-Pad10)*%
X180885000Y-104070000D03*
%TO.P,L293D1,11,3Y*%
%TO.N,Net-(L293D1-Pad11)*%
X183425000Y-104070000D03*
%TO.P,L293D1,12,GND*%
%TO.N,GND*%
X185965000Y-104070000D03*
%TO.P,L293D1,13,GND*%
X188505000Y-104070000D03*
%TO.P,L293D1,14,4Y*%
%TO.N,Net-(L293D1-Pad14)*%
X191045000Y-104070000D03*
%TO.P,L293D1,15,4A*%
%TO.N,Net-(L293D1-Pad15)*%
X193585000Y-104070000D03*
%TO.P,L293D1,16,VCC1*%
%TO.N,+5V*%
X196125000Y-104070000D03*
%TD*%
D10*
%TO.P,Raspi_PWR1,1,Pin_1*%
%TO.N,+5V*%
X189275000Y-78250000D03*
D11*
%TO.P,Raspi_PWR1,2,Pin_2*%
%TO.N,GND*%
X186735000Y-78250000D03*
%TD*%
D21*
%TO.N,GND*%
X173000000Y-99000000D03*
X186000000Y-102500000D03*
X173000000Y-108000000D03*
X188500000Y-102500000D03*
X186000000Y-94000000D03*
X186750000Y-80750000D03*
X188500000Y-94000000D03*
%TO.N,Net-(L293D1-Pad2)*%
X182750000Y-98250000D03*
X179750000Y-98250000D03*
%TO.N,Net-(L293D1-Pad7)*%
X180750000Y-100250000D03*
X179500000Y-102099500D03*
%TD*%
D22*
%TO.N,GND*%
X167640000Y-76200000D02*
X175260000Y-76200000D01*
X165100000Y-78740000D02*
X167640000Y-76200000D01*
X175260000Y-76200000D02*
X177800000Y-78740000D01*
%TO.N,+7.5V*%
X162560000Y-81280000D02*
X162560000Y-78740000D01*
X172720000Y-81280000D02*
X162560000Y-81280000D01*
X175260000Y-78740000D02*
X172720000Y-81280000D01*
D23*
%TO.N,GND*%
X186245000Y-78740000D02*
X186735000Y-78250000D01*
D22*
X177800000Y-78740000D02*
X186245000Y-78740000D01*
%TO.N,+7.5V*%
X175260000Y-87010000D02*
X175750000Y-87500000D01*
X175260000Y-78740000D02*
X175260000Y-87010000D01*
%TO.N,GND*%
X188505000Y-109152500D02*
X188505000Y-104070000D01*
D23*
X188437500Y-109220000D02*
X188505000Y-109152500D01*
D22*
%TO.N,Net-(L293D1-Pad6)*%
X185420000Y-83265000D02*
X201250000Y-83265000D01*
X185275489Y-91584511D02*
X185275489Y-83409511D01*
X185275489Y-83409511D02*
X185420000Y-83265000D01*
X183425000Y-93435000D02*
X185275489Y-91584511D01*
X183425000Y-96450000D02*
X183425000Y-93435000D01*
D23*
%TO.N,+5V*%
X192460489Y-109117989D02*
X192460489Y-102179511D01*
X192562500Y-109220000D02*
X192460489Y-109117989D01*
D22*
X193655000Y-101600000D02*
X196125000Y-104070000D01*
X193040000Y-101600000D02*
X193655000Y-101600000D01*
X192460489Y-102179511D02*
X193040000Y-101600000D01*
%TO.N,Net-(L293D1-Pad11)*%
X190410000Y-116750000D02*
X183425000Y-109765000D01*
X183425000Y-109765000D02*
X183425000Y-104070000D01*
X201250000Y-116750000D02*
X190410000Y-116750000D01*
%TO.N,Net-(L293D1-Pad14)*%
X191917494Y-111750000D02*
X201250000Y-111750000D01*
X190500000Y-104615000D02*
X190500000Y-110332506D01*
X190500000Y-110332506D02*
X191917494Y-111750000D01*
X191045000Y-104070000D02*
X190500000Y-104615000D01*
%TO.N,GND*%
X188505000Y-94005000D02*
X188500000Y-94000000D01*
X185965000Y-104070000D02*
X185965000Y-102535000D01*
X186735000Y-80735000D02*
X186750000Y-80750000D01*
D23*
X170250000Y-107750000D02*
X172750000Y-107750000D01*
D22*
X188500000Y-89917500D02*
X187482500Y-88900000D01*
X186735000Y-78250000D02*
X186735000Y-80735000D01*
X185965000Y-102535000D02*
X186000000Y-102500000D01*
X186000000Y-94000000D02*
X185965000Y-94035000D01*
X185965000Y-94035000D02*
X185965000Y-96450000D01*
D23*
X172750000Y-107750000D02*
X173000000Y-108000000D01*
D22*
X188505000Y-96450000D02*
X188505000Y-94005000D01*
D23*
X170275000Y-99000000D02*
X173000000Y-99000000D01*
D22*
X188505000Y-104070000D02*
X188505000Y-102505000D01*
X188505000Y-102505000D02*
X188500000Y-102500000D01*
X188500000Y-94000000D02*
X188500000Y-89917500D01*
%TO.N,+7.5V*%
X179540000Y-88900000D02*
X183357500Y-88900000D01*
X178345000Y-90095000D02*
X175750000Y-87500000D01*
X178345000Y-96450000D02*
X178345000Y-90095000D01*
X178345000Y-90095000D02*
X179540000Y-88900000D01*
%TO.N,+5V*%
X193500000Y-78250000D02*
X194500000Y-79250000D01*
X189275000Y-78250000D02*
X193500000Y-78250000D01*
X194500000Y-79250000D02*
X208250000Y-79250000D01*
X208250000Y-79250000D02*
X208250000Y-94500000D01*
X208250000Y-94500000D02*
X198680000Y-104070000D01*
X198680000Y-104070000D02*
X196125000Y-104070000D01*
%TO.N,Net-(L293D1-Pad2)*%
X182750000Y-98250000D02*
X191785000Y-98250000D01*
X148250000Y-103290000D02*
X146950489Y-101990489D01*
X174750000Y-95250000D02*
X174750000Y-98250000D01*
X146500000Y-101500000D02*
X146950489Y-101950489D01*
X174750000Y-98250000D02*
X179750000Y-98250000D01*
X146500000Y-95250000D02*
X146500000Y-101500000D01*
X146500000Y-95250000D02*
X174750000Y-95250000D01*
X146950489Y-101990489D02*
X146950489Y-101950489D01*
X191785000Y-98250000D02*
X193585000Y-96450000D01*
%TO.N,Net-(LED1-Pad2)*%
X161560000Y-99000000D02*
X167735000Y-99000000D01*
%TO.N,Net-(LED2-Pad2)*%
X166960000Y-107000000D02*
X167710000Y-107750000D01*
X161560000Y-107000000D02*
X166960000Y-107000000D01*
%TO.N,Net-(L293D1-Pad3)*%
X199230000Y-88265000D02*
X191045000Y-96450000D01*
X201250000Y-88265000D02*
X199230000Y-88265000D01*
%TO.N,Net-(L293D1-Pad7)*%
X179500000Y-102099500D02*
X179500000Y-102479022D01*
X179635489Y-102614511D02*
X179635489Y-111114511D01*
X179500000Y-102479022D02*
X179635489Y-102614511D01*
X178250000Y-112500000D02*
X154920000Y-112500000D01*
X180750000Y-100250000D02*
X180750000Y-96585000D01*
X179635489Y-111114511D02*
X178250000Y-112500000D01*
X154920000Y-112500000D02*
X148250000Y-105830000D01*
X180750000Y-96585000D02*
X180885000Y-96450000D01*
%TO.N,Net-(L293D1-Pad10)*%
X148250000Y-108370000D02*
X154380000Y-114500000D01*
X180885000Y-114365000D02*
X180885000Y-104070000D01*
X154380000Y-114500000D02*
X180750000Y-114500000D01*
X180750000Y-114500000D02*
X180885000Y-114365000D01*
%TO.N,Net-(L293D1-Pad15)*%
X208250000Y-106750000D02*
X207500000Y-106000000D01*
X194750000Y-106000000D02*
X194750000Y-105235000D01*
X208250000Y-120250000D02*
X208250000Y-106750000D01*
X148250000Y-110910000D02*
X157590000Y-120250000D01*
X157590000Y-120250000D02*
X208250000Y-120250000D01*
X207500000Y-106000000D02*
X194750000Y-106000000D01*
X194750000Y-105235000D02*
X193585000Y-104070000D01*
%TO.N,Net-(L293D1-Pad1)*%
X184000000Y-100000000D02*
X194750000Y-100000000D01*
X182750000Y-101250000D02*
X184000000Y-100000000D01*
X153940000Y-99000000D02*
X156190000Y-101250000D01*
X153150000Y-98210000D02*
X153940000Y-99000000D01*
X196125000Y-98625000D02*
X196125000Y-96450000D01*
X148250000Y-98210000D02*
X153150000Y-98210000D01*
X156190000Y-101250000D02*
X182750000Y-101250000D01*
X194750000Y-100000000D02*
X196125000Y-98625000D01*
%TO.N,Net-(L293D1-Pad9)*%
X148250000Y-100750000D02*
X153750000Y-100750000D01*
X153940000Y-101060000D02*
X153940000Y-107000000D01*
X178250000Y-105750000D02*
X178345000Y-105655000D01*
X161000000Y-105750000D02*
X178250000Y-105750000D01*
X178345000Y-105655000D02*
X178345000Y-104070000D01*
X154000000Y-101000000D02*
X153940000Y-101060000D01*
X153750000Y-100750000D02*
X154000000Y-101000000D01*
X159750000Y-107000000D02*
X161000000Y-105750000D01*
X153940000Y-107000000D02*
X159750000Y-107000000D01*
%TD*%
M02*
