%TF.GenerationSoftware,KiCad,Pcbnew,(6.0.4)*%
%TF.CreationDate,2022-08-23T18:09:03-07:00*%
%TF.ProjectId,RaspiCar_PCB1,52617370-6943-4617-925f-504342312e6b,rev?*%
%TF.SameCoordinates,Original*%
%TF.FileFunction,Copper,L2,Bot*%
%TF.FilePolarity,Positive*%
%FSLAX46Y46*%
G04 Gerber Fmt 4.6, Leading zero omitted, Abs format (unit mm)*
G04 Created by KiCad (PCBNEW (6.0.4)) date 2022-08-23 18:09:03*
%MOMM*%
%LPD*%
G01*
G04 APERTURE LIST*
G04 Aperture macros list*
%AMRoundRect*
0 Rectangle with rounded corners*
0 $1 Rounding radius*
0 $2 $3 $4 $5 $6 $7 $8 $9 X,Y pos of 4 corners*
0 Add a 4 corners polygon primitive as box body*
4,1,4,$2,$3,$4,$5,$6,$7,$8,$9,$2,$3,0*
0 Add four circle primitives for the rounded corners*
1,1,$1+$1,$2,$3*
1,1,$1+$1,$4,$5*
1,1,$1+$1,$6,$7*
1,1,$1+$1,$8,$9*
0 Add four rect primitives between the rounded corners*
20,1,$1+$1,$2,$3,$4,$5,0*
20,1,$1+$1,$4,$5,$6,$7,0*
20,1,$1+$1,$6,$7,$8,$9,0*
20,1,$1+$1,$8,$9,$2,$3,0*%
G04 Aperture macros list end*
%TA.AperFunction,ComponentPad*%
%ADD10RoundRect,1.500000X1.500000X1.500000X-1.500000X1.500000X-1.500000X-1.500000X1.500000X-1.500000X0*%
%TD*%
%TA.AperFunction,ComponentPad*%
%ADD11C,6.000000*%
%TD*%
%TA.AperFunction,ComponentPad*%
%ADD12R,1.800000X1.800000*%
%TD*%
%TA.AperFunction,ComponentPad*%
%ADD13C,1.800000*%
%TD*%
%TA.AperFunction,ComponentPad*%
%ADD14C,1.600000*%
%TD*%
%TA.AperFunction,ComponentPad*%
%ADD15O,1.600000X1.600000*%
%TD*%
%TA.AperFunction,ComponentPad*%
%ADD16O,1.700000X1.700000*%
%TD*%
%TA.AperFunction,ComponentPad*%
%ADD17R,1.700000X1.700000*%
%TD*%
%TA.AperFunction,ComponentPad*%
%ADD18R,3.960000X1.980000*%
%TD*%
%TA.AperFunction,ComponentPad*%
%ADD19O,3.960000X1.980000*%
%TD*%
%TA.AperFunction,ComponentPad*%
%ADD20R,1.600000X1.600000*%
%TD*%
%TA.AperFunction,ViaPad*%
%ADD21C,0.800000*%
%TD*%
%TA.AperFunction,Conductor*%
%ADD22C,0.500000*%
%TD*%
G04 APERTURE END LIST*
D10*
%TO.P,PWR_GND,1,Pin_1*%
%TO.N,+7.5V*%
X175750000Y-78250000D03*
D11*
%TO.P,PWR_GND,2,Pin_2*%
%TO.N,GND*%
X168550000Y-78250000D03*
%TD*%
D12*
%TO.P,LED1,1,K*%
%TO.N,GND*%
X170275000Y-99000000D03*
D13*
%TO.P,LED1,2,A*%
%TO.N,Net-(LED1-Pad2)*%
X167735000Y-99000000D03*
%TD*%
D14*
%TO.P,R1,1*%
%TO.N,Net-(L293D1-Pad1)*%
X153940000Y-99000000D03*
D15*
%TO.P,R1,2*%
%TO.N,Net-(LED1-Pad2)*%
X161560000Y-99000000D03*
%TD*%
D16*
%TO.P,Raspi_Logic,6,Pin_6*%
%TO.N,Net-(L293D1-Pad15)*%
X148250000Y-110910000D03*
%TO.P,Raspi_Logic,5,Pin_5*%
%TO.N,Net-(L293D1-Pad10)*%
X148250000Y-108370000D03*
%TO.P,Raspi_Logic,4,Pin_4*%
%TO.N,Net-(L293D1-Pad7)*%
X148250000Y-105830000D03*
%TO.P,Raspi_Logic,3,Pin_3*%
%TO.N,Net-(L293D1-Pad2)*%
X148250000Y-103290000D03*
%TO.P,Raspi_Logic,2,Pin_2*%
%TO.N,Net-(L293D1-Pad9)*%
X148250000Y-100750000D03*
D17*
%TO.P,Raspi_Logic,1,Pin_1*%
%TO.N,Net-(L293D1-Pad1)*%
X148250000Y-98210000D03*
%TD*%
D18*
%TO.P,Motor_1,1,Pin_1*%
%TO.N,Net-(L293D1-Pad3)*%
X201250000Y-88265000D03*
D19*
%TO.P,Motor_1,2,Pin_2*%
%TO.N,Net-(L293D1-Pad6)*%
X201250000Y-83265000D03*
%TD*%
D14*
%TO.P,R2,1*%
%TO.N,Net-(L293D1-Pad9)*%
X153940000Y-107000000D03*
D15*
%TO.P,R2,2*%
%TO.N,Net-(LED2-Pad2)*%
X161560000Y-107000000D03*
%TD*%
D18*
%TO.P,Motor_2,1,Pin_1*%
%TO.N,Net-(L293D1-Pad11)*%
X201250000Y-116750000D03*
D19*
%TO.P,Motor_2,2,Pin_2*%
%TO.N,Net-(L293D1-Pad14)*%
X201250000Y-111750000D03*
%TD*%
D12*
%TO.P,LED2,1,K*%
%TO.N,GND*%
X170250000Y-107750000D03*
D13*
%TO.P,LED2,2,A*%
%TO.N,Net-(LED2-Pad2)*%
X167710000Y-107750000D03*
%TD*%
D20*
%TO.P,L293D,1,EN1\u002C2*%
%TO.N,Net-(L293D1-Pad1)*%
X196125000Y-96450000D03*
D15*
%TO.P,L293D,2,1A*%
%TO.N,Net-(L293D1-Pad2)*%
X193585000Y-96450000D03*
%TO.P,L293D,3,1Y*%
%TO.N,Net-(L293D1-Pad3)*%
X191045000Y-96450000D03*
%TO.P,L293D,4,GND*%
%TO.N,GND*%
X188505000Y-96450000D03*
%TO.P,L293D,5,GND*%
X185965000Y-96450000D03*
%TO.P,L293D,6,2Y*%
%TO.N,Net-(L293D1-Pad6)*%
X183425000Y-96450000D03*
%TO.P,L293D,7,2A*%
%TO.N,Net-(L293D1-Pad7)*%
X180885000Y-96450000D03*
%TO.P,L293D,8,VCC2*%
%TO.N,+7.5V*%
X178345000Y-96450000D03*
%TO.P,L293D,9,EN3\u002C4*%
%TO.N,Net-(L293D1-Pad9)*%
X178345000Y-104070000D03*
%TO.P,L293D,10,3A*%
%TO.N,Net-(L293D1-Pad10)*%
X180885000Y-104070000D03*
%TO.P,L293D,11,3Y*%
%TO.N,Net-(L293D1-Pad11)*%
X183425000Y-104070000D03*
%TO.P,L293D,12,GND*%
%TO.N,GND*%
X185965000Y-104070000D03*
%TO.P,L293D,13,GND*%
X188505000Y-104070000D03*
%TO.P,L293D,14,4Y*%
%TO.N,Net-(L293D1-Pad14)*%
X191045000Y-104070000D03*
%TO.P,L293D,15,4A*%
%TO.N,Net-(L293D1-Pad15)*%
X193585000Y-104070000D03*
%TO.P,L293D,16,VCC1*%
%TO.N,+5V*%
X196125000Y-104070000D03*
%TD*%
D17*
%TO.P,Raspi_PWR,1,Pin_1*%
%TO.N,+5V*%
X189275000Y-78250000D03*
D16*
%TO.P,Raspi_PWR,2,Pin_2*%
%TO.N,GND*%
X186735000Y-78250000D03*
%TD*%
D21*
%TO.N,GND*%
X173000000Y-99000000D03*
X173000000Y-108000000D03*
X186000000Y-102500000D03*
X170000000Y-85000000D03*
X188500000Y-102500000D03*
X186000000Y-94000000D03*
X186750000Y-80750000D03*
X188500000Y-94000000D03*
%TO.N,Net-(L293D1-Pad2)*%
X182750000Y-98250000D03*
X179750000Y-98250000D03*
%TO.N,Net-(L293D1-Pad7)*%
X180750000Y-100250000D03*
X179500000Y-102099500D03*
%TD*%
D22*
%TO.N,Net-(L293D1-Pad2)*%
X179750000Y-98250000D02*
X182750000Y-98250000D01*
%TO.N,Net-(L293D1-Pad7)*%
X179500000Y-102099500D02*
X179500000Y-101000000D01*
X180250000Y-100250000D02*
X180750000Y-100250000D01*
X179500000Y-101000000D02*
X180250000Y-100250000D01*
%TD*%
%TA.AperFunction,Conductor*%
%TO.N,GND*%
G36*
X208642539Y-72320185D02*
G01*
X208688294Y-72372989D01*
X208699500Y-72424500D01*
X208699500Y-126075500D01*
X208679815Y-126142539D01*
X208627011Y-126188294D01*
X208575500Y-126199500D01*
X145924500Y-126199500D01*
X145857461Y-126179815D01*
X145811706Y-126127011D01*
X145800500Y-126075500D01*
X145800500Y-122933789D01*
X147595996Y-122933789D01*
X147604913Y-123171295D01*
X147605990Y-123176430D01*
X147605991Y-123176435D01*
X147652639Y-123398758D01*
X147653719Y-123403904D01*
X147741020Y-123624963D01*
X147743741Y-123629447D01*
X147743743Y-123629451D01*
X147811233Y-123740670D01*
X147864319Y-123828153D01*
X148020090Y-124007664D01*
X148076227Y-124053693D01*
X148188083Y-124145409D01*
X148203880Y-124158362D01*
X148208441Y-124160958D01*
X148208442Y-124160959D01*
X148405875Y-124273345D01*
X148405880Y-124273347D01*
X148410433Y-124275939D01*
X148633844Y-124357034D01*
X148867725Y-124399326D01*
X148892619Y-124400500D01*
X149059680Y-124400500D01*
X149062296Y-124400278D01*
X149062297Y-124400278D01*
X149231590Y-124385913D01*
X149236823Y-124385469D01*
X149466874Y-124325760D01*
X149683576Y-124228143D01*
X149880732Y-124095409D01*
X150052705Y-123931355D01*
X150194579Y-123740670D01*
X150230469Y-123670080D01*
X150299913Y-123533493D01*
X150299915Y-123533488D01*
X150302295Y-123528807D01*
X150372775Y-123301824D01*
X150373466Y-123296612D01*
X150403315Y-123071412D01*
X150403315Y-123071408D01*
X150404004Y-123066211D01*
X150400910Y-122983789D01*
X203595996Y-122983789D01*
X203604913Y-123221295D01*
X203605990Y-123226430D01*
X203605991Y-123226435D01*
X203652639Y-123448758D01*
X203653719Y-123453904D01*
X203741020Y-123674963D01*
X203743741Y-123679447D01*
X203743743Y-123679451D01*
X203811233Y-123790670D01*
X203864319Y-123878153D01*
X204020090Y-124057664D01*
X204203880Y-124208362D01*
X204208441Y-124210958D01*
X204208442Y-124210959D01*
X204405875Y-124323345D01*
X204405880Y-124323347D01*
X204410433Y-124325939D01*
X204633844Y-124407034D01*
X204867725Y-124449326D01*
X204892619Y-124450500D01*
X205059680Y-124450500D01*
X205062296Y-124450278D01*
X205062297Y-124450278D01*
X205231590Y-124435913D01*
X205236823Y-124435469D01*
X205466874Y-124375760D01*
X205683576Y-124278143D01*
X205880732Y-124145409D01*
X206052705Y-123981355D01*
X206194579Y-123790670D01*
X206222379Y-123735991D01*
X206299913Y-123583493D01*
X206299915Y-123583488D01*
X206302295Y-123578807D01*
X206316366Y-123533493D01*
X206371215Y-123356848D01*
X206372775Y-123351824D01*
X206404004Y-123116211D01*
X206395087Y-122878705D01*
X206385697Y-122833949D01*
X206347361Y-122651242D01*
X206347360Y-122651239D01*
X206346281Y-122646096D01*
X206258980Y-122425037D01*
X206231603Y-122379920D01*
X206138408Y-122226341D01*
X206135681Y-122221847D01*
X205979910Y-122042336D01*
X205816335Y-121908213D01*
X205800179Y-121894966D01*
X205800178Y-121894965D01*
X205796120Y-121891638D01*
X205791558Y-121889041D01*
X205594125Y-121776655D01*
X205594120Y-121776653D01*
X205589567Y-121774061D01*
X205366156Y-121692966D01*
X205132275Y-121650674D01*
X205107381Y-121649500D01*
X204940320Y-121649500D01*
X204937704Y-121649722D01*
X204937703Y-121649722D01*
X204926484Y-121650674D01*
X204763177Y-121664531D01*
X204533126Y-121724240D01*
X204316424Y-121821857D01*
X204119268Y-121954591D01*
X203947295Y-122118645D01*
X203805421Y-122309330D01*
X203803042Y-122314008D01*
X203803042Y-122314009D01*
X203725509Y-122466507D01*
X203697705Y-122521193D01*
X203627225Y-122748176D01*
X203626534Y-122753386D01*
X203626534Y-122753388D01*
X203603313Y-122928588D01*
X203595996Y-122983789D01*
X150400910Y-122983789D01*
X150395087Y-122828705D01*
X150378191Y-122748176D01*
X150347361Y-122601242D01*
X150347360Y-122601239D01*
X150346281Y-122596096D01*
X150258980Y-122375037D01*
X150191607Y-122264009D01*
X150138408Y-122176341D01*
X150135681Y-122171847D01*
X149979910Y-121992336D01*
X149796120Y-121841638D01*
X149761370Y-121821857D01*
X149594125Y-121726655D01*
X149594120Y-121726653D01*
X149589567Y-121724061D01*
X149366156Y-121642966D01*
X149132275Y-121600674D01*
X149107381Y-121599500D01*
X148940320Y-121599500D01*
X148937704Y-121599722D01*
X148937703Y-121599722D01*
X148926484Y-121600674D01*
X148763177Y-121614531D01*
X148533126Y-121674240D01*
X148316424Y-121771857D01*
X148119268Y-121904591D01*
X147947295Y-122068645D01*
X147805421Y-122259330D01*
X147803042Y-122264008D01*
X147803042Y-122264009D01*
X147721172Y-122425037D01*
X147697705Y-122471193D01*
X147696146Y-122476213D01*
X147696145Y-122476216D01*
X147680620Y-122526216D01*
X147627225Y-122698176D01*
X147595996Y-122933789D01*
X145800500Y-122933789D01*
X145800500Y-117784646D01*
X198969500Y-117784646D01*
X198972618Y-117810846D01*
X199018061Y-117913153D01*
X199097287Y-117992241D01*
X199107758Y-117996870D01*
X199107759Y-117996871D01*
X199191147Y-118033737D01*
X199191149Y-118033738D01*
X199199673Y-118037506D01*
X199225354Y-118040500D01*
X203274646Y-118040500D01*
X203278300Y-118040065D01*
X203278302Y-118040065D01*
X203283266Y-118039474D01*
X203300846Y-118037382D01*
X203403153Y-117991939D01*
X203482241Y-117912713D01*
X203527506Y-117810327D01*
X203530500Y-117784646D01*
X203530500Y-115715354D01*
X203527382Y-115689154D01*
X203481939Y-115586847D01*
X203402713Y-115507759D01*
X203392242Y-115503130D01*
X203392241Y-115503129D01*
X203308853Y-115466263D01*
X203308851Y-115466262D01*
X203300327Y-115462494D01*
X203274646Y-115459500D01*
X199225354Y-115459500D01*
X199221700Y-115459935D01*
X199221698Y-115459935D01*
X199216734Y-115460526D01*
X199199154Y-115462618D01*
X199096847Y-115508061D01*
X199017759Y-115587287D01*
X198972494Y-115689673D01*
X198969500Y-115715354D01*
X198969500Y-117784646D01*
X145800500Y-117784646D01*
X145800500Y-110879754D01*
X147094967Y-110879754D01*
X147095338Y-110885416D01*
X147095338Y-110885420D01*
X147096949Y-110910000D01*
X147108796Y-111090749D01*
X147160845Y-111295690D01*
X147163219Y-111300841D01*
X147163221Y-111300845D01*
X147201981Y-111384922D01*
X147249369Y-111487714D01*
X147371405Y-111660391D01*
X147522865Y-111807937D01*
X147527588Y-111811093D01*
X147527592Y-111811096D01*
X147598663Y-111858584D01*
X147698677Y-111925411D01*
X147892953Y-112008878D01*
X147956283Y-112023208D01*
X148093638Y-112054289D01*
X148093642Y-112054290D01*
X148099186Y-112055544D01*
X148225651Y-112060513D01*
X148304789Y-112063623D01*
X148304791Y-112063623D01*
X148310470Y-112063846D01*
X148316090Y-112063031D01*
X148316092Y-112063031D01*
X148514103Y-112034320D01*
X148514104Y-112034320D01*
X148519730Y-112033504D01*
X148598890Y-112006633D01*
X148714565Y-111967367D01*
X148714568Y-111967366D01*
X148719955Y-111965537D01*
X148724916Y-111962759D01*
X148724922Y-111962756D01*
X148831530Y-111903052D01*
X148904442Y-111862219D01*
X149039372Y-111750000D01*
X198964570Y-111750000D01*
X198984250Y-111974949D01*
X198985652Y-111980181D01*
X199005846Y-112055544D01*
X199042694Y-112193063D01*
X199138125Y-112397715D01*
X199141232Y-112402152D01*
X199141233Y-112402154D01*
X199264537Y-112578251D01*
X199264541Y-112578255D01*
X199267643Y-112582686D01*
X199427314Y-112742357D01*
X199431745Y-112745459D01*
X199431749Y-112745463D01*
X199607846Y-112868767D01*
X199612285Y-112871875D01*
X199816937Y-112967306D01*
X199822160Y-112968705D01*
X199822164Y-112968707D01*
X199997402Y-113015662D01*
X200035051Y-113025750D01*
X200125594Y-113033671D01*
X200200947Y-113040264D01*
X200200954Y-113040264D01*
X200203648Y-113040500D01*
X202296352Y-113040500D01*
X202299046Y-113040264D01*
X202299053Y-113040264D01*
X202374406Y-113033671D01*
X202464949Y-113025750D01*
X202502598Y-113015662D01*
X202677836Y-112968707D01*
X202677840Y-112968705D01*
X202683063Y-112967306D01*
X202887715Y-112871875D01*
X202892154Y-112868767D01*
X203068251Y-112745463D01*
X203068255Y-112745459D01*
X203072686Y-112742357D01*
X203232357Y-112582686D01*
X203235459Y-112578255D01*
X203235463Y-112578251D01*
X203358767Y-112402154D01*
X203358768Y-112402152D01*
X203361875Y-112397715D01*
X203457306Y-112193063D01*
X203494155Y-112055544D01*
X203514348Y-111980181D01*
X203515750Y-111974949D01*
X203535430Y-111750000D01*
X203515750Y-111525051D01*
X203478202Y-111384922D01*
X203458707Y-111312164D01*
X203458705Y-111312160D01*
X203457306Y-111306937D01*
X203361875Y-111102285D01*
X203358767Y-111097846D01*
X203235463Y-110921749D01*
X203235459Y-110921745D01*
X203232357Y-110917314D01*
X203072686Y-110757643D01*
X203068255Y-110754541D01*
X203068251Y-110754537D01*
X202892154Y-110631233D01*
X202892152Y-110631232D01*
X202887715Y-110628125D01*
X202683063Y-110532694D01*
X202677840Y-110531295D01*
X202677836Y-110531293D01*
X202470181Y-110475652D01*
X202470182Y-110475652D01*
X202464949Y-110474250D01*
X202374406Y-110466329D01*
X202299053Y-110459736D01*
X202299046Y-110459736D01*
X202296352Y-110459500D01*
X200203648Y-110459500D01*
X200200954Y-110459736D01*
X200200947Y-110459736D01*
X200125594Y-110466329D01*
X200035051Y-110474250D01*
X200029818Y-110475652D01*
X200029819Y-110475652D01*
X199822164Y-110531293D01*
X199822160Y-110531295D01*
X199816937Y-110532694D01*
X199612285Y-110628125D01*
X199607848Y-110631232D01*
X199607846Y-110631233D01*
X199431749Y-110754537D01*
X199431745Y-110754541D01*
X199427314Y-110757643D01*
X199267643Y-110917314D01*
X199264541Y-110921745D01*
X199264537Y-110921749D01*
X199141233Y-111097846D01*
X199138125Y-111102285D01*
X199042694Y-111306937D01*
X199041295Y-111312160D01*
X199041293Y-111312164D01*
X199021798Y-111384922D01*
X198984250Y-111525051D01*
X198964570Y-111750000D01*
X149039372Y-111750000D01*
X149067012Y-111727012D01*
X149070644Y-111722645D01*
X149198584Y-111568813D01*
X149198585Y-111568811D01*
X149202219Y-111564442D01*
X149248078Y-111482556D01*
X149302756Y-111384922D01*
X149302759Y-111384916D01*
X149305537Y-111379955D01*
X149336009Y-111290189D01*
X149371675Y-111185118D01*
X149373504Y-111179730D01*
X149403846Y-110970470D01*
X149405429Y-110910000D01*
X149386081Y-110699440D01*
X149328686Y-110495931D01*
X149235165Y-110306290D01*
X149108651Y-110136867D01*
X149104481Y-110133012D01*
X149104478Y-110133009D01*
X149040319Y-110073702D01*
X148953381Y-109993337D01*
X148774554Y-109880505D01*
X148578160Y-109802152D01*
X148572579Y-109801042D01*
X148572576Y-109801041D01*
X148376355Y-109762011D01*
X148376356Y-109762011D01*
X148370775Y-109760901D01*
X148370744Y-109760901D01*
X148307828Y-109735019D01*
X148267841Y-109677723D01*
X148265178Y-109607904D01*
X148300684Y-109547729D01*
X148367606Y-109515562D01*
X148514103Y-109494320D01*
X148514104Y-109494320D01*
X148519730Y-109493504D01*
X148598890Y-109466633D01*
X148714565Y-109427367D01*
X148714568Y-109427366D01*
X148719955Y-109425537D01*
X148724916Y-109422759D01*
X148724922Y-109422756D01*
X148831530Y-109363052D01*
X148904442Y-109322219D01*
X149067012Y-109187012D01*
X149101457Y-109145596D01*
X149198584Y-109028813D01*
X149198585Y-109028811D01*
X149202219Y-109024442D01*
X149259404Y-108922331D01*
X149302756Y-108844922D01*
X149302759Y-108844916D01*
X149305537Y-108839955D01*
X149315862Y-108809540D01*
X149371675Y-108645118D01*
X149373504Y-108639730D01*
X149403846Y-108430470D01*
X149405429Y-108370000D01*
X149386081Y-108159440D01*
X149328686Y-107955931D01*
X149235165Y-107766290D01*
X149108651Y-107596867D01*
X149104481Y-107593012D01*
X149104478Y-107593009D01*
X149009250Y-107504982D01*
X148953381Y-107453337D01*
X148774554Y-107340505D01*
X148578160Y-107262152D01*
X148572579Y-107261042D01*
X148572576Y-107261041D01*
X148376355Y-107222011D01*
X148376356Y-107222011D01*
X148370775Y-107220901D01*
X148370744Y-107220901D01*
X148307828Y-107195019D01*
X148267841Y-107137723D01*
X148265178Y-107067904D01*
X148300684Y-107007729D01*
X148367606Y-106975562D01*
X148398592Y-106971069D01*
X152835164Y-106971069D01*
X152835535Y-106976731D01*
X152835535Y-106976735D01*
X152840851Y-107057842D01*
X152848392Y-107172894D01*
X152898178Y-107368928D01*
X152982856Y-107552607D01*
X153099588Y-107717780D01*
X153244466Y-107858913D01*
X153412637Y-107971282D01*
X153598470Y-108051122D01*
X153694502Y-108072852D01*
X153790193Y-108094505D01*
X153790195Y-108094505D01*
X153795740Y-108095760D01*
X153913135Y-108100372D01*
X153992161Y-108103477D01*
X153992163Y-108103477D01*
X153997842Y-108103700D01*
X154003462Y-108102885D01*
X154003465Y-108102885D01*
X154192387Y-108075493D01*
X154192389Y-108075493D01*
X154198007Y-108074678D01*
X154203384Y-108072853D01*
X154203387Y-108072852D01*
X154325346Y-108031452D01*
X154389531Y-108009664D01*
X154525942Y-107933271D01*
X154561048Y-107913611D01*
X154561050Y-107913610D01*
X154566001Y-107910837D01*
X154628433Y-107858913D01*
X154717138Y-107785137D01*
X154721505Y-107781505D01*
X154759155Y-107736236D01*
X154847206Y-107630367D01*
X154847207Y-107630366D01*
X154850837Y-107626001D01*
X154864604Y-107601419D01*
X154922986Y-107497169D01*
X154949664Y-107449531D01*
X155004286Y-107288620D01*
X155012852Y-107263387D01*
X155012853Y-107263384D01*
X155014678Y-107258007D01*
X155015493Y-107252387D01*
X155043176Y-107061458D01*
X155043176Y-107061453D01*
X155043700Y-107057842D01*
X155045215Y-107000000D01*
X155042557Y-106971069D01*
X160455164Y-106971069D01*
X160455535Y-106976731D01*
X160455535Y-106976735D01*
X160460851Y-107057842D01*
X160468392Y-107172894D01*
X160518178Y-107368928D01*
X160602856Y-107552607D01*
X160719588Y-107717780D01*
X160864466Y-107858913D01*
X161032637Y-107971282D01*
X161218470Y-108051122D01*
X161314502Y-108072852D01*
X161410193Y-108094505D01*
X161410195Y-108094505D01*
X161415740Y-108095760D01*
X161533135Y-108100372D01*
X161612161Y-108103477D01*
X161612163Y-108103477D01*
X161617842Y-108103700D01*
X161623462Y-108102885D01*
X161623465Y-108102885D01*
X161812387Y-108075493D01*
X161812389Y-108075493D01*
X161818007Y-108074678D01*
X161823384Y-108072853D01*
X161823387Y-108072852D01*
X161945346Y-108031452D01*
X162009531Y-108009664D01*
X162145942Y-107933271D01*
X162181048Y-107913611D01*
X162181050Y-107913610D01*
X162186001Y-107910837D01*
X162248433Y-107858913D01*
X162337138Y-107785137D01*
X162341505Y-107781505D01*
X162379155Y-107736236D01*
X162393956Y-107718440D01*
X166504770Y-107718440D01*
X166505141Y-107724102D01*
X166505141Y-107724106D01*
X166508617Y-107777138D01*
X166519200Y-107938604D01*
X166573511Y-108152452D01*
X166575887Y-108157606D01*
X166576733Y-108159440D01*
X166665883Y-108352821D01*
X166669161Y-108357459D01*
X166781766Y-108516792D01*
X166793222Y-108533002D01*
X166797293Y-108536968D01*
X166797294Y-108536969D01*
X166947190Y-108682993D01*
X166947195Y-108682997D01*
X166951264Y-108686961D01*
X166955987Y-108690117D01*
X166955991Y-108690120D01*
X167040185Y-108746376D01*
X167134717Y-108809540D01*
X167337436Y-108896635D01*
X167350743Y-108899646D01*
X167547085Y-108944074D01*
X167547087Y-108944074D01*
X167552632Y-108945329D01*
X167690457Y-108950744D01*
X167767418Y-108953768D01*
X167767420Y-108953768D01*
X167773098Y-108953991D01*
X167778718Y-108953176D01*
X167778721Y-108953176D01*
X167985826Y-108923147D01*
X167985829Y-108923146D01*
X167991452Y-108922331D01*
X168103456Y-108884311D01*
X168194989Y-108853240D01*
X168194992Y-108853239D01*
X168200379Y-108851410D01*
X168353331Y-108765753D01*
X168387931Y-108746376D01*
X168387932Y-108746375D01*
X168392884Y-108743602D01*
X168562518Y-108602518D01*
X168605574Y-108550749D01*
X168630664Y-108520582D01*
X168688666Y-108481627D01*
X168758521Y-108480214D01*
X168818051Y-108516792D01*
X168848356Y-108579747D01*
X168850000Y-108599873D01*
X168850000Y-108693972D01*
X168850363Y-108700669D01*
X168855803Y-108750744D01*
X168859371Y-108765753D01*
X168903817Y-108884311D01*
X168912212Y-108899646D01*
X168987516Y-109000124D01*
X168999876Y-109012484D01*
X169100354Y-109087788D01*
X169115689Y-109096183D01*
X169234247Y-109140629D01*
X169249256Y-109144197D01*
X169299331Y-109149637D01*
X169306028Y-109150000D01*
X169982170Y-109150000D01*
X169997169Y-109145596D01*
X169998356Y-109144226D01*
X170000000Y-109136668D01*
X170000000Y-109132170D01*
X170500000Y-109132170D01*
X170504404Y-109147169D01*
X170505774Y-109148356D01*
X170513332Y-109150000D01*
X171193972Y-109150000D01*
X171200669Y-109149637D01*
X171250744Y-109144197D01*
X171265753Y-109140629D01*
X171384311Y-109096183D01*
X171399646Y-109087788D01*
X171500124Y-109012484D01*
X171512484Y-109000124D01*
X171587788Y-108899646D01*
X171596183Y-108884311D01*
X171640629Y-108765753D01*
X171644197Y-108750744D01*
X171649637Y-108700669D01*
X171650000Y-108693972D01*
X171650000Y-108017830D01*
X171645596Y-108002831D01*
X171644226Y-108001644D01*
X171636668Y-108000000D01*
X170517830Y-108000000D01*
X170502831Y-108004404D01*
X170501644Y-108005774D01*
X170500000Y-108013332D01*
X170500000Y-109132170D01*
X170000000Y-109132170D01*
X170000000Y-107482170D01*
X170500000Y-107482170D01*
X170504404Y-107497169D01*
X170505774Y-107498356D01*
X170513332Y-107500000D01*
X171632170Y-107500000D01*
X171647169Y-107495596D01*
X171648356Y-107494226D01*
X171650000Y-107486668D01*
X171650000Y-106806028D01*
X171649637Y-106799331D01*
X171644197Y-106749256D01*
X171640629Y-106734247D01*
X171596183Y-106615689D01*
X171587788Y-106600354D01*
X171512484Y-106499876D01*
X171500124Y-106487516D01*
X171399646Y-106412212D01*
X171384311Y-106403817D01*
X171265753Y-106359371D01*
X171250744Y-106355803D01*
X171200669Y-106350363D01*
X171193972Y-106350000D01*
X170517830Y-106350000D01*
X170502831Y-106354404D01*
X170501644Y-106355774D01*
X170500000Y-106363332D01*
X170500000Y-107482170D01*
X170000000Y-107482170D01*
X170000000Y-106367830D01*
X169995596Y-106352831D01*
X169994226Y-106351644D01*
X169986668Y-106350000D01*
X169306028Y-106350000D01*
X169299331Y-106350363D01*
X169249256Y-106355803D01*
X169234247Y-106359371D01*
X169115689Y-106403817D01*
X169100354Y-106412212D01*
X168999876Y-106487516D01*
X168987516Y-106499876D01*
X168912212Y-106600354D01*
X168903817Y-106615689D01*
X168859371Y-106734247D01*
X168855803Y-106749256D01*
X168850363Y-106799331D01*
X168850000Y-106806028D01*
X168850000Y-106896766D01*
X168830315Y-106963805D01*
X168777511Y-107009560D01*
X168708353Y-107019504D01*
X168644797Y-106990479D01*
X168626649Y-106970963D01*
X168605967Y-106943267D01*
X168443949Y-106793499D01*
X168345046Y-106731096D01*
X168262159Y-106678798D01*
X168262157Y-106678797D01*
X168257350Y-106675764D01*
X168052421Y-106594006D01*
X168046840Y-106592896D01*
X168046837Y-106592895D01*
X167941890Y-106572020D01*
X167836024Y-106550962D01*
X167830337Y-106550888D01*
X167830332Y-106550887D01*
X167621095Y-106548148D01*
X167621090Y-106548148D01*
X167615406Y-106548074D01*
X167609802Y-106549037D01*
X167609801Y-106549037D01*
X167403560Y-106584475D01*
X167403557Y-106584476D01*
X167397957Y-106585438D01*
X167190957Y-106661804D01*
X167162393Y-106678798D01*
X167017854Y-106764790D01*
X167001341Y-106774614D01*
X166835457Y-106920090D01*
X166698863Y-107093360D01*
X166696216Y-107098391D01*
X166630967Y-107222409D01*
X166596131Y-107288620D01*
X166594443Y-107294055D01*
X166594443Y-107294056D01*
X166544985Y-107453337D01*
X166530703Y-107499333D01*
X166530035Y-107504978D01*
X166530034Y-107504982D01*
X166519159Y-107596867D01*
X166504770Y-107718440D01*
X162393956Y-107718440D01*
X162467206Y-107630367D01*
X162467207Y-107630366D01*
X162470837Y-107626001D01*
X162484604Y-107601419D01*
X162542986Y-107497169D01*
X162569664Y-107449531D01*
X162624286Y-107288620D01*
X162632852Y-107263387D01*
X162632853Y-107263384D01*
X162634678Y-107258007D01*
X162635493Y-107252387D01*
X162663176Y-107061458D01*
X162663176Y-107061453D01*
X162663700Y-107057842D01*
X162665215Y-107000000D01*
X162646708Y-106798591D01*
X162608130Y-106661804D01*
X162593352Y-106609403D01*
X162593351Y-106609400D01*
X162591807Y-106603926D01*
X162502351Y-106422527D01*
X162381335Y-106260467D01*
X162232812Y-106123174D01*
X162195656Y-106099730D01*
X162066566Y-106018280D01*
X162066564Y-106018279D01*
X162061757Y-106015246D01*
X161873898Y-105940298D01*
X161868317Y-105939188D01*
X161868314Y-105939187D01*
X161800373Y-105925673D01*
X161675526Y-105900839D01*
X161669839Y-105900765D01*
X161669834Y-105900764D01*
X161478975Y-105898266D01*
X161478970Y-105898266D01*
X161473286Y-105898192D01*
X161467682Y-105899155D01*
X161467681Y-105899155D01*
X161279546Y-105931482D01*
X161279543Y-105931483D01*
X161273949Y-105932444D01*
X161252660Y-105940298D01*
X161089521Y-106000483D01*
X161089517Y-106000485D01*
X161084193Y-106002449D01*
X161079310Y-106005354D01*
X161079308Y-106005355D01*
X161057583Y-106018280D01*
X160910371Y-106105862D01*
X160758305Y-106239220D01*
X160633089Y-106398057D01*
X160630442Y-106403088D01*
X160587639Y-106484442D01*
X160538914Y-106577053D01*
X160537229Y-106582479D01*
X160537228Y-106582482D01*
X160531679Y-106600354D01*
X160478937Y-106770213D01*
X160455164Y-106971069D01*
X155042557Y-106971069D01*
X155026708Y-106798591D01*
X154988130Y-106661804D01*
X154973352Y-106609403D01*
X154973351Y-106609400D01*
X154971807Y-106603926D01*
X154882351Y-106422527D01*
X154761335Y-106260467D01*
X154612812Y-106123174D01*
X154575656Y-106099730D01*
X154446566Y-106018280D01*
X154446564Y-106018279D01*
X154441757Y-106015246D01*
X154253898Y-105940298D01*
X154248317Y-105939188D01*
X154248314Y-105939187D01*
X154180373Y-105925673D01*
X154055526Y-105900839D01*
X154049839Y-105900765D01*
X154049834Y-105900764D01*
X153858975Y-105898266D01*
X153858970Y-105898266D01*
X153853286Y-105898192D01*
X153847682Y-105899155D01*
X153847681Y-105899155D01*
X153659546Y-105931482D01*
X153659543Y-105931483D01*
X153653949Y-105932444D01*
X153632660Y-105940298D01*
X153469521Y-106000483D01*
X153469517Y-106000485D01*
X153464193Y-106002449D01*
X153459310Y-106005354D01*
X153459308Y-106005355D01*
X153437583Y-106018280D01*
X153290371Y-106105862D01*
X153138305Y-106239220D01*
X153013089Y-106398057D01*
X153010442Y-106403088D01*
X152967639Y-106484442D01*
X152918914Y-106577053D01*
X152917229Y-106582479D01*
X152917228Y-106582482D01*
X152911679Y-106600354D01*
X152858937Y-106770213D01*
X152835164Y-106971069D01*
X148398592Y-106971069D01*
X148514103Y-106954320D01*
X148514104Y-106954320D01*
X148519730Y-106953504D01*
X148598890Y-106926633D01*
X148714565Y-106887367D01*
X148714568Y-106887366D01*
X148719955Y-106885537D01*
X148724916Y-106882759D01*
X148724922Y-106882756D01*
X148861928Y-106806028D01*
X148904442Y-106782219D01*
X148925399Y-106764790D01*
X149062645Y-106650644D01*
X149067012Y-106647012D01*
X149105817Y-106600354D01*
X149198584Y-106488813D01*
X149198585Y-106488811D01*
X149202219Y-106484442D01*
X149250597Y-106398057D01*
X149302756Y-106304922D01*
X149302759Y-106304916D01*
X149305537Y-106299955D01*
X149318942Y-106260467D01*
X149371675Y-106105118D01*
X149373504Y-106099730D01*
X149403846Y-105890470D01*
X149405429Y-105830000D01*
X149386081Y-105619440D01*
X149328686Y-105415931D01*
X149235165Y-105226290D01*
X149108651Y-105056867D01*
X149104481Y-105053012D01*
X149104478Y-105053009D01*
X149022474Y-104977206D01*
X148953381Y-104913337D01*
X148855384Y-104851505D01*
X148779363Y-104803539D01*
X148779361Y-104803538D01*
X148774554Y-104800505D01*
X148578160Y-104722152D01*
X148572579Y-104721042D01*
X148572576Y-104721041D01*
X148376355Y-104682011D01*
X148376356Y-104682011D01*
X148370775Y-104680901D01*
X148370744Y-104680901D01*
X148307828Y-104655019D01*
X148267841Y-104597723D01*
X148265178Y-104527904D01*
X148300684Y-104467729D01*
X148367606Y-104435562D01*
X148514103Y-104414320D01*
X148514104Y-104414320D01*
X148519730Y-104413504D01*
X148620578Y-104379271D01*
X148714565Y-104347367D01*
X148714568Y-104347366D01*
X148719955Y-104345537D01*
X148724916Y-104342759D01*
X148724922Y-104342756D01*
X148831530Y-104283052D01*
X148904442Y-104242219D01*
X149041967Y-104127842D01*
X149062645Y-104110644D01*
X149067012Y-104107012D01*
X149097794Y-104070000D01*
X149121856Y-104041069D01*
X177240164Y-104041069D01*
X177240535Y-104046731D01*
X177240535Y-104046735D01*
X177245851Y-104127842D01*
X177253392Y-104242894D01*
X177303178Y-104438928D01*
X177305554Y-104444082D01*
X177383044Y-104612168D01*
X177387856Y-104622607D01*
X177504588Y-104787780D01*
X177649466Y-104928913D01*
X177817637Y-105041282D01*
X178003470Y-105121122D01*
X178099502Y-105142852D01*
X178195193Y-105164505D01*
X178195195Y-105164505D01*
X178200740Y-105165760D01*
X178318135Y-105170372D01*
X178397161Y-105173477D01*
X178397163Y-105173477D01*
X178402842Y-105173700D01*
X178408462Y-105172885D01*
X178408465Y-105172885D01*
X178597387Y-105145493D01*
X178597389Y-105145493D01*
X178603007Y-105144678D01*
X178608384Y-105142853D01*
X178608387Y-105142852D01*
X178693090Y-105114099D01*
X178794531Y-105079664D01*
X178971001Y-104980837D01*
X179033433Y-104928913D01*
X179122138Y-104855137D01*
X179126505Y-104851505D01*
X179166398Y-104803539D01*
X179252206Y-104700367D01*
X179252207Y-104700366D01*
X179255837Y-104696001D01*
X179264294Y-104680901D01*
X179351886Y-104524491D01*
X179354664Y-104519531D01*
X179402276Y-104379271D01*
X179417852Y-104333387D01*
X179417853Y-104333384D01*
X179419678Y-104328007D01*
X179432019Y-104242894D01*
X179448176Y-104131458D01*
X179448176Y-104131453D01*
X179448700Y-104127842D01*
X179449151Y-104110644D01*
X179450119Y-104073661D01*
X179450215Y-104070000D01*
X179447557Y-104041069D01*
X179780164Y-104041069D01*
X179780535Y-104046731D01*
X179780535Y-104046735D01*
X179785851Y-104127842D01*
X179793392Y-104242894D01*
X179843178Y-104438928D01*
X179845554Y-104444082D01*
X179923044Y-104612168D01*
X179927856Y-104622607D01*
X180044588Y-104787780D01*
X180189466Y-104928913D01*
X180357637Y-105041282D01*
X180543470Y-105121122D01*
X180639502Y-105142852D01*
X180735193Y-105164505D01*
X180735195Y-105164505D01*
X180740740Y-105165760D01*
X180858135Y-105170372D01*
X180937161Y-105173477D01*
X180937163Y-105173477D01*
X180942842Y-105173700D01*
X180948462Y-105172885D01*
X180948465Y-105172885D01*
X181137387Y-105145493D01*
X181137389Y-105145493D01*
X181143007Y-105144678D01*
X181148384Y-105142853D01*
X181148387Y-105142852D01*
X181233090Y-105114099D01*
X181334531Y-105079664D01*
X181511001Y-104980837D01*
X181573433Y-104928913D01*
X181662138Y-104855137D01*
X181666505Y-104851505D01*
X181706398Y-104803539D01*
X181792206Y-104700367D01*
X181792207Y-104700366D01*
X181795837Y-104696001D01*
X181804294Y-104680901D01*
X181891886Y-104524491D01*
X181894664Y-104519531D01*
X181942276Y-104379271D01*
X181957852Y-104333387D01*
X181957853Y-104333384D01*
X181959678Y-104328007D01*
X181972019Y-104242894D01*
X181988176Y-104131458D01*
X181988176Y-104131453D01*
X181988700Y-104127842D01*
X181989151Y-104110644D01*
X181990119Y-104073661D01*
X181990215Y-104070000D01*
X181987557Y-104041069D01*
X182320164Y-104041069D01*
X182320535Y-104046731D01*
X182320535Y-104046735D01*
X182325851Y-104127842D01*
X182333392Y-104242894D01*
X182383178Y-104438928D01*
X182385554Y-104444082D01*
X182463044Y-104612168D01*
X182467856Y-104622607D01*
X182584588Y-104787780D01*
X182729466Y-104928913D01*
X182897637Y-105041282D01*
X183083470Y-105121122D01*
X183179502Y-105142852D01*
X183275193Y-105164505D01*
X183275195Y-105164505D01*
X183280740Y-105165760D01*
X183398135Y-105170372D01*
X183477161Y-105173477D01*
X183477163Y-105173477D01*
X183482842Y-105173700D01*
X183488462Y-105172885D01*
X183488465Y-105172885D01*
X183677387Y-105145493D01*
X183677389Y-105145493D01*
X183683007Y-105144678D01*
X183688384Y-105142853D01*
X183688387Y-105142852D01*
X183773090Y-105114099D01*
X183874531Y-105079664D01*
X184051001Y-104980837D01*
X184113433Y-104928913D01*
X184202138Y-104855137D01*
X184206505Y-104851505D01*
X184246398Y-104803539D01*
X184332206Y-104700367D01*
X184332207Y-104700366D01*
X184335837Y-104696001D01*
X184344294Y-104680901D01*
X184431886Y-104524491D01*
X184434664Y-104519531D01*
X184463894Y-104433423D01*
X184473681Y-104404592D01*
X184513870Y-104347438D01*
X184578579Y-104321085D01*
X184647264Y-104333899D01*
X184698117Y-104381814D01*
X184710875Y-104412358D01*
X184737331Y-104511095D01*
X184741021Y-104521231D01*
X184832580Y-104717580D01*
X184837968Y-104726913D01*
X184962233Y-104904381D01*
X184969169Y-104912647D01*
X185122353Y-105065831D01*
X185130619Y-105072767D01*
X185308087Y-105197032D01*
X185317420Y-105202420D01*
X185513765Y-105293977D01*
X185523908Y-105297669D01*
X185697779Y-105344258D01*
X185711653Y-105343927D01*
X185715000Y-105336111D01*
X185715000Y-105331042D01*
X186215000Y-105331042D01*
X186218910Y-105344359D01*
X186227326Y-105345569D01*
X186406092Y-105297669D01*
X186416235Y-105293977D01*
X186612580Y-105202420D01*
X186621913Y-105197032D01*
X186799381Y-105072767D01*
X186807647Y-105065831D01*
X186960831Y-104912647D01*
X186967767Y-104904381D01*
X187092032Y-104726913D01*
X187097423Y-104717576D01*
X187122618Y-104663544D01*
X187168790Y-104611104D01*
X187235983Y-104591952D01*
X187302865Y-104612168D01*
X187347382Y-104663544D01*
X187372577Y-104717576D01*
X187377968Y-104726913D01*
X187502233Y-104904381D01*
X187509169Y-104912647D01*
X187662353Y-105065831D01*
X187670619Y-105072767D01*
X187848087Y-105197032D01*
X187857420Y-105202420D01*
X188053765Y-105293977D01*
X188063908Y-105297669D01*
X188237779Y-105344258D01*
X188251653Y-105343927D01*
X188255000Y-105336111D01*
X188255000Y-105331042D01*
X188755000Y-105331042D01*
X188758910Y-105344359D01*
X188767326Y-105345569D01*
X188946092Y-105297669D01*
X188956235Y-105293977D01*
X189152580Y-105202420D01*
X189161913Y-105197032D01*
X189339381Y-105072767D01*
X189347647Y-105065831D01*
X189500831Y-104912647D01*
X189507767Y-104904381D01*
X189632032Y-104726913D01*
X189637420Y-104717580D01*
X189728979Y-104521231D01*
X189732668Y-104511098D01*
X189757967Y-104416680D01*
X189794332Y-104357020D01*
X189857179Y-104326491D01*
X189926555Y-104334786D01*
X189980433Y-104379271D01*
X189997927Y-104418253D01*
X190001779Y-104433423D01*
X190001782Y-104433432D01*
X190003178Y-104438928D01*
X190005554Y-104444082D01*
X190083044Y-104612168D01*
X190087856Y-104622607D01*
X190204588Y-104787780D01*
X190349466Y-104928913D01*
X190517637Y-105041282D01*
X190703470Y-105121122D01*
X190799502Y-105142852D01*
X190895193Y-105164505D01*
X190895195Y-105164505D01*
X190900740Y-105165760D01*
X191018135Y-105170372D01*
X191097161Y-105173477D01*
X191097163Y-105173477D01*
X191102842Y-105173700D01*
X191108462Y-105172885D01*
X191108465Y-105172885D01*
X191297387Y-105145493D01*
X191297389Y-105145493D01*
X191303007Y-105144678D01*
X191308384Y-105142853D01*
X191308387Y-105142852D01*
X191393090Y-105114099D01*
X191494531Y-105079664D01*
X191671001Y-104980837D01*
X191733433Y-104928913D01*
X191822138Y-104855137D01*
X191826505Y-104851505D01*
X191866398Y-104803539D01*
X191952206Y-104700367D01*
X191952207Y-104700366D01*
X191955837Y-104696001D01*
X191964294Y-104680901D01*
X192051886Y-104524491D01*
X192054664Y-104519531D01*
X192102276Y-104379271D01*
X192117852Y-104333387D01*
X192117853Y-104333384D01*
X192119678Y-104328007D01*
X192132019Y-104242894D01*
X192148176Y-104131458D01*
X192148176Y-104131453D01*
X192148700Y-104127842D01*
X192149151Y-104110644D01*
X192150119Y-104073661D01*
X192150215Y-104070000D01*
X192147557Y-104041069D01*
X192480164Y-104041069D01*
X192480535Y-104046731D01*
X192480535Y-104046735D01*
X192485851Y-104127842D01*
X192493392Y-104242894D01*
X192543178Y-104438928D01*
X192545554Y-104444082D01*
X192623044Y-104612168D01*
X192627856Y-104622607D01*
X192744588Y-104787780D01*
X192889466Y-104928913D01*
X193057637Y-105041282D01*
X193243470Y-105121122D01*
X193339502Y-105142852D01*
X193435193Y-105164505D01*
X193435195Y-105164505D01*
X193440740Y-105165760D01*
X193558135Y-105170372D01*
X193637161Y-105173477D01*
X193637163Y-105173477D01*
X193642842Y-105173700D01*
X193648462Y-105172885D01*
X193648465Y-105172885D01*
X193837387Y-105145493D01*
X193837389Y-105145493D01*
X193843007Y-105144678D01*
X193848384Y-105142853D01*
X193848387Y-105142852D01*
X193933090Y-105114099D01*
X194034531Y-105079664D01*
X194211001Y-104980837D01*
X194273433Y-104928913D01*
X194362138Y-104855137D01*
X194366505Y-104851505D01*
X194406398Y-104803539D01*
X194492206Y-104700367D01*
X194492207Y-104700366D01*
X194495837Y-104696001D01*
X194504294Y-104680901D01*
X194591886Y-104524491D01*
X194594664Y-104519531D01*
X194642276Y-104379271D01*
X194657852Y-104333387D01*
X194657853Y-104333384D01*
X194659678Y-104328007D01*
X194672019Y-104242894D01*
X194688176Y-104131458D01*
X194688176Y-104131453D01*
X194688700Y-104127842D01*
X194689151Y-104110644D01*
X194690119Y-104073661D01*
X194690215Y-104070000D01*
X194687557Y-104041069D01*
X195020164Y-104041069D01*
X195020535Y-104046731D01*
X195020535Y-104046735D01*
X195025851Y-104127842D01*
X195033392Y-104242894D01*
X195083178Y-104438928D01*
X195085554Y-104444082D01*
X195163044Y-104612168D01*
X195167856Y-104622607D01*
X195284588Y-104787780D01*
X195429466Y-104928913D01*
X195597637Y-105041282D01*
X195783470Y-105121122D01*
X195879502Y-105142852D01*
X195975193Y-105164505D01*
X195975195Y-105164505D01*
X195980740Y-105165760D01*
X196098135Y-105170372D01*
X196177161Y-105173477D01*
X196177163Y-105173477D01*
X196182842Y-105173700D01*
X196188462Y-105172885D01*
X196188465Y-105172885D01*
X196377387Y-105145493D01*
X196377389Y-105145493D01*
X196383007Y-105144678D01*
X196388384Y-105142853D01*
X196388387Y-105142852D01*
X196473090Y-105114099D01*
X196574531Y-105079664D01*
X196751001Y-104980837D01*
X196813433Y-104928913D01*
X196902138Y-104855137D01*
X196906505Y-104851505D01*
X196946398Y-104803539D01*
X197032206Y-104700367D01*
X197032207Y-104700366D01*
X197035837Y-104696001D01*
X197044294Y-104680901D01*
X197131886Y-104524491D01*
X197134664Y-104519531D01*
X197182276Y-104379271D01*
X197197852Y-104333387D01*
X197197853Y-104333384D01*
X197199678Y-104328007D01*
X197212019Y-104242894D01*
X197228176Y-104131458D01*
X197228176Y-104131453D01*
X197228700Y-104127842D01*
X197229151Y-104110644D01*
X197230119Y-104073661D01*
X197230215Y-104070000D01*
X197211708Y-103868591D01*
X197181070Y-103759955D01*
X197158352Y-103679403D01*
X197158351Y-103679400D01*
X197156807Y-103673926D01*
X197067351Y-103492527D01*
X196946335Y-103330467D01*
X196797812Y-103193174D01*
X196626757Y-103085246D01*
X196438898Y-103010298D01*
X196433317Y-103009188D01*
X196433314Y-103009187D01*
X196365373Y-102995673D01*
X196240526Y-102970839D01*
X196234839Y-102970765D01*
X196234834Y-102970764D01*
X196043975Y-102968266D01*
X196043970Y-102968266D01*
X196038286Y-102968192D01*
X196032682Y-102969155D01*
X196032681Y-102969155D01*
X195844546Y-103001482D01*
X195844543Y-103001483D01*
X195838949Y-103002444D01*
X195817660Y-103010298D01*
X195654521Y-103070483D01*
X195654517Y-103070485D01*
X195649193Y-103072449D01*
X195644310Y-103075354D01*
X195644308Y-103075355D01*
X195627683Y-103085246D01*
X195475371Y-103175862D01*
X195323305Y-103309220D01*
X195198089Y-103468057D01*
X195103914Y-103647053D01*
X195102229Y-103652479D01*
X195102228Y-103652482D01*
X195096730Y-103670189D01*
X195043937Y-103840213D01*
X195020164Y-104041069D01*
X194687557Y-104041069D01*
X194671708Y-103868591D01*
X194641070Y-103759955D01*
X194618352Y-103679403D01*
X194618351Y-103679400D01*
X194616807Y-103673926D01*
X194527351Y-103492527D01*
X194406335Y-103330467D01*
X194257812Y-103193174D01*
X194086757Y-103085246D01*
X193898898Y-103010298D01*
X193893317Y-103009188D01*
X193893314Y-103009187D01*
X193825373Y-102995673D01*
X193700526Y-102970839D01*
X193694839Y-102970765D01*
X193694834Y-102970764D01*
X193503975Y-102968266D01*
X193503970Y-102968266D01*
X193498286Y-102968192D01*
X193492682Y-102969155D01*
X193492681Y-102969155D01*
X193304546Y-103001482D01*
X193304543Y-103001483D01*
X193298949Y-103002444D01*
X193277660Y-103010298D01*
X193114521Y-103070483D01*
X193114517Y-103070485D01*
X193109193Y-103072449D01*
X193104310Y-103075354D01*
X193104308Y-103075355D01*
X193087683Y-103085246D01*
X192935371Y-103175862D01*
X192783305Y-103309220D01*
X192658089Y-103468057D01*
X192563914Y-103647053D01*
X192562229Y-103652479D01*
X192562228Y-103652482D01*
X192556730Y-103670189D01*
X192503937Y-103840213D01*
X192480164Y-104041069D01*
X192147557Y-104041069D01*
X192131708Y-103868591D01*
X192101070Y-103759955D01*
X192078352Y-103679403D01*
X192078351Y-103679400D01*
X192076807Y-103673926D01*
X191987351Y-103492527D01*
X191866335Y-103330467D01*
X191717812Y-103193174D01*
X191546757Y-103085246D01*
X191358898Y-103010298D01*
X191353317Y-103009188D01*
X191353314Y-103009187D01*
X191285373Y-102995673D01*
X191160526Y-102970839D01*
X191154839Y-102970765D01*
X191154834Y-102970764D01*
X190963975Y-102968266D01*
X190963970Y-102968266D01*
X190958286Y-102968192D01*
X190952682Y-102969155D01*
X190952681Y-102969155D01*
X190764546Y-103001482D01*
X190764543Y-103001483D01*
X190758949Y-103002444D01*
X190737660Y-103010298D01*
X190574521Y-103070483D01*
X190574517Y-103070485D01*
X190569193Y-103072449D01*
X190564310Y-103075354D01*
X190564308Y-103075355D01*
X190547683Y-103085246D01*
X190395371Y-103175862D01*
X190243305Y-103309220D01*
X190118089Y-103468057D01*
X190023914Y-103647053D01*
X190022230Y-103652478D01*
X190022227Y-103652484D01*
X189997377Y-103732518D01*
X189958698Y-103790705D01*
X189894701Y-103818744D01*
X189825705Y-103807733D01*
X189773615Y-103761167D01*
X189759179Y-103727842D01*
X189732668Y-103628902D01*
X189728979Y-103618769D01*
X189637420Y-103422420D01*
X189632032Y-103413087D01*
X189507767Y-103235619D01*
X189500831Y-103227353D01*
X189347647Y-103074169D01*
X189339381Y-103067233D01*
X189161913Y-102942968D01*
X189152580Y-102937580D01*
X188956235Y-102846023D01*
X188946092Y-102842331D01*
X188772221Y-102795742D01*
X188758347Y-102796073D01*
X188755000Y-102803889D01*
X188755000Y-105331042D01*
X188255000Y-105331042D01*
X188255000Y-104337830D01*
X188250596Y-104322831D01*
X188249226Y-104321644D01*
X188241668Y-104320000D01*
X186232830Y-104320000D01*
X186217831Y-104324404D01*
X186216644Y-104325774D01*
X186215000Y-104333332D01*
X186215000Y-105331042D01*
X185715000Y-105331042D01*
X185715000Y-103802170D01*
X186215000Y-103802170D01*
X186219404Y-103817169D01*
X186220774Y-103818356D01*
X186228332Y-103820000D01*
X188237170Y-103820000D01*
X188252169Y-103815596D01*
X188253356Y-103814226D01*
X188255000Y-103806668D01*
X188255000Y-102808958D01*
X188251090Y-102795641D01*
X188242674Y-102794431D01*
X188063908Y-102842331D01*
X188053765Y-102846023D01*
X187857420Y-102937580D01*
X187848087Y-102942968D01*
X187670619Y-103067233D01*
X187662353Y-103074169D01*
X187509169Y-103227353D01*
X187502233Y-103235619D01*
X187377968Y-103413087D01*
X187372577Y-103422424D01*
X187347382Y-103476456D01*
X187301210Y-103528896D01*
X187234017Y-103548048D01*
X187167135Y-103527832D01*
X187122618Y-103476456D01*
X187097423Y-103422424D01*
X187092032Y-103413087D01*
X186967767Y-103235619D01*
X186960831Y-103227353D01*
X186807647Y-103074169D01*
X186799381Y-103067233D01*
X186621913Y-102942968D01*
X186612580Y-102937580D01*
X186416235Y-102846023D01*
X186406092Y-102842331D01*
X186232221Y-102795742D01*
X186218347Y-102796073D01*
X186215000Y-102803889D01*
X186215000Y-103802170D01*
X185715000Y-103802170D01*
X185715000Y-102808958D01*
X185711090Y-102795641D01*
X185702674Y-102794431D01*
X185523908Y-102842331D01*
X185513765Y-102846023D01*
X185317420Y-102937580D01*
X185308087Y-102942968D01*
X185130619Y-103067233D01*
X185122353Y-103074169D01*
X184969169Y-103227353D01*
X184962233Y-103235619D01*
X184837968Y-103413087D01*
X184832580Y-103422420D01*
X184741021Y-103618769D01*
X184737331Y-103628905D01*
X184711188Y-103726475D01*
X184674823Y-103786136D01*
X184611976Y-103816665D01*
X184542601Y-103808370D01*
X184488723Y-103763885D01*
X184472069Y-103728041D01*
X184458351Y-103679401D01*
X184456807Y-103673926D01*
X184367351Y-103492527D01*
X184246335Y-103330467D01*
X184097812Y-103193174D01*
X183926757Y-103085246D01*
X183738898Y-103010298D01*
X183733317Y-103009188D01*
X183733314Y-103009187D01*
X183665373Y-102995673D01*
X183540526Y-102970839D01*
X183534839Y-102970765D01*
X183534834Y-102970764D01*
X183343975Y-102968266D01*
X183343970Y-102968266D01*
X183338286Y-102968192D01*
X183332682Y-102969155D01*
X183332681Y-102969155D01*
X183144546Y-103001482D01*
X183144543Y-103001483D01*
X183138949Y-103002444D01*
X183117660Y-103010298D01*
X182954521Y-103070483D01*
X182954517Y-103070485D01*
X182949193Y-103072449D01*
X182944310Y-103075354D01*
X182944308Y-103075355D01*
X182927683Y-103085246D01*
X182775371Y-103175862D01*
X182623305Y-103309220D01*
X182498089Y-103468057D01*
X182403914Y-103647053D01*
X182402229Y-103652479D01*
X182402228Y-103652482D01*
X182396730Y-103670189D01*
X182343937Y-103840213D01*
X182320164Y-104041069D01*
X181987557Y-104041069D01*
X181971708Y-103868591D01*
X181941070Y-103759955D01*
X181918352Y-103679403D01*
X181918351Y-103679400D01*
X181916807Y-103673926D01*
X181827351Y-103492527D01*
X181706335Y-103330467D01*
X181557812Y-103193174D01*
X181386757Y-103085246D01*
X181198898Y-103010298D01*
X181193317Y-103009188D01*
X181193314Y-103009187D01*
X181125373Y-102995673D01*
X181000526Y-102970839D01*
X180994839Y-102970765D01*
X180994834Y-102970764D01*
X180803975Y-102968266D01*
X180803970Y-102968266D01*
X180798286Y-102968192D01*
X180792682Y-102969155D01*
X180792681Y-102969155D01*
X180604546Y-103001482D01*
X180604543Y-103001483D01*
X180598949Y-103002444D01*
X180577660Y-103010298D01*
X180414521Y-103070483D01*
X180414517Y-103070485D01*
X180409193Y-103072449D01*
X180404310Y-103075354D01*
X180404308Y-103075355D01*
X180387683Y-103085246D01*
X180235371Y-103175862D01*
X180083305Y-103309220D01*
X179958089Y-103468057D01*
X179863914Y-103647053D01*
X179862229Y-103652479D01*
X179862228Y-103652482D01*
X179856730Y-103670189D01*
X179803937Y-103840213D01*
X179780164Y-104041069D01*
X179447557Y-104041069D01*
X179431708Y-103868591D01*
X179401070Y-103759955D01*
X179378352Y-103679403D01*
X179378351Y-103679400D01*
X179376807Y-103673926D01*
X179287351Y-103492527D01*
X179166335Y-103330467D01*
X179017812Y-103193174D01*
X178846757Y-103085246D01*
X178658898Y-103010298D01*
X178653317Y-103009188D01*
X178653314Y-103009187D01*
X178585373Y-102995673D01*
X178460526Y-102970839D01*
X178454839Y-102970765D01*
X178454834Y-102970764D01*
X178263975Y-102968266D01*
X178263970Y-102968266D01*
X178258286Y-102968192D01*
X178252682Y-102969155D01*
X178252681Y-102969155D01*
X178064546Y-103001482D01*
X178064543Y-103001483D01*
X178058949Y-103002444D01*
X178037660Y-103010298D01*
X177874521Y-103070483D01*
X177874517Y-103070485D01*
X177869193Y-103072449D01*
X177864310Y-103075354D01*
X177864308Y-103075355D01*
X177847683Y-103085246D01*
X177695371Y-103175862D01*
X177543305Y-103309220D01*
X177418089Y-103468057D01*
X177323914Y-103647053D01*
X177322229Y-103652479D01*
X177322228Y-103652482D01*
X177316730Y-103670189D01*
X177263937Y-103840213D01*
X177240164Y-104041069D01*
X149121856Y-104041069D01*
X149198584Y-103948813D01*
X149198585Y-103948811D01*
X149202219Y-103944442D01*
X149248078Y-103862556D01*
X149302756Y-103764922D01*
X149302759Y-103764916D01*
X149305537Y-103759955D01*
X149316371Y-103728041D01*
X149371675Y-103565118D01*
X149373504Y-103559730D01*
X149403846Y-103350470D01*
X149405429Y-103290000D01*
X149386081Y-103079440D01*
X149328686Y-102875931D01*
X149235165Y-102686290D01*
X149108651Y-102516867D01*
X149104481Y-102513012D01*
X149104478Y-102513009D01*
X149017398Y-102432514D01*
X148953381Y-102373337D01*
X148808834Y-102282134D01*
X148779363Y-102263539D01*
X148779361Y-102263538D01*
X148774554Y-102260505D01*
X148578160Y-102182152D01*
X148572579Y-102181042D01*
X148572576Y-102181041D01*
X148376355Y-102142011D01*
X148376356Y-102142011D01*
X148370775Y-102140901D01*
X148370744Y-102140901D01*
X148307828Y-102115019D01*
X148291840Y-102092111D01*
X178794394Y-102092111D01*
X178795214Y-102099539D01*
X178795214Y-102099541D01*
X178799903Y-102142011D01*
X178812999Y-102260635D01*
X178815565Y-102267647D01*
X178815566Y-102267651D01*
X178847619Y-102355238D01*
X178871266Y-102419856D01*
X178875433Y-102426058D01*
X178875435Y-102426061D01*
X178924530Y-102499122D01*
X178965830Y-102560583D01*
X178971360Y-102565615D01*
X179085702Y-102669659D01*
X179085706Y-102669662D01*
X179091233Y-102674691D01*
X179240235Y-102755592D01*
X179335585Y-102780607D01*
X179397005Y-102796720D01*
X179397007Y-102796720D01*
X179404233Y-102798616D01*
X179487178Y-102799919D01*
X179566290Y-102801162D01*
X179566293Y-102801162D01*
X179573760Y-102801279D01*
X179696209Y-102773235D01*
X179731738Y-102765098D01*
X179731739Y-102765098D01*
X179739029Y-102763428D01*
X179882255Y-102691393D01*
X179883820Y-102690606D01*
X179883822Y-102690605D01*
X179890498Y-102687247D01*
X179896180Y-102682394D01*
X179896183Y-102682392D01*
X180013741Y-102581987D01*
X180019423Y-102577134D01*
X180118361Y-102439447D01*
X180181601Y-102282134D01*
X180183662Y-102267651D01*
X180204918Y-102118300D01*
X180204918Y-102118294D01*
X180205490Y-102114278D01*
X180205645Y-102099500D01*
X180203854Y-102084699D01*
X180186175Y-101938605D01*
X180186174Y-101938601D01*
X180185276Y-101931180D01*
X180171336Y-101894289D01*
X180127989Y-101779573D01*
X180127987Y-101779570D01*
X180125345Y-101772577D01*
X180072309Y-101695410D01*
X180050500Y-101625175D01*
X180050500Y-101279387D01*
X180070185Y-101212348D01*
X180086819Y-101191706D01*
X180180831Y-101097694D01*
X180348941Y-100929583D01*
X180410264Y-100896098D01*
X180482271Y-100901972D01*
X180483659Y-100902522D01*
X180490235Y-100906092D01*
X180562625Y-100925083D01*
X180647005Y-100947220D01*
X180647007Y-100947220D01*
X180654233Y-100949116D01*
X180737178Y-100950419D01*
X180816290Y-100951662D01*
X180816293Y-100951662D01*
X180823760Y-100951779D01*
X180946209Y-100923735D01*
X180981738Y-100915598D01*
X180981739Y-100915598D01*
X180989029Y-100913928D01*
X181097064Y-100859592D01*
X181133820Y-100841106D01*
X181133822Y-100841105D01*
X181140498Y-100837747D01*
X181146180Y-100832894D01*
X181146183Y-100832892D01*
X181263741Y-100732487D01*
X181269423Y-100727634D01*
X181368361Y-100589947D01*
X181431601Y-100432634D01*
X181432654Y-100425237D01*
X181454918Y-100268800D01*
X181454918Y-100268794D01*
X181455490Y-100264778D01*
X181455645Y-100250000D01*
X181446025Y-100170502D01*
X181436175Y-100089105D01*
X181436174Y-100089101D01*
X181435276Y-100081680D01*
X181408754Y-100011492D01*
X181377989Y-99930073D01*
X181377987Y-99930070D01*
X181375345Y-99923077D01*
X181364437Y-99907206D01*
X181283549Y-99789513D01*
X181283546Y-99789510D01*
X181279312Y-99783349D01*
X181221261Y-99731627D01*
X181158303Y-99675533D01*
X181158301Y-99675532D01*
X181152721Y-99670560D01*
X181138347Y-99662949D01*
X181059209Y-99621048D01*
X181002881Y-99591224D01*
X180838441Y-99549919D01*
X180752248Y-99549468D01*
X180676368Y-99549070D01*
X180676367Y-99549070D01*
X180668895Y-99549031D01*
X180654000Y-99552607D01*
X180511295Y-99586868D01*
X180511293Y-99586869D01*
X180504032Y-99588612D01*
X180497399Y-99592035D01*
X180497395Y-99592037D01*
X180441188Y-99621048D01*
X180353369Y-99666375D01*
X180347735Y-99671289D01*
X180341556Y-99675489D01*
X180340283Y-99673616D01*
X180286960Y-99698180D01*
X180268912Y-99699500D01*
X180264957Y-99699500D01*
X180259764Y-99699391D01*
X180206154Y-99697144D01*
X180206153Y-99697144D01*
X180197706Y-99696790D01*
X180189475Y-99698721D01*
X180189471Y-99698721D01*
X180155253Y-99706747D01*
X180143768Y-99708876D01*
X180135346Y-99710030D01*
X180108940Y-99713647D01*
X180108939Y-99713647D01*
X180100568Y-99714794D01*
X180092810Y-99718151D01*
X180092811Y-99718151D01*
X180086611Y-99720834D01*
X180065675Y-99727758D01*
X180059094Y-99729301D01*
X180059089Y-99729303D01*
X180050864Y-99731232D01*
X180043456Y-99735305D01*
X180043455Y-99735305D01*
X180012649Y-99752240D01*
X180002159Y-99757379D01*
X179980408Y-99766792D01*
X179962145Y-99774695D01*
X179955571Y-99780018D01*
X179955570Y-99780019D01*
X179950322Y-99784268D01*
X179932025Y-99796564D01*
X179918692Y-99803894D01*
X179910578Y-99810897D01*
X179885966Y-99835509D01*
X179876321Y-99844194D01*
X179844930Y-99869614D01*
X179840034Y-99876504D01*
X179833936Y-99885084D01*
X179820541Y-99900934D01*
X179121333Y-100600143D01*
X179117585Y-100603738D01*
X179078065Y-100640078D01*
X179078063Y-100640080D01*
X179071844Y-100645799D01*
X179067390Y-100652983D01*
X179048864Y-100682862D01*
X179042247Y-100692490D01*
X179020998Y-100720484D01*
X179020996Y-100720487D01*
X179015888Y-100727217D01*
X179012777Y-100735075D01*
X179012774Y-100735080D01*
X179010290Y-100741355D01*
X179000382Y-100761056D01*
X178992365Y-100773986D01*
X178990007Y-100782103D01*
X178980200Y-100815858D01*
X178976416Y-100826909D01*
X178963476Y-100859592D01*
X178960364Y-100867453D01*
X178959481Y-100875857D01*
X178958774Y-100882581D01*
X178954529Y-100904216D01*
X178950285Y-100918825D01*
X178949500Y-100929515D01*
X178949500Y-100964322D01*
X178948821Y-100977282D01*
X178944599Y-101017454D01*
X178946008Y-101025784D01*
X178946008Y-101025787D01*
X178947764Y-101036167D01*
X178949500Y-101056846D01*
X178949500Y-101625257D01*
X178926951Y-101696557D01*
X178922972Y-101702219D01*
X178878113Y-101766047D01*
X178816524Y-101924013D01*
X178794394Y-102092111D01*
X148291840Y-102092111D01*
X148267841Y-102057723D01*
X148265178Y-101987904D01*
X148300684Y-101927729D01*
X148367606Y-101895562D01*
X148514103Y-101874320D01*
X148514104Y-101874320D01*
X148519730Y-101873504D01*
X148598890Y-101846633D01*
X148714565Y-101807367D01*
X148714568Y-101807366D01*
X148719955Y-101805537D01*
X148724916Y-101802759D01*
X148724922Y-101802756D01*
X148831530Y-101743052D01*
X148904442Y-101702219D01*
X148996980Y-101625257D01*
X149062645Y-101570644D01*
X149067012Y-101567012D01*
X149070644Y-101562645D01*
X149198584Y-101408813D01*
X149198585Y-101408811D01*
X149202219Y-101404442D01*
X149248078Y-101322556D01*
X149302756Y-101224922D01*
X149302759Y-101224916D01*
X149305537Y-101219955D01*
X149308120Y-101212348D01*
X149371675Y-101025118D01*
X149373504Y-101019730D01*
X149403846Y-100810470D01*
X149405429Y-100750000D01*
X149386081Y-100539440D01*
X149328686Y-100335931D01*
X149235165Y-100146290D01*
X149108651Y-99976867D01*
X149104481Y-99973012D01*
X149104478Y-99973009D01*
X149026507Y-99900934D01*
X148953381Y-99833337D01*
X148924696Y-99815238D01*
X148779363Y-99723539D01*
X148779361Y-99723538D01*
X148774554Y-99720505D01*
X148578160Y-99642152D01*
X148572579Y-99641042D01*
X148572576Y-99641041D01*
X148396998Y-99606117D01*
X148335087Y-99573732D01*
X148300513Y-99513017D01*
X148304252Y-99443247D01*
X148345118Y-99386575D01*
X148410136Y-99360994D01*
X148421189Y-99360500D01*
X149144646Y-99360500D01*
X149148300Y-99360065D01*
X149148302Y-99360065D01*
X149153266Y-99359474D01*
X149170846Y-99357382D01*
X149273153Y-99311939D01*
X149352241Y-99232713D01*
X149356871Y-99222241D01*
X149393737Y-99138853D01*
X149393738Y-99138851D01*
X149397506Y-99130327D01*
X149400500Y-99104646D01*
X149400500Y-98971069D01*
X152835164Y-98971069D01*
X152835535Y-98976731D01*
X152835535Y-98976735D01*
X152840851Y-99057842D01*
X152848392Y-99172894D01*
X152898178Y-99368928D01*
X152900554Y-99374082D01*
X152964605Y-99513017D01*
X152982856Y-99552607D01*
X153099588Y-99717780D01*
X153244466Y-99858913D01*
X153412637Y-99971282D01*
X153598470Y-100051122D01*
X153635672Y-100059540D01*
X153790193Y-100094505D01*
X153790195Y-100094505D01*
X153795740Y-100095760D01*
X153913135Y-100100372D01*
X153992161Y-100103477D01*
X153992163Y-100103477D01*
X153997842Y-100103700D01*
X154003462Y-100102885D01*
X154003465Y-100102885D01*
X154192387Y-100075493D01*
X154192389Y-100075493D01*
X154198007Y-100074678D01*
X154203384Y-100072853D01*
X154203387Y-100072852D01*
X154371593Y-100015753D01*
X154389531Y-100009664D01*
X154526438Y-99932993D01*
X154561048Y-99913611D01*
X154561050Y-99913610D01*
X154566001Y-99910837D01*
X154586764Y-99893569D01*
X154717138Y-99785137D01*
X154721505Y-99781505D01*
X154734315Y-99766103D01*
X154847206Y-99630367D01*
X154847207Y-99630366D01*
X154850837Y-99626001D01*
X154861973Y-99606117D01*
X154946886Y-99454491D01*
X154949664Y-99449531D01*
X154996268Y-99312241D01*
X155012852Y-99263387D01*
X155012853Y-99263384D01*
X155014678Y-99258007D01*
X155018282Y-99233153D01*
X155043176Y-99061458D01*
X155043176Y-99061453D01*
X155043700Y-99057842D01*
X155045215Y-99000000D01*
X155042557Y-98971069D01*
X160455164Y-98971069D01*
X160455535Y-98976731D01*
X160455535Y-98976735D01*
X160460851Y-99057842D01*
X160468392Y-99172894D01*
X160518178Y-99368928D01*
X160520554Y-99374082D01*
X160584605Y-99513017D01*
X160602856Y-99552607D01*
X160719588Y-99717780D01*
X160864466Y-99858913D01*
X161032637Y-99971282D01*
X161218470Y-100051122D01*
X161255672Y-100059540D01*
X161410193Y-100094505D01*
X161410195Y-100094505D01*
X161415740Y-100095760D01*
X161533135Y-100100372D01*
X161612161Y-100103477D01*
X161612163Y-100103477D01*
X161617842Y-100103700D01*
X161623462Y-100102885D01*
X161623465Y-100102885D01*
X161812387Y-100075493D01*
X161812389Y-100075493D01*
X161818007Y-100074678D01*
X161823384Y-100072853D01*
X161823387Y-100072852D01*
X161991593Y-100015753D01*
X162009531Y-100009664D01*
X162146438Y-99932993D01*
X162181048Y-99913611D01*
X162181050Y-99913610D01*
X162186001Y-99910837D01*
X162206764Y-99893569D01*
X162337138Y-99785137D01*
X162341505Y-99781505D01*
X162354315Y-99766103D01*
X162467206Y-99630367D01*
X162467207Y-99630366D01*
X162470837Y-99626001D01*
X162481973Y-99606117D01*
X162566886Y-99454491D01*
X162569664Y-99449531D01*
X162616268Y-99312241D01*
X162632852Y-99263387D01*
X162632853Y-99263384D01*
X162634678Y-99258007D01*
X162638282Y-99233153D01*
X162663176Y-99061458D01*
X162663176Y-99061453D01*
X162663700Y-99057842D01*
X162665215Y-99000000D01*
X162662315Y-98968440D01*
X166529770Y-98968440D01*
X166530141Y-98974102D01*
X166530141Y-98974106D01*
X166532078Y-99003661D01*
X166544200Y-99188604D01*
X166598511Y-99402452D01*
X166600887Y-99407606D01*
X166684333Y-99588612D01*
X166690883Y-99602821D01*
X166694161Y-99607459D01*
X166814078Y-99777138D01*
X166818222Y-99783002D01*
X166822293Y-99786968D01*
X166822294Y-99786969D01*
X166972190Y-99932993D01*
X166972195Y-99932997D01*
X166976264Y-99936961D01*
X166980987Y-99940117D01*
X166980991Y-99940120D01*
X167065185Y-99996376D01*
X167159717Y-100059540D01*
X167362436Y-100146635D01*
X167467913Y-100170502D01*
X167572085Y-100194074D01*
X167572087Y-100194074D01*
X167577632Y-100195329D01*
X167715457Y-100200744D01*
X167792418Y-100203768D01*
X167792420Y-100203768D01*
X167798098Y-100203991D01*
X167803718Y-100203176D01*
X167803721Y-100203176D01*
X168010826Y-100173147D01*
X168010829Y-100173146D01*
X168016452Y-100172331D01*
X168128456Y-100134311D01*
X168219989Y-100103240D01*
X168219992Y-100103239D01*
X168225379Y-100101410D01*
X168417884Y-99993602D01*
X168432533Y-99981419D01*
X168583151Y-99856150D01*
X168587518Y-99852518D01*
X168618524Y-99815238D01*
X168655664Y-99770582D01*
X168713666Y-99731627D01*
X168783521Y-99730214D01*
X168843051Y-99766792D01*
X168873356Y-99829747D01*
X168875000Y-99849873D01*
X168875000Y-99943972D01*
X168875363Y-99950669D01*
X168880803Y-100000744D01*
X168884371Y-100015753D01*
X168928817Y-100134311D01*
X168937212Y-100149646D01*
X169012516Y-100250124D01*
X169024876Y-100262484D01*
X169125354Y-100337788D01*
X169140689Y-100346183D01*
X169259247Y-100390629D01*
X169274256Y-100394197D01*
X169324331Y-100399637D01*
X169331028Y-100400000D01*
X170007170Y-100400000D01*
X170022169Y-100395596D01*
X170023356Y-100394226D01*
X170025000Y-100386668D01*
X170025000Y-100382170D01*
X170525000Y-100382170D01*
X170529404Y-100397169D01*
X170530774Y-100398356D01*
X170538332Y-100400000D01*
X171218972Y-100400000D01*
X171225669Y-100399637D01*
X171275744Y-100394197D01*
X171290753Y-100390629D01*
X171409311Y-100346183D01*
X171424646Y-100337788D01*
X171525124Y-100262484D01*
X171537484Y-100250124D01*
X171612788Y-100149646D01*
X171621183Y-100134311D01*
X171665629Y-100015753D01*
X171669197Y-100000744D01*
X171674637Y-99950669D01*
X171675000Y-99943972D01*
X171675000Y-99267830D01*
X171670596Y-99252831D01*
X171669226Y-99251644D01*
X171661668Y-99250000D01*
X170542830Y-99250000D01*
X170527831Y-99254404D01*
X170526644Y-99255774D01*
X170525000Y-99263332D01*
X170525000Y-100382170D01*
X170025000Y-100382170D01*
X170025000Y-98732170D01*
X170525000Y-98732170D01*
X170529404Y-98747169D01*
X170530774Y-98748356D01*
X170538332Y-98750000D01*
X171657170Y-98750000D01*
X171672169Y-98745596D01*
X171673356Y-98744226D01*
X171675000Y-98736668D01*
X171675000Y-98242611D01*
X179044394Y-98242611D01*
X179045214Y-98250039D01*
X179045214Y-98250041D01*
X179047285Y-98268800D01*
X179062999Y-98411135D01*
X179065565Y-98418147D01*
X179065566Y-98418151D01*
X179118697Y-98563336D01*
X179121266Y-98570356D01*
X179125433Y-98576558D01*
X179125435Y-98576561D01*
X179138510Y-98596018D01*
X179215830Y-98711083D01*
X179221360Y-98716115D01*
X179335702Y-98820159D01*
X179335706Y-98820162D01*
X179341233Y-98825191D01*
X179490235Y-98906092D01*
X179585585Y-98931107D01*
X179647005Y-98947220D01*
X179647007Y-98947220D01*
X179654233Y-98949116D01*
X179737178Y-98950419D01*
X179816290Y-98951662D01*
X179816293Y-98951662D01*
X179823760Y-98951779D01*
X179946209Y-98923735D01*
X179981738Y-98915598D01*
X179981739Y-98915598D01*
X179989029Y-98913928D01*
X180064111Y-98876166D01*
X180133820Y-98841106D01*
X180133822Y-98841105D01*
X180140498Y-98837747D01*
X180149325Y-98830208D01*
X180152080Y-98828974D01*
X180152409Y-98828755D01*
X180152445Y-98828810D01*
X180213087Y-98801639D01*
X180229855Y-98800500D01*
X182268467Y-98800500D01*
X182338747Y-98822929D01*
X182341233Y-98825191D01*
X182347805Y-98828759D01*
X182347806Y-98828760D01*
X182364358Y-98837747D01*
X182490235Y-98906092D01*
X182585585Y-98931107D01*
X182647005Y-98947220D01*
X182647007Y-98947220D01*
X182654233Y-98949116D01*
X182737178Y-98950419D01*
X182816290Y-98951662D01*
X182816293Y-98951662D01*
X182823760Y-98951779D01*
X182946209Y-98923735D01*
X182981738Y-98915598D01*
X182981739Y-98915598D01*
X182989029Y-98913928D01*
X183064111Y-98876166D01*
X183133820Y-98841106D01*
X183133822Y-98841105D01*
X183140498Y-98837747D01*
X183146180Y-98832894D01*
X183146183Y-98832892D01*
X183263741Y-98732487D01*
X183269423Y-98727634D01*
X183368361Y-98589947D01*
X183431601Y-98432634D01*
X183432654Y-98425237D01*
X183454918Y-98268800D01*
X183454918Y-98268794D01*
X183455490Y-98264778D01*
X183455536Y-98260467D01*
X183455602Y-98254065D01*
X183455645Y-98250000D01*
X183454493Y-98240479D01*
X183436175Y-98089105D01*
X183436174Y-98089101D01*
X183435276Y-98081680D01*
X183382650Y-97942408D01*
X183377989Y-97930073D01*
X183377987Y-97930070D01*
X183375345Y-97923077D01*
X183315112Y-97835438D01*
X183283549Y-97789513D01*
X183283546Y-97789510D01*
X183279312Y-97783349D01*
X183273729Y-97778375D01*
X183273724Y-97778369D01*
X183258499Y-97764804D01*
X183221540Y-97705510D01*
X183222505Y-97635647D01*
X183261087Y-97577396D01*
X183325038Y-97549252D01*
X183345853Y-97548318D01*
X183416067Y-97551077D01*
X183477161Y-97553477D01*
X183477163Y-97553477D01*
X183482842Y-97553700D01*
X183488462Y-97552885D01*
X183488465Y-97552885D01*
X183677387Y-97525493D01*
X183677389Y-97525493D01*
X183683007Y-97524678D01*
X183688384Y-97522853D01*
X183688387Y-97522852D01*
X183773861Y-97493837D01*
X183874531Y-97459664D01*
X184051001Y-97360837D01*
X184089458Y-97328853D01*
X184202138Y-97235137D01*
X184206505Y-97231505D01*
X184263364Y-97163140D01*
X184332206Y-97080367D01*
X184332207Y-97080366D01*
X184335837Y-97076001D01*
X184341291Y-97066263D01*
X184431886Y-96904491D01*
X184434664Y-96899531D01*
X184463894Y-96813423D01*
X184473681Y-96784592D01*
X184513870Y-96727438D01*
X184578579Y-96701085D01*
X184647264Y-96713899D01*
X184698117Y-96761814D01*
X184710875Y-96792358D01*
X184737331Y-96891095D01*
X184741021Y-96901231D01*
X184832580Y-97097580D01*
X184837968Y-97106913D01*
X184962233Y-97284381D01*
X184969169Y-97292647D01*
X185122353Y-97445831D01*
X185130619Y-97452767D01*
X185308087Y-97577032D01*
X185317420Y-97582420D01*
X185513765Y-97673977D01*
X185523908Y-97677669D01*
X185697779Y-97724258D01*
X185711653Y-97723927D01*
X185715000Y-97716111D01*
X185715000Y-97711042D01*
X186215000Y-97711042D01*
X186218910Y-97724359D01*
X186227326Y-97725569D01*
X186406092Y-97677669D01*
X186416235Y-97673977D01*
X186612580Y-97582420D01*
X186621913Y-97577032D01*
X186799381Y-97452767D01*
X186807647Y-97445831D01*
X186960831Y-97292647D01*
X186967767Y-97284381D01*
X187092032Y-97106913D01*
X187097423Y-97097576D01*
X187122618Y-97043544D01*
X187168790Y-96991104D01*
X187235983Y-96971952D01*
X187302865Y-96992168D01*
X187347382Y-97043544D01*
X187372577Y-97097576D01*
X187377968Y-97106913D01*
X187502233Y-97284381D01*
X187509169Y-97292647D01*
X187662353Y-97445831D01*
X187670619Y-97452767D01*
X187848087Y-97577032D01*
X187857420Y-97582420D01*
X188053765Y-97673977D01*
X188063908Y-97677669D01*
X188237779Y-97724258D01*
X188251653Y-97723927D01*
X188255000Y-97716111D01*
X188255000Y-97711042D01*
X188755000Y-97711042D01*
X188758910Y-97724359D01*
X188767326Y-97725569D01*
X188946092Y-97677669D01*
X188956235Y-97673977D01*
X189152580Y-97582420D01*
X189161913Y-97577032D01*
X189339381Y-97452767D01*
X189347647Y-97445831D01*
X189500831Y-97292647D01*
X189507767Y-97284381D01*
X189632032Y-97106913D01*
X189637420Y-97097580D01*
X189728979Y-96901231D01*
X189732668Y-96891098D01*
X189757967Y-96796680D01*
X189794332Y-96737020D01*
X189857179Y-96706491D01*
X189926555Y-96714786D01*
X189980433Y-96759271D01*
X189997927Y-96798253D01*
X190001779Y-96813423D01*
X190001782Y-96813432D01*
X190003178Y-96818928D01*
X190005554Y-96824082D01*
X190083044Y-96992168D01*
X190087856Y-97002607D01*
X190204588Y-97167780D01*
X190349466Y-97308913D01*
X190517637Y-97421282D01*
X190703470Y-97501122D01*
X190799502Y-97522852D01*
X190895193Y-97544505D01*
X190895195Y-97544505D01*
X190900740Y-97545760D01*
X191006602Y-97549919D01*
X191097161Y-97553477D01*
X191097163Y-97553477D01*
X191102842Y-97553700D01*
X191108462Y-97552885D01*
X191108465Y-97552885D01*
X191297387Y-97525493D01*
X191297389Y-97525493D01*
X191303007Y-97524678D01*
X191308384Y-97522853D01*
X191308387Y-97522852D01*
X191393861Y-97493837D01*
X191494531Y-97459664D01*
X191671001Y-97360837D01*
X191709458Y-97328853D01*
X191822138Y-97235137D01*
X191826505Y-97231505D01*
X191883364Y-97163140D01*
X191952206Y-97080367D01*
X191952207Y-97080366D01*
X191955837Y-97076001D01*
X191961291Y-97066263D01*
X192051886Y-96904491D01*
X192054664Y-96899531D01*
X192102276Y-96759271D01*
X192117852Y-96713387D01*
X192117853Y-96713384D01*
X192119678Y-96708007D01*
X192148700Y-96507842D01*
X192150215Y-96450000D01*
X192147557Y-96421069D01*
X192480164Y-96421069D01*
X192480535Y-96426731D01*
X192480535Y-96426735D01*
X192485851Y-96507842D01*
X192493392Y-96622894D01*
X192543178Y-96818928D01*
X192545554Y-96824082D01*
X192623044Y-96992168D01*
X192627856Y-97002607D01*
X192744588Y-97167780D01*
X192889466Y-97308913D01*
X193057637Y-97421282D01*
X193243470Y-97501122D01*
X193339502Y-97522852D01*
X193435193Y-97544505D01*
X193435195Y-97544505D01*
X193440740Y-97545760D01*
X193546602Y-97549919D01*
X193637161Y-97553477D01*
X193637163Y-97553477D01*
X193642842Y-97553700D01*
X193648462Y-97552885D01*
X193648465Y-97552885D01*
X193837387Y-97525493D01*
X193837389Y-97525493D01*
X193843007Y-97524678D01*
X193848384Y-97522853D01*
X193848387Y-97522852D01*
X193933861Y-97493837D01*
X194034531Y-97459664D01*
X194211001Y-97360837D01*
X194249458Y-97328853D01*
X194290587Y-97294646D01*
X195024500Y-97294646D01*
X195024935Y-97298300D01*
X195024935Y-97298302D01*
X195025010Y-97298932D01*
X195027618Y-97320846D01*
X195073061Y-97423153D01*
X195152287Y-97502241D01*
X195162758Y-97506870D01*
X195162759Y-97506871D01*
X195246147Y-97543737D01*
X195246149Y-97543738D01*
X195254673Y-97547506D01*
X195280354Y-97550500D01*
X196969646Y-97550500D01*
X196973300Y-97550065D01*
X196973302Y-97550065D01*
X196978266Y-97549474D01*
X196995846Y-97547382D01*
X197098153Y-97501939D01*
X197177241Y-97422713D01*
X197181871Y-97412241D01*
X197218737Y-97328853D01*
X197218738Y-97328851D01*
X197222506Y-97320327D01*
X197225500Y-97294646D01*
X197225500Y-95605354D01*
X197222382Y-95579154D01*
X197176939Y-95476847D01*
X197097713Y-95397759D01*
X197087242Y-95393130D01*
X197087241Y-95393129D01*
X197003853Y-95356263D01*
X197003851Y-95356262D01*
X196995327Y-95352494D01*
X196969646Y-95349500D01*
X195280354Y-95349500D01*
X195276700Y-95349935D01*
X195276698Y-95349935D01*
X195271734Y-95350526D01*
X195254154Y-95352618D01*
X195151847Y-95398061D01*
X195072759Y-95477287D01*
X195068130Y-95487758D01*
X195068129Y-95487759D01*
X195036363Y-95559613D01*
X195027494Y-95579673D01*
X195024500Y-95605354D01*
X195024500Y-97294646D01*
X194290587Y-97294646D01*
X194362138Y-97235137D01*
X194366505Y-97231505D01*
X194423364Y-97163140D01*
X194492206Y-97080367D01*
X194492207Y-97080366D01*
X194495837Y-97076001D01*
X194501291Y-97066263D01*
X194591886Y-96904491D01*
X194594664Y-96899531D01*
X194642276Y-96759271D01*
X194657852Y-96713387D01*
X194657853Y-96713384D01*
X194659678Y-96708007D01*
X194688700Y-96507842D01*
X194690215Y-96450000D01*
X194671708Y-96248591D01*
X194616807Y-96053926D01*
X194527351Y-95872527D01*
X194406335Y-95710467D01*
X194257812Y-95573174D01*
X194105841Y-95477287D01*
X194091566Y-95468280D01*
X194091564Y-95468279D01*
X194086757Y-95465246D01*
X193898898Y-95390298D01*
X193893317Y-95389188D01*
X193893314Y-95389187D01*
X193825373Y-95375673D01*
X193700526Y-95350839D01*
X193694839Y-95350765D01*
X193694834Y-95350764D01*
X193503975Y-95348266D01*
X193503970Y-95348266D01*
X193498286Y-95348192D01*
X193492682Y-95349155D01*
X193492681Y-95349155D01*
X193304546Y-95381482D01*
X193304543Y-95381483D01*
X193298949Y-95382444D01*
X193249731Y-95400601D01*
X193114521Y-95450483D01*
X193114517Y-95450485D01*
X193109193Y-95452449D01*
X193104310Y-95455354D01*
X193104308Y-95455355D01*
X193067444Y-95477287D01*
X192935371Y-95555862D01*
X192783305Y-95689220D01*
X192658089Y-95848057D01*
X192563914Y-96027053D01*
X192562229Y-96032479D01*
X192562228Y-96032482D01*
X192555570Y-96053926D01*
X192503937Y-96220213D01*
X192480164Y-96421069D01*
X192147557Y-96421069D01*
X192131708Y-96248591D01*
X192076807Y-96053926D01*
X191987351Y-95872527D01*
X191866335Y-95710467D01*
X191717812Y-95573174D01*
X191565841Y-95477287D01*
X191551566Y-95468280D01*
X191551564Y-95468279D01*
X191546757Y-95465246D01*
X191358898Y-95390298D01*
X191353317Y-95389188D01*
X191353314Y-95389187D01*
X191285373Y-95375673D01*
X191160526Y-95350839D01*
X191154839Y-95350765D01*
X191154834Y-95350764D01*
X190963975Y-95348266D01*
X190963970Y-95348266D01*
X190958286Y-95348192D01*
X190952682Y-95349155D01*
X190952681Y-95349155D01*
X190764546Y-95381482D01*
X190764543Y-95381483D01*
X190758949Y-95382444D01*
X190709731Y-95400601D01*
X190574521Y-95450483D01*
X190574517Y-95450485D01*
X190569193Y-95452449D01*
X190564310Y-95455354D01*
X190564308Y-95455355D01*
X190527444Y-95477287D01*
X190395371Y-95555862D01*
X190243305Y-95689220D01*
X190118089Y-95848057D01*
X190023914Y-96027053D01*
X190022230Y-96032478D01*
X190022227Y-96032484D01*
X189997377Y-96112518D01*
X189958698Y-96170705D01*
X189894701Y-96198744D01*
X189825705Y-96187733D01*
X189773615Y-96141167D01*
X189759179Y-96107842D01*
X189732668Y-96008902D01*
X189728979Y-95998769D01*
X189637420Y-95802420D01*
X189632032Y-95793087D01*
X189507767Y-95615619D01*
X189500831Y-95607353D01*
X189347647Y-95454169D01*
X189339381Y-95447233D01*
X189161913Y-95322968D01*
X189152580Y-95317580D01*
X188956235Y-95226023D01*
X188946092Y-95222331D01*
X188772221Y-95175742D01*
X188758347Y-95176073D01*
X188755000Y-95183889D01*
X188755000Y-97711042D01*
X188255000Y-97711042D01*
X188255000Y-96717830D01*
X188250596Y-96702831D01*
X188249226Y-96701644D01*
X188241668Y-96700000D01*
X186232830Y-96700000D01*
X186217831Y-96704404D01*
X186216644Y-96705774D01*
X186215000Y-96713332D01*
X186215000Y-97711042D01*
X185715000Y-97711042D01*
X185715000Y-96182170D01*
X186215000Y-96182170D01*
X186219404Y-96197169D01*
X186220774Y-96198356D01*
X186228332Y-96200000D01*
X188237170Y-96200000D01*
X188252169Y-96195596D01*
X188253356Y-96194226D01*
X188255000Y-96186668D01*
X188255000Y-95188958D01*
X188251090Y-95175641D01*
X188242674Y-95174431D01*
X188063908Y-95222331D01*
X188053765Y-95226023D01*
X187857420Y-95317580D01*
X187848087Y-95322968D01*
X187670619Y-95447233D01*
X187662353Y-95454169D01*
X187509169Y-95607353D01*
X187502233Y-95615619D01*
X187377968Y-95793087D01*
X187372577Y-95802424D01*
X187347382Y-95856456D01*
X187301210Y-95908896D01*
X187234017Y-95928048D01*
X187167135Y-95907832D01*
X187122618Y-95856456D01*
X187097423Y-95802424D01*
X187092032Y-95793087D01*
X186967767Y-95615619D01*
X186960831Y-95607353D01*
X186807647Y-95454169D01*
X186799381Y-95447233D01*
X186621913Y-95322968D01*
X186612580Y-95317580D01*
X186416235Y-95226023D01*
X186406092Y-95222331D01*
X186232221Y-95175742D01*
X186218347Y-95176073D01*
X186215000Y-95183889D01*
X186215000Y-96182170D01*
X185715000Y-96182170D01*
X185715000Y-95188958D01*
X185711090Y-95175641D01*
X185702674Y-95174431D01*
X185523908Y-95222331D01*
X185513765Y-95226023D01*
X185317420Y-95317580D01*
X185308087Y-95322968D01*
X185130619Y-95447233D01*
X185122353Y-95454169D01*
X184969169Y-95607353D01*
X184962233Y-95615619D01*
X184837968Y-95793087D01*
X184832580Y-95802420D01*
X184741021Y-95998769D01*
X184737331Y-96008905D01*
X184711188Y-96106475D01*
X184674823Y-96166136D01*
X184611976Y-96196665D01*
X184542601Y-96188370D01*
X184488723Y-96143885D01*
X184472069Y-96108041D01*
X184458351Y-96059401D01*
X184456807Y-96053926D01*
X184367351Y-95872527D01*
X184246335Y-95710467D01*
X184097812Y-95573174D01*
X183945841Y-95477287D01*
X183931566Y-95468280D01*
X183931564Y-95468279D01*
X183926757Y-95465246D01*
X183738898Y-95390298D01*
X183733317Y-95389188D01*
X183733314Y-95389187D01*
X183665373Y-95375673D01*
X183540526Y-95350839D01*
X183534839Y-95350765D01*
X183534834Y-95350764D01*
X183343975Y-95348266D01*
X183343970Y-95348266D01*
X183338286Y-95348192D01*
X183332682Y-95349155D01*
X183332681Y-95349155D01*
X183144546Y-95381482D01*
X183144543Y-95381483D01*
X183138949Y-95382444D01*
X183089731Y-95400601D01*
X182954521Y-95450483D01*
X182954517Y-95450485D01*
X182949193Y-95452449D01*
X182944310Y-95455354D01*
X182944308Y-95455355D01*
X182907444Y-95477287D01*
X182775371Y-95555862D01*
X182623305Y-95689220D01*
X182498089Y-95848057D01*
X182403914Y-96027053D01*
X182402229Y-96032479D01*
X182402228Y-96032482D01*
X182395570Y-96053926D01*
X182343937Y-96220213D01*
X182320164Y-96421069D01*
X182320535Y-96426731D01*
X182320535Y-96426735D01*
X182325851Y-96507842D01*
X182333392Y-96622894D01*
X182383178Y-96818928D01*
X182385554Y-96824082D01*
X182463044Y-96992168D01*
X182467856Y-97002607D01*
X182584588Y-97167780D01*
X182729466Y-97308913D01*
X182734196Y-97312073D01*
X182734199Y-97312076D01*
X182749033Y-97321988D01*
X182793838Y-97375601D01*
X182802544Y-97444926D01*
X182772388Y-97507953D01*
X182712945Y-97544671D01*
X182679490Y-97549086D01*
X182668895Y-97549031D01*
X182649448Y-97553700D01*
X182511295Y-97586868D01*
X182511293Y-97586869D01*
X182504032Y-97588612D01*
X182497399Y-97592035D01*
X182497395Y-97592037D01*
X182447423Y-97617830D01*
X182353369Y-97666375D01*
X182347735Y-97671289D01*
X182341556Y-97675489D01*
X182340283Y-97673616D01*
X182286960Y-97698180D01*
X182268912Y-97699500D01*
X181377946Y-97699500D01*
X181310907Y-97679815D01*
X181265152Y-97627011D01*
X181255208Y-97557853D01*
X181284233Y-97494297D01*
X181327513Y-97462219D01*
X181329146Y-97461492D01*
X181334531Y-97459664D01*
X181511001Y-97360837D01*
X181549458Y-97328853D01*
X181662138Y-97235137D01*
X181666505Y-97231505D01*
X181723364Y-97163140D01*
X181792206Y-97080367D01*
X181792207Y-97080366D01*
X181795837Y-97076001D01*
X181801291Y-97066263D01*
X181891886Y-96904491D01*
X181894664Y-96899531D01*
X181942276Y-96759271D01*
X181957852Y-96713387D01*
X181957853Y-96713384D01*
X181959678Y-96708007D01*
X181988700Y-96507842D01*
X181990215Y-96450000D01*
X181971708Y-96248591D01*
X181916807Y-96053926D01*
X181827351Y-95872527D01*
X181706335Y-95710467D01*
X181557812Y-95573174D01*
X181405841Y-95477287D01*
X181391566Y-95468280D01*
X181391564Y-95468279D01*
X181386757Y-95465246D01*
X181198898Y-95390298D01*
X181193317Y-95389188D01*
X181193314Y-95389187D01*
X181125373Y-95375673D01*
X181000526Y-95350839D01*
X180994839Y-95350765D01*
X180994834Y-95350764D01*
X180803975Y-95348266D01*
X180803970Y-95348266D01*
X180798286Y-95348192D01*
X180792682Y-95349155D01*
X180792681Y-95349155D01*
X180604546Y-95381482D01*
X180604543Y-95381483D01*
X180598949Y-95382444D01*
X180549731Y-95400601D01*
X180414521Y-95450483D01*
X180414517Y-95450485D01*
X180409193Y-95452449D01*
X180404310Y-95455354D01*
X180404308Y-95455355D01*
X180367444Y-95477287D01*
X180235371Y-95555862D01*
X180083305Y-95689220D01*
X179958089Y-95848057D01*
X179863914Y-96027053D01*
X179862229Y-96032479D01*
X179862228Y-96032482D01*
X179855570Y-96053926D01*
X179803937Y-96220213D01*
X179780164Y-96421069D01*
X179780535Y-96426731D01*
X179780535Y-96426735D01*
X179785851Y-96507842D01*
X179793392Y-96622894D01*
X179843178Y-96818928D01*
X179845554Y-96824082D01*
X179923044Y-96992168D01*
X179927856Y-97002607D01*
X180044588Y-97167780D01*
X180189466Y-97308913D01*
X180357637Y-97421282D01*
X180430920Y-97452767D01*
X180451410Y-97461570D01*
X180505235Y-97506119D01*
X180526430Y-97572697D01*
X180508266Y-97640164D01*
X180456510Y-97687101D01*
X180402462Y-97699500D01*
X180231645Y-97699500D01*
X180160875Y-97677322D01*
X180158308Y-97675537D01*
X180152721Y-97670560D01*
X180136955Y-97662212D01*
X180044636Y-97613332D01*
X180002881Y-97591224D01*
X179838441Y-97549919D01*
X179752248Y-97549468D01*
X179676368Y-97549070D01*
X179676367Y-97549070D01*
X179668895Y-97549031D01*
X179649448Y-97553700D01*
X179511295Y-97586868D01*
X179511293Y-97586869D01*
X179504032Y-97588612D01*
X179497399Y-97592035D01*
X179497395Y-97592037D01*
X179447423Y-97617830D01*
X179353369Y-97666375D01*
X179347737Y-97671288D01*
X179257650Y-97749876D01*
X179225604Y-97777831D01*
X179128113Y-97916547D01*
X179066524Y-98074513D01*
X179044394Y-98242611D01*
X171675000Y-98242611D01*
X171675000Y-98056028D01*
X171674637Y-98049331D01*
X171669197Y-97999256D01*
X171665629Y-97984247D01*
X171621183Y-97865689D01*
X171612788Y-97850354D01*
X171537484Y-97749876D01*
X171525124Y-97737516D01*
X171424646Y-97662212D01*
X171409311Y-97653817D01*
X171290753Y-97609371D01*
X171275744Y-97605803D01*
X171225669Y-97600363D01*
X171218972Y-97600000D01*
X170542830Y-97600000D01*
X170527831Y-97604404D01*
X170526644Y-97605774D01*
X170525000Y-97613332D01*
X170525000Y-98732170D01*
X170025000Y-98732170D01*
X170025000Y-97617830D01*
X170020596Y-97602831D01*
X170019226Y-97601644D01*
X170011668Y-97600000D01*
X169331028Y-97600000D01*
X169324331Y-97600363D01*
X169274256Y-97605803D01*
X169259247Y-97609371D01*
X169140689Y-97653817D01*
X169125354Y-97662212D01*
X169024876Y-97737516D01*
X169012516Y-97749876D01*
X168937212Y-97850354D01*
X168928817Y-97865689D01*
X168884371Y-97984247D01*
X168880803Y-97999256D01*
X168875363Y-98049331D01*
X168875000Y-98056028D01*
X168875000Y-98146766D01*
X168855315Y-98213805D01*
X168802511Y-98259560D01*
X168733353Y-98269504D01*
X168669797Y-98240479D01*
X168651649Y-98220963D01*
X168630967Y-98193267D01*
X168468949Y-98043499D01*
X168420831Y-98013139D01*
X168287159Y-97928798D01*
X168287157Y-97928797D01*
X168282350Y-97925764D01*
X168077421Y-97844006D01*
X168071840Y-97842896D01*
X168071837Y-97842895D01*
X167969222Y-97822484D01*
X167861024Y-97800962D01*
X167855337Y-97800888D01*
X167855332Y-97800887D01*
X167646095Y-97798148D01*
X167646090Y-97798148D01*
X167640406Y-97798074D01*
X167634802Y-97799037D01*
X167634801Y-97799037D01*
X167428560Y-97834475D01*
X167428557Y-97834476D01*
X167422957Y-97835438D01*
X167215957Y-97911804D01*
X167129307Y-97963356D01*
X167045629Y-98013139D01*
X167026341Y-98024614D01*
X166860457Y-98170090D01*
X166723863Y-98343360D01*
X166621131Y-98538620D01*
X166619443Y-98544055D01*
X166619443Y-98544056D01*
X166607346Y-98583014D01*
X166555703Y-98749333D01*
X166555035Y-98754978D01*
X166555034Y-98754982D01*
X166536222Y-98913928D01*
X166529770Y-98968440D01*
X162662315Y-98968440D01*
X162646708Y-98798591D01*
X162591807Y-98603926D01*
X162502351Y-98422527D01*
X162381335Y-98260467D01*
X162232812Y-98123174D01*
X162178816Y-98089105D01*
X162066566Y-98018280D01*
X162066564Y-98018279D01*
X162061757Y-98015246D01*
X161873898Y-97940298D01*
X161868317Y-97939188D01*
X161868314Y-97939187D01*
X161790239Y-97923657D01*
X161675526Y-97900839D01*
X161669839Y-97900765D01*
X161669834Y-97900764D01*
X161478975Y-97898266D01*
X161478970Y-97898266D01*
X161473286Y-97898192D01*
X161467682Y-97899155D01*
X161467681Y-97899155D01*
X161279546Y-97931482D01*
X161279543Y-97931483D01*
X161273949Y-97932444D01*
X161252660Y-97940298D01*
X161089521Y-98000483D01*
X161089517Y-98000485D01*
X161084193Y-98002449D01*
X161079310Y-98005354D01*
X161079308Y-98005355D01*
X160938537Y-98089105D01*
X160910371Y-98105862D01*
X160758305Y-98239220D01*
X160633089Y-98398057D01*
X160538914Y-98577053D01*
X160537229Y-98582479D01*
X160537228Y-98582482D01*
X160530570Y-98603926D01*
X160478937Y-98770213D01*
X160455164Y-98971069D01*
X155042557Y-98971069D01*
X155026708Y-98798591D01*
X154971807Y-98603926D01*
X154882351Y-98422527D01*
X154761335Y-98260467D01*
X154612812Y-98123174D01*
X154558816Y-98089105D01*
X154446566Y-98018280D01*
X154446564Y-98018279D01*
X154441757Y-98015246D01*
X154253898Y-97940298D01*
X154248317Y-97939188D01*
X154248314Y-97939187D01*
X154170239Y-97923657D01*
X154055526Y-97900839D01*
X154049839Y-97900765D01*
X154049834Y-97900764D01*
X153858975Y-97898266D01*
X153858970Y-97898266D01*
X153853286Y-97898192D01*
X153847682Y-97899155D01*
X153847681Y-97899155D01*
X153659546Y-97931482D01*
X153659543Y-97931483D01*
X153653949Y-97932444D01*
X153632660Y-97940298D01*
X153469521Y-98000483D01*
X153469517Y-98000485D01*
X153464193Y-98002449D01*
X153459310Y-98005354D01*
X153459308Y-98005355D01*
X153318537Y-98089105D01*
X153290371Y-98105862D01*
X153138305Y-98239220D01*
X153013089Y-98398057D01*
X152918914Y-98577053D01*
X152917229Y-98582479D01*
X152917228Y-98582482D01*
X152910570Y-98603926D01*
X152858937Y-98770213D01*
X152835164Y-98971069D01*
X149400500Y-98971069D01*
X149400500Y-97315354D01*
X149400055Y-97311610D01*
X149398481Y-97298390D01*
X149397382Y-97289154D01*
X149351939Y-97186847D01*
X149272713Y-97107759D01*
X149262242Y-97103130D01*
X149262241Y-97103129D01*
X149178853Y-97066263D01*
X149178851Y-97066262D01*
X149170327Y-97062494D01*
X149144646Y-97059500D01*
X147355354Y-97059500D01*
X147351700Y-97059935D01*
X147351698Y-97059935D01*
X147346734Y-97060526D01*
X147329154Y-97062618D01*
X147226847Y-97108061D01*
X147147759Y-97187287D01*
X147143130Y-97197758D01*
X147143129Y-97197759D01*
X147130141Y-97227138D01*
X147102494Y-97289673D01*
X147099500Y-97315354D01*
X147099500Y-99104646D01*
X147102618Y-99130846D01*
X147148061Y-99233153D01*
X147227287Y-99312241D01*
X147237758Y-99316870D01*
X147237759Y-99316871D01*
X147321147Y-99353737D01*
X147321149Y-99353738D01*
X147329673Y-99357506D01*
X147355354Y-99360500D01*
X148088437Y-99360500D01*
X148155476Y-99380185D01*
X148201231Y-99432989D01*
X148211175Y-99502147D01*
X148182150Y-99565703D01*
X148123372Y-99603477D01*
X148109436Y-99606709D01*
X147956550Y-99632979D01*
X147956547Y-99632980D01*
X147950953Y-99633941D01*
X147752575Y-99707127D01*
X147747697Y-99710029D01*
X147747695Y-99710030D01*
X147575740Y-99812332D01*
X147575737Y-99812334D01*
X147570856Y-99815238D01*
X147411881Y-99954655D01*
X147408362Y-99959119D01*
X147408359Y-99959122D01*
X147363715Y-100015753D01*
X147280976Y-100120708D01*
X147182523Y-100307836D01*
X147180837Y-100313267D01*
X147180835Y-100313271D01*
X147158045Y-100386668D01*
X147119820Y-100509773D01*
X147119152Y-100515418D01*
X147119151Y-100515422D01*
X147109612Y-100596018D01*
X147094967Y-100719754D01*
X147095338Y-100725416D01*
X147095338Y-100725420D01*
X147098521Y-100773986D01*
X147108796Y-100930749D01*
X147160845Y-101135690D01*
X147163219Y-101140841D01*
X147163221Y-101140845D01*
X147201981Y-101224922D01*
X147249369Y-101327714D01*
X147371405Y-101500391D01*
X147522865Y-101647937D01*
X147527588Y-101651093D01*
X147527592Y-101651096D01*
X147593913Y-101695410D01*
X147698677Y-101765411D01*
X147892953Y-101848878D01*
X147956283Y-101863208D01*
X148093638Y-101894289D01*
X148093642Y-101894290D01*
X148099186Y-101895544D01*
X148118328Y-101896296D01*
X148184543Y-101918596D01*
X148228190Y-101973156D01*
X148235412Y-102042651D01*
X148203914Y-102105018D01*
X148143699Y-102140457D01*
X148134460Y-102142409D01*
X147956550Y-102172979D01*
X147956547Y-102172980D01*
X147950953Y-102173941D01*
X147752575Y-102247127D01*
X147747697Y-102250029D01*
X147747695Y-102250030D01*
X147575740Y-102352332D01*
X147575737Y-102352334D01*
X147570856Y-102355238D01*
X147411881Y-102494655D01*
X147408362Y-102499119D01*
X147408359Y-102499122D01*
X147390782Y-102521419D01*
X147280976Y-102660708D01*
X147182523Y-102847836D01*
X147180837Y-102853267D01*
X147180835Y-102853271D01*
X147143985Y-102971950D01*
X147119820Y-103049773D01*
X147119152Y-103055418D01*
X147119151Y-103055422D01*
X147102847Y-103193174D01*
X147094967Y-103259754D01*
X147095338Y-103265416D01*
X147095338Y-103265420D01*
X147099602Y-103330467D01*
X147108796Y-103470749D01*
X147160845Y-103675690D01*
X147163219Y-103680841D01*
X147163221Y-103680845D01*
X147234191Y-103834790D01*
X147249369Y-103867714D01*
X147371405Y-104040391D01*
X147375476Y-104044357D01*
X147375477Y-104044358D01*
X147435310Y-104102645D01*
X147522865Y-104187937D01*
X147527588Y-104191093D01*
X147527592Y-104191096D01*
X147596634Y-104237228D01*
X147698677Y-104305411D01*
X147892953Y-104388878D01*
X147956283Y-104403208D01*
X148093638Y-104434289D01*
X148093642Y-104434290D01*
X148099186Y-104435544D01*
X148118328Y-104436296D01*
X148184543Y-104458596D01*
X148228190Y-104513156D01*
X148235412Y-104582651D01*
X148203914Y-104645018D01*
X148143699Y-104680457D01*
X148134460Y-104682409D01*
X147956550Y-104712979D01*
X147956547Y-104712980D01*
X147950953Y-104713941D01*
X147752575Y-104787127D01*
X147747697Y-104790029D01*
X147747695Y-104790030D01*
X147575740Y-104892332D01*
X147575737Y-104892334D01*
X147570856Y-104895238D01*
X147411881Y-105034655D01*
X147408362Y-105039119D01*
X147408359Y-105039122D01*
X147390782Y-105061419D01*
X147280976Y-105200708D01*
X147182523Y-105387836D01*
X147119820Y-105589773D01*
X147119152Y-105595418D01*
X147119151Y-105595422D01*
X147095635Y-105794110D01*
X147094967Y-105799754D01*
X147095338Y-105805416D01*
X147095338Y-105805420D01*
X147096949Y-105830000D01*
X147108796Y-106010749D01*
X147160845Y-106215690D01*
X147163219Y-106220841D01*
X147163221Y-106220845D01*
X147244917Y-106398057D01*
X147249369Y-106407714D01*
X147252647Y-106412352D01*
X147365489Y-106572020D01*
X147371405Y-106580391D01*
X147375476Y-106584357D01*
X147375477Y-106584358D01*
X147407639Y-106615689D01*
X147522865Y-106727937D01*
X147527588Y-106731093D01*
X147527592Y-106731096D01*
X147554771Y-106749256D01*
X147698677Y-106845411D01*
X147892953Y-106928878D01*
X147939480Y-106939406D01*
X148093638Y-106974289D01*
X148093642Y-106974290D01*
X148099186Y-106975544D01*
X148118328Y-106976296D01*
X148184543Y-106998596D01*
X148228190Y-107053156D01*
X148235412Y-107122651D01*
X148203914Y-107185018D01*
X148143699Y-107220457D01*
X148134460Y-107222409D01*
X147956550Y-107252979D01*
X147956547Y-107252980D01*
X147950953Y-107253941D01*
X147752575Y-107327127D01*
X147747697Y-107330029D01*
X147747695Y-107330030D01*
X147575740Y-107432332D01*
X147575737Y-107432334D01*
X147570856Y-107435238D01*
X147411881Y-107574655D01*
X147408362Y-107579119D01*
X147408359Y-107579122D01*
X147390782Y-107601419D01*
X147280976Y-107740708D01*
X147182523Y-107927836D01*
X147180837Y-107933267D01*
X147180835Y-107933271D01*
X147157977Y-108006886D01*
X147119820Y-108129773D01*
X147119152Y-108135418D01*
X147119151Y-108135422D01*
X147106729Y-108240379D01*
X147094967Y-108339754D01*
X147095338Y-108345416D01*
X147095338Y-108345420D01*
X147096949Y-108370000D01*
X147108796Y-108550749D01*
X147160845Y-108755690D01*
X147163219Y-108760841D01*
X147163221Y-108760845D01*
X147201981Y-108844922D01*
X147249369Y-108947714D01*
X147371405Y-109120391D01*
X147375476Y-109124357D01*
X147375477Y-109124358D01*
X147398893Y-109147169D01*
X147522865Y-109267937D01*
X147527588Y-109271093D01*
X147527592Y-109271096D01*
X147598663Y-109318584D01*
X147698677Y-109385411D01*
X147892953Y-109468878D01*
X147956283Y-109483208D01*
X148093638Y-109514289D01*
X148093642Y-109514290D01*
X148099186Y-109515544D01*
X148118328Y-109516296D01*
X148184543Y-109538596D01*
X148228190Y-109593156D01*
X148235412Y-109662651D01*
X148203914Y-109725018D01*
X148143699Y-109760457D01*
X148134460Y-109762409D01*
X147956550Y-109792979D01*
X147956547Y-109792980D01*
X147950953Y-109793941D01*
X147752575Y-109867127D01*
X147747697Y-109870029D01*
X147747695Y-109870030D01*
X147575740Y-109972332D01*
X147575737Y-109972334D01*
X147570856Y-109975238D01*
X147411881Y-110114655D01*
X147408362Y-110119119D01*
X147408359Y-110119122D01*
X147390782Y-110141419D01*
X147280976Y-110280708D01*
X147182523Y-110467836D01*
X147180837Y-110473267D01*
X147180835Y-110473271D01*
X147133463Y-110625835D01*
X147119820Y-110669773D01*
X147119152Y-110675418D01*
X147119151Y-110675422D01*
X147095635Y-110874110D01*
X147094967Y-110879754D01*
X145800500Y-110879754D01*
X145800500Y-96421069D01*
X177240164Y-96421069D01*
X177240535Y-96426731D01*
X177240535Y-96426735D01*
X177245851Y-96507842D01*
X177253392Y-96622894D01*
X177303178Y-96818928D01*
X177305554Y-96824082D01*
X177383044Y-96992168D01*
X177387856Y-97002607D01*
X177504588Y-97167780D01*
X177649466Y-97308913D01*
X177817637Y-97421282D01*
X178003470Y-97501122D01*
X178099502Y-97522852D01*
X178195193Y-97544505D01*
X178195195Y-97544505D01*
X178200740Y-97545760D01*
X178306602Y-97549919D01*
X178397161Y-97553477D01*
X178397163Y-97553477D01*
X178402842Y-97553700D01*
X178408462Y-97552885D01*
X178408465Y-97552885D01*
X178597387Y-97525493D01*
X178597389Y-97525493D01*
X178603007Y-97524678D01*
X178608384Y-97522853D01*
X178608387Y-97522852D01*
X178693861Y-97493837D01*
X178794531Y-97459664D01*
X178971001Y-97360837D01*
X179009458Y-97328853D01*
X179122138Y-97235137D01*
X179126505Y-97231505D01*
X179183364Y-97163140D01*
X179252206Y-97080367D01*
X179252207Y-97080366D01*
X179255837Y-97076001D01*
X179261291Y-97066263D01*
X179351886Y-96904491D01*
X179354664Y-96899531D01*
X179402276Y-96759271D01*
X179417852Y-96713387D01*
X179417853Y-96713384D01*
X179419678Y-96708007D01*
X179448700Y-96507842D01*
X179450215Y-96450000D01*
X179431708Y-96248591D01*
X179376807Y-96053926D01*
X179287351Y-95872527D01*
X179166335Y-95710467D01*
X179017812Y-95573174D01*
X178865841Y-95477287D01*
X178851566Y-95468280D01*
X178851564Y-95468279D01*
X178846757Y-95465246D01*
X178658898Y-95390298D01*
X178653317Y-95389188D01*
X178653314Y-95389187D01*
X178585373Y-95375673D01*
X178460526Y-95350839D01*
X178454839Y-95350765D01*
X178454834Y-95350764D01*
X178263975Y-95348266D01*
X178263970Y-95348266D01*
X178258286Y-95348192D01*
X178252682Y-95349155D01*
X178252681Y-95349155D01*
X178064546Y-95381482D01*
X178064543Y-95381483D01*
X178058949Y-95382444D01*
X178009731Y-95400601D01*
X177874521Y-95450483D01*
X177874517Y-95450485D01*
X177869193Y-95452449D01*
X177864310Y-95455354D01*
X177864308Y-95455355D01*
X177827444Y-95477287D01*
X177695371Y-95555862D01*
X177543305Y-95689220D01*
X177418089Y-95848057D01*
X177323914Y-96027053D01*
X177322229Y-96032479D01*
X177322228Y-96032482D01*
X177315570Y-96053926D01*
X177263937Y-96220213D01*
X177240164Y-96421069D01*
X145800500Y-96421069D01*
X145800500Y-89299646D01*
X198969500Y-89299646D01*
X198972618Y-89325846D01*
X199018061Y-89428153D01*
X199097287Y-89507241D01*
X199107758Y-89511870D01*
X199107759Y-89511871D01*
X199191147Y-89548737D01*
X199191149Y-89548738D01*
X199199673Y-89552506D01*
X199225354Y-89555500D01*
X203274646Y-89555500D01*
X203278300Y-89555065D01*
X203278302Y-89555065D01*
X203283266Y-89554474D01*
X203300846Y-89552382D01*
X203403153Y-89506939D01*
X203482241Y-89427713D01*
X203527506Y-89325327D01*
X203530500Y-89299646D01*
X203530500Y-87230354D01*
X203527382Y-87204154D01*
X203481939Y-87101847D01*
X203402713Y-87022759D01*
X203392242Y-87018130D01*
X203392241Y-87018129D01*
X203308853Y-86981263D01*
X203308851Y-86981262D01*
X203300327Y-86977494D01*
X203274646Y-86974500D01*
X199225354Y-86974500D01*
X199221700Y-86974935D01*
X199221698Y-86974935D01*
X199216734Y-86975526D01*
X199199154Y-86977618D01*
X199096847Y-87023061D01*
X199017759Y-87102287D01*
X198972494Y-87204673D01*
X198969500Y-87230354D01*
X198969500Y-89299646D01*
X145800500Y-89299646D01*
X145800500Y-83265000D01*
X198964570Y-83265000D01*
X198984250Y-83489949D01*
X199042694Y-83708063D01*
X199138125Y-83912715D01*
X199141232Y-83917152D01*
X199141233Y-83917154D01*
X199264537Y-84093251D01*
X199264541Y-84093255D01*
X199267643Y-84097686D01*
X199427314Y-84257357D01*
X199431745Y-84260459D01*
X199431749Y-84260463D01*
X199607846Y-84383767D01*
X199612285Y-84386875D01*
X199816937Y-84482306D01*
X199822160Y-84483705D01*
X199822164Y-84483707D01*
X199997402Y-84530662D01*
X200035051Y-84540750D01*
X200125594Y-84548671D01*
X200200947Y-84555264D01*
X200200954Y-84555264D01*
X200203648Y-84555500D01*
X202296352Y-84555500D01*
X202299046Y-84555264D01*
X202299053Y-84555264D01*
X202374406Y-84548671D01*
X202464949Y-84540750D01*
X202502598Y-84530662D01*
X202677836Y-84483707D01*
X202677840Y-84483705D01*
X202683063Y-84482306D01*
X202887715Y-84386875D01*
X202892154Y-84383767D01*
X203068251Y-84260463D01*
X203068255Y-84260459D01*
X203072686Y-84257357D01*
X203232357Y-84097686D01*
X203235459Y-84093255D01*
X203235463Y-84093251D01*
X203358767Y-83917154D01*
X203358768Y-83917152D01*
X203361875Y-83912715D01*
X203457306Y-83708063D01*
X203515750Y-83489949D01*
X203535430Y-83265000D01*
X203515750Y-83040051D01*
X203457306Y-82821937D01*
X203361875Y-82617285D01*
X203358767Y-82612846D01*
X203235463Y-82436749D01*
X203235459Y-82436745D01*
X203232357Y-82432314D01*
X203072686Y-82272643D01*
X203068255Y-82269541D01*
X203068251Y-82269537D01*
X202892154Y-82146233D01*
X202892152Y-82146232D01*
X202887715Y-82143125D01*
X202683063Y-82047694D01*
X202677840Y-82046295D01*
X202677836Y-82046293D01*
X202470181Y-81990652D01*
X202470182Y-81990652D01*
X202464949Y-81989250D01*
X202374406Y-81981329D01*
X202299053Y-81974736D01*
X202299046Y-81974736D01*
X202296352Y-81974500D01*
X200203648Y-81974500D01*
X200200954Y-81974736D01*
X200200947Y-81974736D01*
X200125594Y-81981329D01*
X200035051Y-81989250D01*
X200029818Y-81990652D01*
X200029819Y-81990652D01*
X199822164Y-82046293D01*
X199822160Y-82046295D01*
X199816937Y-82047694D01*
X199612285Y-82143125D01*
X199607848Y-82146232D01*
X199607846Y-82146233D01*
X199431749Y-82269537D01*
X199431745Y-82269541D01*
X199427314Y-82272643D01*
X199267643Y-82432314D01*
X199264541Y-82436745D01*
X199264537Y-82436749D01*
X199141233Y-82612846D01*
X199138125Y-82617285D01*
X199042694Y-82821937D01*
X198984250Y-83040051D01*
X198964570Y-83265000D01*
X145800500Y-83265000D01*
X145800500Y-80896963D01*
X166262432Y-80896963D01*
X166269771Y-80907165D01*
X166487402Y-81083400D01*
X166492656Y-81087217D01*
X166794871Y-81283477D01*
X166800491Y-81286722D01*
X167121576Y-81450323D01*
X167127499Y-81452961D01*
X167463935Y-81582106D01*
X167470080Y-81584103D01*
X167818169Y-81677373D01*
X167824528Y-81678725D01*
X168180442Y-81735095D01*
X168186886Y-81735773D01*
X168546756Y-81754633D01*
X168553244Y-81754633D01*
X168913114Y-81735773D01*
X168919558Y-81735095D01*
X169275472Y-81678725D01*
X169281831Y-81677373D01*
X169629920Y-81584103D01*
X169636065Y-81582106D01*
X169972501Y-81452961D01*
X169978424Y-81450323D01*
X170299509Y-81286722D01*
X170305129Y-81283477D01*
X170607344Y-81087217D01*
X170612598Y-81083400D01*
X170829293Y-80907924D01*
X170837625Y-80895862D01*
X170831392Y-80884946D01*
X168562607Y-78616160D01*
X168548887Y-78608668D01*
X168547081Y-78608797D01*
X168540574Y-78612979D01*
X166269458Y-80884096D01*
X166262432Y-80896963D01*
X145800500Y-80896963D01*
X145800500Y-78253244D01*
X165045367Y-78253244D01*
X165064227Y-78613114D01*
X165064905Y-78619558D01*
X165121275Y-78975472D01*
X165122627Y-78981831D01*
X165215897Y-79329920D01*
X165217894Y-79336065D01*
X165347039Y-79672501D01*
X165349677Y-79678424D01*
X165513278Y-79999508D01*
X165516523Y-80005129D01*
X165712783Y-80307344D01*
X165716600Y-80312598D01*
X165892076Y-80529293D01*
X165904138Y-80537625D01*
X165915054Y-80531392D01*
X168183840Y-78262607D01*
X168190116Y-78251113D01*
X168908668Y-78251113D01*
X168908797Y-78252919D01*
X168912979Y-78259426D01*
X171184096Y-80530542D01*
X171196963Y-80537568D01*
X171207165Y-80530229D01*
X171383400Y-80312598D01*
X171387217Y-80307344D01*
X171583477Y-80005129D01*
X171586722Y-79999508D01*
X171669904Y-79836254D01*
X172449500Y-79836254D01*
X172457152Y-79963784D01*
X172508444Y-80226436D01*
X172597995Y-80478621D01*
X172600156Y-80482677D01*
X172600157Y-80482679D01*
X172625493Y-80530229D01*
X172723838Y-80714799D01*
X172883208Y-80929783D01*
X172886461Y-80933030D01*
X172886465Y-80933035D01*
X173069350Y-81115601D01*
X173072604Y-81118849D01*
X173287866Y-81277843D01*
X173524264Y-81403274D01*
X173528600Y-81404805D01*
X173528604Y-81404807D01*
X173772272Y-81490855D01*
X173776605Y-81492385D01*
X173781117Y-81493258D01*
X173781121Y-81493259D01*
X173948309Y-81525605D01*
X174039345Y-81543218D01*
X174100272Y-81546784D01*
X174161933Y-81550394D01*
X174161937Y-81550394D01*
X174163746Y-81550500D01*
X177336254Y-81550500D01*
X177463784Y-81542848D01*
X177590499Y-81518102D01*
X177721916Y-81492439D01*
X177721920Y-81492438D01*
X177726436Y-81491556D01*
X177978621Y-81402005D01*
X178194981Y-81286722D01*
X178210738Y-81278326D01*
X178210740Y-81278325D01*
X178214799Y-81276162D01*
X178429783Y-81116792D01*
X178433030Y-81113539D01*
X178433035Y-81113535D01*
X178615601Y-80930650D01*
X178615603Y-80930648D01*
X178618849Y-80927396D01*
X178659791Y-80871964D01*
X178775109Y-80715836D01*
X178775111Y-80715833D01*
X178777843Y-80712134D01*
X178903274Y-80475736D01*
X178962740Y-80307344D01*
X178990855Y-80227728D01*
X178990855Y-80227726D01*
X178992385Y-80223395D01*
X179043218Y-79960655D01*
X179050500Y-79836254D01*
X179050500Y-78512326D01*
X185407667Y-78512326D01*
X185460168Y-78708264D01*
X185463857Y-78718397D01*
X185559110Y-78922667D01*
X185564508Y-78932017D01*
X185693784Y-79116643D01*
X185700719Y-79124907D01*
X185860091Y-79284279D01*
X185868357Y-79291215D01*
X186052992Y-79420498D01*
X186062324Y-79425886D01*
X186266603Y-79521143D01*
X186276736Y-79524832D01*
X186467779Y-79576022D01*
X186481653Y-79575691D01*
X186485000Y-79567875D01*
X186485000Y-79562806D01*
X186985000Y-79562806D01*
X186988910Y-79576123D01*
X186997326Y-79577333D01*
X187193264Y-79524832D01*
X187203397Y-79521143D01*
X187407676Y-79425886D01*
X187417008Y-79420498D01*
X187601643Y-79291215D01*
X187609909Y-79284279D01*
X187769281Y-79124907D01*
X187776216Y-79116643D01*
X187898925Y-78941395D01*
X187953502Y-78897770D01*
X188023000Y-78890576D01*
X188085355Y-78922099D01*
X188120769Y-78982329D01*
X188124500Y-79012518D01*
X188124500Y-79144646D01*
X188127618Y-79170846D01*
X188173061Y-79273153D01*
X188252287Y-79352241D01*
X188262758Y-79356870D01*
X188262759Y-79356871D01*
X188346147Y-79393737D01*
X188346149Y-79393738D01*
X188354673Y-79397506D01*
X188380354Y-79400500D01*
X190169646Y-79400500D01*
X190173300Y-79400065D01*
X190173302Y-79400065D01*
X190178266Y-79399474D01*
X190195846Y-79397382D01*
X190298153Y-79351939D01*
X190377241Y-79272713D01*
X190422506Y-79170327D01*
X190425500Y-79144646D01*
X190425500Y-77355354D01*
X190422382Y-77329154D01*
X190376939Y-77226847D01*
X190297713Y-77147759D01*
X190287242Y-77143130D01*
X190287241Y-77143129D01*
X190203853Y-77106263D01*
X190203851Y-77106262D01*
X190195327Y-77102494D01*
X190169646Y-77099500D01*
X188380354Y-77099500D01*
X188376700Y-77099935D01*
X188376698Y-77099935D01*
X188371734Y-77100526D01*
X188354154Y-77102618D01*
X188251847Y-77148061D01*
X188172759Y-77227287D01*
X188168130Y-77237758D01*
X188168129Y-77237759D01*
X188164982Y-77244879D01*
X188127494Y-77329673D01*
X188124500Y-77355354D01*
X188124500Y-77487482D01*
X188104815Y-77554521D01*
X188052011Y-77600276D01*
X187982853Y-77610220D01*
X187919297Y-77581195D01*
X187898925Y-77558605D01*
X187776216Y-77383357D01*
X187769281Y-77375093D01*
X187609909Y-77215721D01*
X187601643Y-77208785D01*
X187417008Y-77079502D01*
X187407676Y-77074114D01*
X187203397Y-76978857D01*
X187193264Y-76975168D01*
X187002221Y-76923978D01*
X186988347Y-76924309D01*
X186985000Y-76932125D01*
X186985000Y-79562806D01*
X186485000Y-79562806D01*
X186485000Y-78517830D01*
X186480596Y-78502831D01*
X186479226Y-78501644D01*
X186471668Y-78500000D01*
X185422194Y-78500000D01*
X185408877Y-78503910D01*
X185407667Y-78512326D01*
X179050500Y-78512326D01*
X179050500Y-77982779D01*
X185408978Y-77982779D01*
X185409309Y-77996653D01*
X185417125Y-78000000D01*
X186467170Y-78000000D01*
X186482169Y-77995596D01*
X186483356Y-77994226D01*
X186485000Y-77986668D01*
X186485000Y-76937194D01*
X186481090Y-76923877D01*
X186472674Y-76922667D01*
X186276736Y-76975168D01*
X186266603Y-76978857D01*
X186062333Y-77074110D01*
X186052983Y-77079508D01*
X185868357Y-77208784D01*
X185860093Y-77215719D01*
X185700719Y-77375093D01*
X185693784Y-77383357D01*
X185564508Y-77567983D01*
X185559110Y-77577333D01*
X185463857Y-77781603D01*
X185460168Y-77791736D01*
X185408978Y-77982779D01*
X179050500Y-77982779D01*
X179050500Y-76663746D01*
X179042848Y-76536216D01*
X179022845Y-76433789D01*
X203595996Y-76433789D01*
X203599842Y-76536216D01*
X203604630Y-76663746D01*
X203604913Y-76671295D01*
X203605990Y-76676430D01*
X203605991Y-76676435D01*
X203652639Y-76898758D01*
X203653719Y-76903904D01*
X203655648Y-76908788D01*
X203655649Y-76908792D01*
X203696013Y-77010997D01*
X203741020Y-77124963D01*
X203743741Y-77129447D01*
X203743743Y-77129451D01*
X203809193Y-77237309D01*
X203864319Y-77328153D01*
X204020090Y-77507664D01*
X204203880Y-77658362D01*
X204208441Y-77660958D01*
X204208442Y-77660959D01*
X204405875Y-77773345D01*
X204405880Y-77773347D01*
X204410433Y-77775939D01*
X204633844Y-77857034D01*
X204867725Y-77899326D01*
X204892619Y-77900500D01*
X205059680Y-77900500D01*
X205062296Y-77900278D01*
X205062297Y-77900278D01*
X205231590Y-77885913D01*
X205236823Y-77885469D01*
X205466874Y-77825760D01*
X205683576Y-77728143D01*
X205880732Y-77595409D01*
X206052705Y-77431355D01*
X206194579Y-77240670D01*
X206201607Y-77226847D01*
X206299913Y-77033493D01*
X206299915Y-77033488D01*
X206302295Y-77028807D01*
X206318951Y-76975168D01*
X206371215Y-76806848D01*
X206372775Y-76801824D01*
X206390771Y-76666051D01*
X206403315Y-76571412D01*
X206403315Y-76571408D01*
X206404004Y-76566211D01*
X206395087Y-76328705D01*
X206384156Y-76276605D01*
X206347361Y-76101242D01*
X206347360Y-76101239D01*
X206346281Y-76096096D01*
X206258980Y-75875037D01*
X206208553Y-75791935D01*
X206138408Y-75676341D01*
X206135681Y-75671847D01*
X205979910Y-75492336D01*
X205796120Y-75341638D01*
X205678687Y-75274791D01*
X205594125Y-75226655D01*
X205594120Y-75226653D01*
X205589567Y-75224061D01*
X205366156Y-75142966D01*
X205132275Y-75100674D01*
X205107381Y-75099500D01*
X204940320Y-75099500D01*
X204937704Y-75099722D01*
X204937703Y-75099722D01*
X204926484Y-75100674D01*
X204763177Y-75114531D01*
X204533126Y-75174240D01*
X204316424Y-75271857D01*
X204119268Y-75404591D01*
X203947295Y-75568645D01*
X203805421Y-75759330D01*
X203803042Y-75764008D01*
X203803042Y-75764009D01*
X203748875Y-75870549D01*
X203697705Y-75971193D01*
X203627225Y-76198176D01*
X203626534Y-76203386D01*
X203626534Y-76203388D01*
X203616634Y-76278084D01*
X203595996Y-76433789D01*
X179022845Y-76433789D01*
X179002324Y-76328705D01*
X178992439Y-76278084D01*
X178992438Y-76278080D01*
X178991556Y-76273564D01*
X178902005Y-76021379D01*
X178875265Y-75971193D01*
X178778326Y-75789262D01*
X178778325Y-75789260D01*
X178776162Y-75785201D01*
X178753864Y-75755121D01*
X178619534Y-75573916D01*
X178616792Y-75570217D01*
X178613539Y-75566970D01*
X178613535Y-75566965D01*
X178430650Y-75384399D01*
X178430648Y-75384397D01*
X178427396Y-75381151D01*
X178212134Y-75222157D01*
X177975736Y-75096726D01*
X177971400Y-75095195D01*
X177971396Y-75095193D01*
X177727728Y-75009145D01*
X177727726Y-75009145D01*
X177723395Y-75007615D01*
X177718883Y-75006742D01*
X177718879Y-75006741D01*
X177551691Y-74974395D01*
X177460655Y-74956782D01*
X177399728Y-74953216D01*
X177338067Y-74949606D01*
X177338063Y-74949606D01*
X177336254Y-74949500D01*
X174163746Y-74949500D01*
X174036216Y-74957152D01*
X173909501Y-74981898D01*
X173778084Y-75007561D01*
X173778080Y-75007562D01*
X173773564Y-75008444D01*
X173521379Y-75097995D01*
X173517323Y-75100156D01*
X173517321Y-75100157D01*
X173289262Y-75221674D01*
X173285201Y-75223838D01*
X173281506Y-75226577D01*
X173281503Y-75226579D01*
X173220425Y-75271857D01*
X173070217Y-75383208D01*
X173066970Y-75386461D01*
X173066965Y-75386465D01*
X172886780Y-75566965D01*
X172881151Y-75572604D01*
X172878419Y-75576303D01*
X172726857Y-75781503D01*
X172722157Y-75787866D01*
X172596726Y-76024264D01*
X172595195Y-76028600D01*
X172595193Y-76028604D01*
X172510222Y-76269223D01*
X172507615Y-76276605D01*
X172506742Y-76281117D01*
X172506741Y-76281121D01*
X172478210Y-76428588D01*
X172456782Y-76539345D01*
X172449500Y-76663746D01*
X172449500Y-79836254D01*
X171669904Y-79836254D01*
X171750323Y-79678424D01*
X171752961Y-79672501D01*
X171882106Y-79336065D01*
X171884103Y-79329920D01*
X171977373Y-78981831D01*
X171978725Y-78975472D01*
X172035095Y-78619558D01*
X172035773Y-78613114D01*
X172054633Y-78253244D01*
X172054633Y-78246756D01*
X172035773Y-77886886D01*
X172035095Y-77880442D01*
X171978725Y-77524528D01*
X171977373Y-77518169D01*
X171884103Y-77170080D01*
X171882106Y-77163935D01*
X171752961Y-76827499D01*
X171750323Y-76821576D01*
X171586722Y-76500492D01*
X171583477Y-76494871D01*
X171387217Y-76192656D01*
X171383400Y-76187402D01*
X171207924Y-75970707D01*
X171195862Y-75962375D01*
X171184946Y-75968608D01*
X168916160Y-78237393D01*
X168908668Y-78251113D01*
X168190116Y-78251113D01*
X168191332Y-78248887D01*
X168191203Y-78247081D01*
X168187021Y-78240574D01*
X165915904Y-75969458D01*
X165903037Y-75962432D01*
X165892835Y-75969771D01*
X165716600Y-76187402D01*
X165712783Y-76192656D01*
X165516523Y-76494871D01*
X165513278Y-76500492D01*
X165349677Y-76821576D01*
X165347039Y-76827499D01*
X165217894Y-77163935D01*
X165215897Y-77170080D01*
X165122627Y-77518169D01*
X165121275Y-77524528D01*
X165064905Y-77880442D01*
X165064227Y-77886886D01*
X165045367Y-78246756D01*
X165045367Y-78253244D01*
X145800500Y-78253244D01*
X145800500Y-76433789D01*
X147595996Y-76433789D01*
X147599842Y-76536216D01*
X147604630Y-76663746D01*
X147604913Y-76671295D01*
X147605990Y-76676430D01*
X147605991Y-76676435D01*
X147652639Y-76898758D01*
X147653719Y-76903904D01*
X147655648Y-76908788D01*
X147655649Y-76908792D01*
X147696013Y-77010997D01*
X147741020Y-77124963D01*
X147743741Y-77129447D01*
X147743743Y-77129451D01*
X147809193Y-77237309D01*
X147864319Y-77328153D01*
X148020090Y-77507664D01*
X148203880Y-77658362D01*
X148208441Y-77660958D01*
X148208442Y-77660959D01*
X148405875Y-77773345D01*
X148405880Y-77773347D01*
X148410433Y-77775939D01*
X148633844Y-77857034D01*
X148867725Y-77899326D01*
X148892619Y-77900500D01*
X149059680Y-77900500D01*
X149062296Y-77900278D01*
X149062297Y-77900278D01*
X149231590Y-77885913D01*
X149236823Y-77885469D01*
X149466874Y-77825760D01*
X149683576Y-77728143D01*
X149880732Y-77595409D01*
X150052705Y-77431355D01*
X150194579Y-77240670D01*
X150201607Y-77226847D01*
X150299913Y-77033493D01*
X150299915Y-77033488D01*
X150302295Y-77028807D01*
X150318951Y-76975168D01*
X150371215Y-76806848D01*
X150372775Y-76801824D01*
X150390771Y-76666051D01*
X150403315Y-76571412D01*
X150403315Y-76571408D01*
X150404004Y-76566211D01*
X150395087Y-76328705D01*
X150384156Y-76276605D01*
X150347361Y-76101242D01*
X150347360Y-76101239D01*
X150346281Y-76096096D01*
X150258980Y-75875037D01*
X150208553Y-75791935D01*
X150138408Y-75676341D01*
X150135681Y-75671847D01*
X150076926Y-75604138D01*
X166262375Y-75604138D01*
X166268608Y-75615054D01*
X168537393Y-77883840D01*
X168551113Y-77891332D01*
X168552919Y-77891203D01*
X168559426Y-77887021D01*
X170830542Y-75615904D01*
X170837568Y-75603037D01*
X170830229Y-75592835D01*
X170612598Y-75416600D01*
X170607344Y-75412783D01*
X170305129Y-75216523D01*
X170299509Y-75213278D01*
X169978424Y-75049677D01*
X169972501Y-75047039D01*
X169636065Y-74917894D01*
X169629920Y-74915897D01*
X169281831Y-74822627D01*
X169275472Y-74821275D01*
X168919558Y-74764905D01*
X168913114Y-74764227D01*
X168553244Y-74745367D01*
X168546756Y-74745367D01*
X168186886Y-74764227D01*
X168180442Y-74764905D01*
X167824528Y-74821275D01*
X167818169Y-74822627D01*
X167470080Y-74915897D01*
X167463935Y-74917894D01*
X167127499Y-75047039D01*
X167121576Y-75049677D01*
X166800492Y-75213278D01*
X166794871Y-75216523D01*
X166492656Y-75412783D01*
X166487402Y-75416600D01*
X166270707Y-75592076D01*
X166262375Y-75604138D01*
X150076926Y-75604138D01*
X149979910Y-75492336D01*
X149796120Y-75341638D01*
X149678687Y-75274791D01*
X149594125Y-75226655D01*
X149594120Y-75226653D01*
X149589567Y-75224061D01*
X149366156Y-75142966D01*
X149132275Y-75100674D01*
X149107381Y-75099500D01*
X148940320Y-75099500D01*
X148937704Y-75099722D01*
X148937703Y-75099722D01*
X148926484Y-75100674D01*
X148763177Y-75114531D01*
X148533126Y-75174240D01*
X148316424Y-75271857D01*
X148119268Y-75404591D01*
X147947295Y-75568645D01*
X147805421Y-75759330D01*
X147803042Y-75764008D01*
X147803042Y-75764009D01*
X147748875Y-75870549D01*
X147697705Y-75971193D01*
X147627225Y-76198176D01*
X147626534Y-76203386D01*
X147626534Y-76203388D01*
X147616634Y-76278084D01*
X147595996Y-76433789D01*
X145800500Y-76433789D01*
X145800500Y-72424500D01*
X145820185Y-72357461D01*
X145872989Y-72311706D01*
X145924500Y-72300500D01*
X208575500Y-72300500D01*
X208642539Y-72320185D01*
G37*
%TD.AperFunction*%
%TD*%
M02*
