%TF.GenerationSoftware,KiCad,Pcbnew,(6.0.4)*%
%TF.CreationDate,2022-08-23T18:09:03-07:00*%
%TF.ProjectId,RaspiCar_PCB1,52617370-6943-4617-925f-504342312e6b,rev?*%
%TF.SameCoordinates,Original*%
%TF.FileFunction,Legend,Top*%
%TF.FilePolarity,Positive*%
%FSLAX46Y46*%
G04 Gerber Fmt 4.6, Leading zero omitted, Abs format (unit mm)*
G04 Created by KiCad (PCBNEW (6.0.4)) date 2022-08-23 18:09:03*
%MOMM*%
%LPD*%
G01*
G04 APERTURE LIST*
%ADD10C,0.150000*%
%ADD11C,0.120000*%
G04 APERTURE END LIST*
D10*
X147609404Y-85677380D02*
X147037976Y-85677380D01*
X147323690Y-85677380D02*
X147323690Y-84677380D01*
X147228452Y-84820238D01*
X147133214Y-84915476D01*
X147037976Y-84963095D01*
X148037976Y-85582142D02*
X148085595Y-85629761D01*
X148037976Y-85677380D01*
X147990357Y-85629761D01*
X148037976Y-85582142D01*
X148037976Y-85677380D01*
X149276071Y-85153571D02*
X149609404Y-85153571D01*
X149752261Y-85677380D02*
X149276071Y-85677380D01*
X149276071Y-84677380D01*
X149752261Y-84677380D01*
X150180833Y-85677380D02*
X150180833Y-84677380D01*
X150752261Y-85677380D01*
X150752261Y-84677380D01*
X151752261Y-85677380D02*
X151180833Y-85677380D01*
X151466547Y-85677380D02*
X151466547Y-84677380D01*
X151371309Y-84820238D01*
X151276071Y-84915476D01*
X151180833Y-84963095D01*
X147037976Y-86382619D02*
X147085595Y-86335000D01*
X147180833Y-86287380D01*
X147418928Y-86287380D01*
X147514166Y-86335000D01*
X147561785Y-86382619D01*
X147609404Y-86477857D01*
X147609404Y-86573095D01*
X147561785Y-86715952D01*
X146990357Y-87287380D01*
X147609404Y-87287380D01*
X148037976Y-87192142D02*
X148085595Y-87239761D01*
X148037976Y-87287380D01*
X147990357Y-87239761D01*
X148037976Y-87192142D01*
X148037976Y-87287380D01*
X149276071Y-86763571D02*
X149609404Y-86763571D01*
X149752261Y-87287380D02*
X149276071Y-87287380D01*
X149276071Y-86287380D01*
X149752261Y-86287380D01*
X150180833Y-87287380D02*
X150180833Y-86287380D01*
X150752261Y-87287380D01*
X150752261Y-86287380D01*
X151180833Y-86382619D02*
X151228452Y-86335000D01*
X151323690Y-86287380D01*
X151561785Y-86287380D01*
X151657023Y-86335000D01*
X151704642Y-86382619D01*
X151752261Y-86477857D01*
X151752261Y-86573095D01*
X151704642Y-86715952D01*
X151133214Y-87287380D01*
X151752261Y-87287380D01*
X146990357Y-87897380D02*
X147609404Y-87897380D01*
X147276071Y-88278333D01*
X147418928Y-88278333D01*
X147514166Y-88325952D01*
X147561785Y-88373571D01*
X147609404Y-88468809D01*
X147609404Y-88706904D01*
X147561785Y-88802142D01*
X147514166Y-88849761D01*
X147418928Y-88897380D01*
X147133214Y-88897380D01*
X147037976Y-88849761D01*
X146990357Y-88802142D01*
X148037976Y-88802142D02*
X148085595Y-88849761D01*
X148037976Y-88897380D01*
X147990357Y-88849761D01*
X148037976Y-88802142D01*
X148037976Y-88897380D01*
X149276071Y-88897380D02*
X149276071Y-87897380D01*
X149752261Y-88230714D02*
X149752261Y-88897380D01*
X149752261Y-88325952D02*
X149799880Y-88278333D01*
X149895119Y-88230714D01*
X150037976Y-88230714D01*
X150133214Y-88278333D01*
X150180833Y-88373571D01*
X150180833Y-88897380D01*
X150657023Y-88230714D02*
X150657023Y-89230714D01*
X150657023Y-88278333D02*
X150752261Y-88230714D01*
X150942738Y-88230714D01*
X151037976Y-88278333D01*
X151085595Y-88325952D01*
X151133214Y-88421190D01*
X151133214Y-88706904D01*
X151085595Y-88802142D01*
X151037976Y-88849761D01*
X150942738Y-88897380D01*
X150752261Y-88897380D01*
X150657023Y-88849761D01*
X151990357Y-88230714D02*
X151990357Y-88897380D01*
X151561785Y-88230714D02*
X151561785Y-88754523D01*
X151609404Y-88849761D01*
X151704642Y-88897380D01*
X151847500Y-88897380D01*
X151942738Y-88849761D01*
X151990357Y-88802142D01*
X152323690Y-88230714D02*
X152704642Y-88230714D01*
X152466547Y-87897380D02*
X152466547Y-88754523D01*
X152514166Y-88849761D01*
X152609404Y-88897380D01*
X152704642Y-88897380D01*
X153561785Y-88897380D02*
X152990357Y-88897380D01*
X153276071Y-88897380D02*
X153276071Y-87897380D01*
X153180833Y-88040238D01*
X153085595Y-88135476D01*
X152990357Y-88183095D01*
X147514166Y-89840714D02*
X147514166Y-90507380D01*
X147276071Y-89459761D02*
X147037976Y-90174047D01*
X147657023Y-90174047D01*
X148037976Y-90412142D02*
X148085595Y-90459761D01*
X148037976Y-90507380D01*
X147990357Y-90459761D01*
X148037976Y-90412142D01*
X148037976Y-90507380D01*
X149276071Y-90507380D02*
X149276071Y-89507380D01*
X149752261Y-89840714D02*
X149752261Y-90507380D01*
X149752261Y-89935952D02*
X149799880Y-89888333D01*
X149895119Y-89840714D01*
X150037976Y-89840714D01*
X150133214Y-89888333D01*
X150180833Y-89983571D01*
X150180833Y-90507380D01*
X150657023Y-89840714D02*
X150657023Y-90840714D01*
X150657023Y-89888333D02*
X150752261Y-89840714D01*
X150942738Y-89840714D01*
X151037976Y-89888333D01*
X151085595Y-89935952D01*
X151133214Y-90031190D01*
X151133214Y-90316904D01*
X151085595Y-90412142D01*
X151037976Y-90459761D01*
X150942738Y-90507380D01*
X150752261Y-90507380D01*
X150657023Y-90459761D01*
X151990357Y-89840714D02*
X151990357Y-90507380D01*
X151561785Y-89840714D02*
X151561785Y-90364523D01*
X151609404Y-90459761D01*
X151704642Y-90507380D01*
X151847500Y-90507380D01*
X151942738Y-90459761D01*
X151990357Y-90412142D01*
X152323690Y-89840714D02*
X152704642Y-89840714D01*
X152466547Y-89507380D02*
X152466547Y-90364523D01*
X152514166Y-90459761D01*
X152609404Y-90507380D01*
X152704642Y-90507380D01*
X152990357Y-89602619D02*
X153037976Y-89555000D01*
X153133214Y-89507380D01*
X153371309Y-89507380D01*
X153466547Y-89555000D01*
X153514166Y-89602619D01*
X153561785Y-89697857D01*
X153561785Y-89793095D01*
X153514166Y-89935952D01*
X152942738Y-90507380D01*
X153561785Y-90507380D01*
X147561785Y-91117380D02*
X147085595Y-91117380D01*
X147037976Y-91593571D01*
X147085595Y-91545952D01*
X147180833Y-91498333D01*
X147418928Y-91498333D01*
X147514166Y-91545952D01*
X147561785Y-91593571D01*
X147609404Y-91688809D01*
X147609404Y-91926904D01*
X147561785Y-92022142D01*
X147514166Y-92069761D01*
X147418928Y-92117380D01*
X147180833Y-92117380D01*
X147085595Y-92069761D01*
X147037976Y-92022142D01*
X148037976Y-92022142D02*
X148085595Y-92069761D01*
X148037976Y-92117380D01*
X147990357Y-92069761D01*
X148037976Y-92022142D01*
X148037976Y-92117380D01*
X149276071Y-92117380D02*
X149276071Y-91117380D01*
X149752261Y-91450714D02*
X149752261Y-92117380D01*
X149752261Y-91545952D02*
X149799880Y-91498333D01*
X149895119Y-91450714D01*
X150037976Y-91450714D01*
X150133214Y-91498333D01*
X150180833Y-91593571D01*
X150180833Y-92117380D01*
X150657023Y-91450714D02*
X150657023Y-92450714D01*
X150657023Y-91498333D02*
X150752261Y-91450714D01*
X150942738Y-91450714D01*
X151037976Y-91498333D01*
X151085595Y-91545952D01*
X151133214Y-91641190D01*
X151133214Y-91926904D01*
X151085595Y-92022142D01*
X151037976Y-92069761D01*
X150942738Y-92117380D01*
X150752261Y-92117380D01*
X150657023Y-92069761D01*
X151990357Y-91450714D02*
X151990357Y-92117380D01*
X151561785Y-91450714D02*
X151561785Y-91974523D01*
X151609404Y-92069761D01*
X151704642Y-92117380D01*
X151847500Y-92117380D01*
X151942738Y-92069761D01*
X151990357Y-92022142D01*
X152323690Y-91450714D02*
X152704642Y-91450714D01*
X152466547Y-91117380D02*
X152466547Y-91974523D01*
X152514166Y-92069761D01*
X152609404Y-92117380D01*
X152704642Y-92117380D01*
X152942738Y-91117380D02*
X153561785Y-91117380D01*
X153228452Y-91498333D01*
X153371309Y-91498333D01*
X153466547Y-91545952D01*
X153514166Y-91593571D01*
X153561785Y-91688809D01*
X153561785Y-91926904D01*
X153514166Y-92022142D01*
X153466547Y-92069761D01*
X153371309Y-92117380D01*
X153085595Y-92117380D01*
X152990357Y-92069761D01*
X152942738Y-92022142D01*
X147514166Y-92727380D02*
X147323690Y-92727380D01*
X147228452Y-92775000D01*
X147180833Y-92822619D01*
X147085595Y-92965476D01*
X147037976Y-93155952D01*
X147037976Y-93536904D01*
X147085595Y-93632142D01*
X147133214Y-93679761D01*
X147228452Y-93727380D01*
X147418928Y-93727380D01*
X147514166Y-93679761D01*
X147561785Y-93632142D01*
X147609404Y-93536904D01*
X147609404Y-93298809D01*
X147561785Y-93203571D01*
X147514166Y-93155952D01*
X147418928Y-93108333D01*
X147228452Y-93108333D01*
X147133214Y-93155952D01*
X147085595Y-93203571D01*
X147037976Y-93298809D01*
X148037976Y-93632142D02*
X148085595Y-93679761D01*
X148037976Y-93727380D01*
X147990357Y-93679761D01*
X148037976Y-93632142D01*
X148037976Y-93727380D01*
X149276071Y-93727380D02*
X149276071Y-92727380D01*
X149752261Y-93060714D02*
X149752261Y-93727380D01*
X149752261Y-93155952D02*
X149799880Y-93108333D01*
X149895119Y-93060714D01*
X150037976Y-93060714D01*
X150133214Y-93108333D01*
X150180833Y-93203571D01*
X150180833Y-93727380D01*
X150657023Y-93060714D02*
X150657023Y-94060714D01*
X150657023Y-93108333D02*
X150752261Y-93060714D01*
X150942738Y-93060714D01*
X151037976Y-93108333D01*
X151085595Y-93155952D01*
X151133214Y-93251190D01*
X151133214Y-93536904D01*
X151085595Y-93632142D01*
X151037976Y-93679761D01*
X150942738Y-93727380D01*
X150752261Y-93727380D01*
X150657023Y-93679761D01*
X151990357Y-93060714D02*
X151990357Y-93727380D01*
X151561785Y-93060714D02*
X151561785Y-93584523D01*
X151609404Y-93679761D01*
X151704642Y-93727380D01*
X151847500Y-93727380D01*
X151942738Y-93679761D01*
X151990357Y-93632142D01*
X152323690Y-93060714D02*
X152704642Y-93060714D01*
X152466547Y-92727380D02*
X152466547Y-93584523D01*
X152514166Y-93679761D01*
X152609404Y-93727380D01*
X152704642Y-93727380D01*
X153466547Y-93060714D02*
X153466547Y-93727380D01*
X153228452Y-92679761D02*
X152990357Y-93394047D01*
X153609404Y-93394047D01*
X167488095Y-123897380D02*
X167154761Y-123421190D01*
X166916666Y-123897380D02*
X166916666Y-122897380D01*
X167297619Y-122897380D01*
X167392857Y-122945000D01*
X167440476Y-122992619D01*
X167488095Y-123087857D01*
X167488095Y-123230714D01*
X167440476Y-123325952D01*
X167392857Y-123373571D01*
X167297619Y-123421190D01*
X166916666Y-123421190D01*
X168345238Y-123897380D02*
X168345238Y-123373571D01*
X168297619Y-123278333D01*
X168202380Y-123230714D01*
X168011904Y-123230714D01*
X167916666Y-123278333D01*
X168345238Y-123849761D02*
X168250000Y-123897380D01*
X168011904Y-123897380D01*
X167916666Y-123849761D01*
X167869047Y-123754523D01*
X167869047Y-123659285D01*
X167916666Y-123564047D01*
X168011904Y-123516428D01*
X168250000Y-123516428D01*
X168345238Y-123468809D01*
X168773809Y-123849761D02*
X168869047Y-123897380D01*
X169059523Y-123897380D01*
X169154761Y-123849761D01*
X169202380Y-123754523D01*
X169202380Y-123706904D01*
X169154761Y-123611666D01*
X169059523Y-123564047D01*
X168916666Y-123564047D01*
X168821428Y-123516428D01*
X168773809Y-123421190D01*
X168773809Y-123373571D01*
X168821428Y-123278333D01*
X168916666Y-123230714D01*
X169059523Y-123230714D01*
X169154761Y-123278333D01*
X169630952Y-123230714D02*
X169630952Y-124230714D01*
X169630952Y-123278333D02*
X169726190Y-123230714D01*
X169916666Y-123230714D01*
X170011904Y-123278333D01*
X170059523Y-123325952D01*
X170107142Y-123421190D01*
X170107142Y-123706904D01*
X170059523Y-123802142D01*
X170011904Y-123849761D01*
X169916666Y-123897380D01*
X169726190Y-123897380D01*
X169630952Y-123849761D01*
X170535714Y-123897380D02*
X170535714Y-122897380D01*
X170535714Y-123278333D02*
X170630952Y-123230714D01*
X170821428Y-123230714D01*
X170916666Y-123278333D01*
X170964285Y-123325952D01*
X171011904Y-123421190D01*
X171011904Y-123706904D01*
X170964285Y-123802142D01*
X170916666Y-123849761D01*
X170821428Y-123897380D01*
X170630952Y-123897380D01*
X170535714Y-123849761D01*
X171821428Y-123849761D02*
X171726190Y-123897380D01*
X171535714Y-123897380D01*
X171440476Y-123849761D01*
X171392857Y-123754523D01*
X171392857Y-123373571D01*
X171440476Y-123278333D01*
X171535714Y-123230714D01*
X171726190Y-123230714D01*
X171821428Y-123278333D01*
X171869047Y-123373571D01*
X171869047Y-123468809D01*
X171392857Y-123564047D01*
X172297619Y-123897380D02*
X172297619Y-123230714D01*
X172297619Y-123421190D02*
X172345238Y-123325952D01*
X172392857Y-123278333D01*
X172488095Y-123230714D01*
X172583333Y-123230714D01*
X172916666Y-123897380D02*
X172916666Y-123230714D01*
X172916666Y-123421190D02*
X172964285Y-123325952D01*
X173011904Y-123278333D01*
X173107142Y-123230714D01*
X173202380Y-123230714D01*
X173440476Y-123230714D02*
X173678571Y-123897380D01*
X173916666Y-123230714D02*
X173678571Y-123897380D01*
X173583333Y-124135476D01*
X173535714Y-124183095D01*
X173440476Y-124230714D01*
X175059523Y-123897380D02*
X175059523Y-122897380D01*
X175440476Y-122897380D01*
X175535714Y-122945000D01*
X175583333Y-122992619D01*
X175630952Y-123087857D01*
X175630952Y-123230714D01*
X175583333Y-123325952D01*
X175535714Y-123373571D01*
X175440476Y-123421190D01*
X175059523Y-123421190D01*
X176059523Y-123897380D02*
X176059523Y-123230714D01*
X176059523Y-122897380D02*
X176011904Y-122945000D01*
X176059523Y-122992619D01*
X176107142Y-122945000D01*
X176059523Y-122897380D01*
X176059523Y-122992619D01*
X177869047Y-123897380D02*
X177535714Y-123421190D01*
X177297619Y-123897380D02*
X177297619Y-122897380D01*
X177678571Y-122897380D01*
X177773809Y-122945000D01*
X177821428Y-122992619D01*
X177869047Y-123087857D01*
X177869047Y-123230714D01*
X177821428Y-123325952D01*
X177773809Y-123373571D01*
X177678571Y-123421190D01*
X177297619Y-123421190D01*
X178869047Y-123802142D02*
X178821428Y-123849761D01*
X178678571Y-123897380D01*
X178583333Y-123897380D01*
X178440476Y-123849761D01*
X178345238Y-123754523D01*
X178297619Y-123659285D01*
X178250000Y-123468809D01*
X178250000Y-123325952D01*
X178297619Y-123135476D01*
X178345238Y-123040238D01*
X178440476Y-122945000D01*
X178583333Y-122897380D01*
X178678571Y-122897380D01*
X178821428Y-122945000D01*
X178869047Y-122992619D01*
X180630952Y-123802142D02*
X180583333Y-123849761D01*
X180440476Y-123897380D01*
X180345238Y-123897380D01*
X180202380Y-123849761D01*
X180107142Y-123754523D01*
X180059523Y-123659285D01*
X180011904Y-123468809D01*
X180011904Y-123325952D01*
X180059523Y-123135476D01*
X180107142Y-123040238D01*
X180202380Y-122945000D01*
X180345238Y-122897380D01*
X180440476Y-122897380D01*
X180583333Y-122945000D01*
X180630952Y-122992619D01*
X181488095Y-123897380D02*
X181488095Y-123373571D01*
X181440476Y-123278333D01*
X181345238Y-123230714D01*
X181154761Y-123230714D01*
X181059523Y-123278333D01*
X181488095Y-123849761D02*
X181392857Y-123897380D01*
X181154761Y-123897380D01*
X181059523Y-123849761D01*
X181011904Y-123754523D01*
X181011904Y-123659285D01*
X181059523Y-123564047D01*
X181154761Y-123516428D01*
X181392857Y-123516428D01*
X181488095Y-123468809D01*
X181964285Y-123897380D02*
X181964285Y-123230714D01*
X181964285Y-123421190D02*
X182011904Y-123325952D01*
X182059523Y-123278333D01*
X182154761Y-123230714D01*
X182250000Y-123230714D01*
X183345238Y-123516428D02*
X184107142Y-123516428D01*
X185345238Y-123897380D02*
X185345238Y-122897380D01*
X185726190Y-122897380D01*
X185821428Y-122945000D01*
X185869047Y-122992619D01*
X185916666Y-123087857D01*
X185916666Y-123230714D01*
X185869047Y-123325952D01*
X185821428Y-123373571D01*
X185726190Y-123421190D01*
X185345238Y-123421190D01*
X186916666Y-123802142D02*
X186869047Y-123849761D01*
X186726190Y-123897380D01*
X186630952Y-123897380D01*
X186488095Y-123849761D01*
X186392857Y-123754523D01*
X186345238Y-123659285D01*
X186297619Y-123468809D01*
X186297619Y-123325952D01*
X186345238Y-123135476D01*
X186392857Y-123040238D01*
X186488095Y-122945000D01*
X186630952Y-122897380D01*
X186726190Y-122897380D01*
X186869047Y-122945000D01*
X186916666Y-122992619D01*
X187678571Y-123373571D02*
X187821428Y-123421190D01*
X187869047Y-123468809D01*
X187916666Y-123564047D01*
X187916666Y-123706904D01*
X187869047Y-123802142D01*
X187821428Y-123849761D01*
X187726190Y-123897380D01*
X187345238Y-123897380D01*
X187345238Y-122897380D01*
X187678571Y-122897380D01*
X187773809Y-122945000D01*
X187821428Y-122992619D01*
X187869047Y-123087857D01*
X187869047Y-123183095D01*
X187821428Y-123278333D01*
X187773809Y-123325952D01*
X187678571Y-123373571D01*
X187345238Y-123373571D01*
X188107142Y-123992619D02*
X188869047Y-123992619D01*
X189630952Y-123897380D02*
X189059523Y-123897380D01*
X189345238Y-123897380D02*
X189345238Y-122897380D01*
X189250000Y-123040238D01*
X189154761Y-123135476D01*
X189059523Y-123183095D01*
X170273809Y-124983571D02*
X170416666Y-125031190D01*
X170464285Y-125078809D01*
X170511904Y-125174047D01*
X170511904Y-125316904D01*
X170464285Y-125412142D01*
X170416666Y-125459761D01*
X170321428Y-125507380D01*
X169940476Y-125507380D01*
X169940476Y-124507380D01*
X170273809Y-124507380D01*
X170369047Y-124555000D01*
X170416666Y-124602619D01*
X170464285Y-124697857D01*
X170464285Y-124793095D01*
X170416666Y-124888333D01*
X170369047Y-124935952D01*
X170273809Y-124983571D01*
X169940476Y-124983571D01*
X171321428Y-125459761D02*
X171226190Y-125507380D01*
X171035714Y-125507380D01*
X170940476Y-125459761D01*
X170892857Y-125364523D01*
X170892857Y-124983571D01*
X170940476Y-124888333D01*
X171035714Y-124840714D01*
X171226190Y-124840714D01*
X171321428Y-124888333D01*
X171369047Y-124983571D01*
X171369047Y-125078809D01*
X170892857Y-125174047D01*
X171797619Y-124840714D02*
X171797619Y-125507380D01*
X171797619Y-124935952D02*
X171845238Y-124888333D01*
X171940476Y-124840714D01*
X172083333Y-124840714D01*
X172178571Y-124888333D01*
X172226190Y-124983571D01*
X172226190Y-125507380D01*
X172702380Y-124840714D02*
X172702380Y-125697857D01*
X172654761Y-125793095D01*
X172559523Y-125840714D01*
X172511904Y-125840714D01*
X172702380Y-124507380D02*
X172654761Y-124555000D01*
X172702380Y-124602619D01*
X172750000Y-124555000D01*
X172702380Y-124507380D01*
X172702380Y-124602619D01*
X173607142Y-125507380D02*
X173607142Y-124983571D01*
X173559523Y-124888333D01*
X173464285Y-124840714D01*
X173273809Y-124840714D01*
X173178571Y-124888333D01*
X173607142Y-125459761D02*
X173511904Y-125507380D01*
X173273809Y-125507380D01*
X173178571Y-125459761D01*
X173130952Y-125364523D01*
X173130952Y-125269285D01*
X173178571Y-125174047D01*
X173273809Y-125126428D01*
X173511904Y-125126428D01*
X173607142Y-125078809D01*
X174083333Y-125507380D02*
X174083333Y-124840714D01*
X174083333Y-124935952D02*
X174130952Y-124888333D01*
X174226190Y-124840714D01*
X174369047Y-124840714D01*
X174464285Y-124888333D01*
X174511904Y-124983571D01*
X174511904Y-125507380D01*
X174511904Y-124983571D02*
X174559523Y-124888333D01*
X174654761Y-124840714D01*
X174797619Y-124840714D01*
X174892857Y-124888333D01*
X174940476Y-124983571D01*
X174940476Y-125507380D01*
X175416666Y-125507380D02*
X175416666Y-124840714D01*
X175416666Y-124507380D02*
X175369047Y-124555000D01*
X175416666Y-124602619D01*
X175464285Y-124555000D01*
X175416666Y-124507380D01*
X175416666Y-124602619D01*
X175892857Y-124840714D02*
X175892857Y-125507380D01*
X175892857Y-124935952D02*
X175940476Y-124888333D01*
X176035714Y-124840714D01*
X176178571Y-124840714D01*
X176273809Y-124888333D01*
X176321428Y-124983571D01*
X176321428Y-125507380D01*
X177892857Y-124983571D02*
X178035714Y-125031190D01*
X178083333Y-125078809D01*
X178130952Y-125174047D01*
X178130952Y-125316904D01*
X178083333Y-125412142D01*
X178035714Y-125459761D01*
X177940476Y-125507380D01*
X177559523Y-125507380D01*
X177559523Y-124507380D01*
X177892857Y-124507380D01*
X177988095Y-124555000D01*
X178035714Y-124602619D01*
X178083333Y-124697857D01*
X178083333Y-124793095D01*
X178035714Y-124888333D01*
X177988095Y-124935952D01*
X177892857Y-124983571D01*
X177559523Y-124983571D01*
X178940476Y-125459761D02*
X178845238Y-125507380D01*
X178654761Y-125507380D01*
X178559523Y-125459761D01*
X178511904Y-125364523D01*
X178511904Y-124983571D01*
X178559523Y-124888333D01*
X178654761Y-124840714D01*
X178845238Y-124840714D01*
X178940476Y-124888333D01*
X178988095Y-124983571D01*
X178988095Y-125078809D01*
X178511904Y-125174047D01*
X179845238Y-124840714D02*
X179845238Y-125650238D01*
X179797619Y-125745476D01*
X179750000Y-125793095D01*
X179654761Y-125840714D01*
X179511904Y-125840714D01*
X179416666Y-125793095D01*
X179845238Y-125459761D02*
X179750000Y-125507380D01*
X179559523Y-125507380D01*
X179464285Y-125459761D01*
X179416666Y-125412142D01*
X179369047Y-125316904D01*
X179369047Y-125031190D01*
X179416666Y-124935952D01*
X179464285Y-124888333D01*
X179559523Y-124840714D01*
X179750000Y-124840714D01*
X179845238Y-124888333D01*
X180750000Y-125507380D02*
X180750000Y-124983571D01*
X180702380Y-124888333D01*
X180607142Y-124840714D01*
X180416666Y-124840714D01*
X180321428Y-124888333D01*
X180750000Y-125459761D02*
X180654761Y-125507380D01*
X180416666Y-125507380D01*
X180321428Y-125459761D01*
X180273809Y-125364523D01*
X180273809Y-125269285D01*
X180321428Y-125174047D01*
X180416666Y-125126428D01*
X180654761Y-125126428D01*
X180750000Y-125078809D01*
X181988095Y-125126428D02*
X182750000Y-125126428D01*
X183178571Y-124602619D02*
X183226190Y-124555000D01*
X183321428Y-124507380D01*
X183559523Y-124507380D01*
X183654761Y-124555000D01*
X183702380Y-124602619D01*
X183750000Y-124697857D01*
X183750000Y-124793095D01*
X183702380Y-124935952D01*
X183130952Y-125507380D01*
X183750000Y-125507380D01*
X184369047Y-124507380D02*
X184464285Y-124507380D01*
X184559523Y-124555000D01*
X184607142Y-124602619D01*
X184654761Y-124697857D01*
X184702380Y-124888333D01*
X184702380Y-125126428D01*
X184654761Y-125316904D01*
X184607142Y-125412142D01*
X184559523Y-125459761D01*
X184464285Y-125507380D01*
X184369047Y-125507380D01*
X184273809Y-125459761D01*
X184226190Y-125412142D01*
X184178571Y-125316904D01*
X184130952Y-125126428D01*
X184130952Y-124888333D01*
X184178571Y-124697857D01*
X184226190Y-124602619D01*
X184273809Y-124555000D01*
X184369047Y-124507380D01*
X185083333Y-124602619D02*
X185130952Y-124555000D01*
X185226190Y-124507380D01*
X185464285Y-124507380D01*
X185559523Y-124555000D01*
X185607142Y-124602619D01*
X185654761Y-124697857D01*
X185654761Y-124793095D01*
X185607142Y-124935952D01*
X185035714Y-125507380D01*
X185654761Y-125507380D01*
X186035714Y-124602619D02*
X186083333Y-124555000D01*
X186178571Y-124507380D01*
X186416666Y-124507380D01*
X186511904Y-124555000D01*
X186559523Y-124602619D01*
X186607142Y-124697857D01*
X186607142Y-124793095D01*
X186559523Y-124935952D01*
X185988095Y-125507380D01*
X186607142Y-125507380D01*
%TO.C,PWR_GND*%
X168161904Y-73452380D02*
X168161904Y-72452380D01*
X168542857Y-72452380D01*
X168638095Y-72500000D01*
X168685714Y-72547619D01*
X168733333Y-72642857D01*
X168733333Y-72785714D01*
X168685714Y-72880952D01*
X168638095Y-72928571D01*
X168542857Y-72976190D01*
X168161904Y-72976190D01*
X169066666Y-72452380D02*
X169304761Y-73452380D01*
X169495238Y-72738095D01*
X169685714Y-73452380D01*
X169923809Y-72452380D01*
X170876190Y-73452380D02*
X170542857Y-72976190D01*
X170304761Y-73452380D02*
X170304761Y-72452380D01*
X170685714Y-72452380D01*
X170780952Y-72500000D01*
X170828571Y-72547619D01*
X170876190Y-72642857D01*
X170876190Y-72785714D01*
X170828571Y-72880952D01*
X170780952Y-72928571D01*
X170685714Y-72976190D01*
X170304761Y-72976190D01*
X171066666Y-73547619D02*
X171828571Y-73547619D01*
X172590476Y-72500000D02*
X172495238Y-72452380D01*
X172352380Y-72452380D01*
X172209523Y-72500000D01*
X172114285Y-72595238D01*
X172066666Y-72690476D01*
X172019047Y-72880952D01*
X172019047Y-73023809D01*
X172066666Y-73214285D01*
X172114285Y-73309523D01*
X172209523Y-73404761D01*
X172352380Y-73452380D01*
X172447619Y-73452380D01*
X172590476Y-73404761D01*
X172638095Y-73357142D01*
X172638095Y-73023809D01*
X172447619Y-73023809D01*
X173066666Y-73452380D02*
X173066666Y-72452380D01*
X173638095Y-73452380D01*
X173638095Y-72452380D01*
X174114285Y-73452380D02*
X174114285Y-72452380D01*
X174352380Y-72452380D01*
X174495238Y-72500000D01*
X174590476Y-72595238D01*
X174638095Y-72690476D01*
X174685714Y-72880952D01*
X174685714Y-73023809D01*
X174638095Y-73214285D01*
X174590476Y-73309523D01*
X174495238Y-73404761D01*
X174352380Y-73452380D01*
X174114285Y-73452380D01*
%TO.C,LED1*%
X167885952Y-103412380D02*
X167409761Y-103412380D01*
X167409761Y-102412380D01*
X168219285Y-102888571D02*
X168552619Y-102888571D01*
X168695476Y-103412380D02*
X168219285Y-103412380D01*
X168219285Y-102412380D01*
X168695476Y-102412380D01*
X169124047Y-103412380D02*
X169124047Y-102412380D01*
X169362142Y-102412380D01*
X169505000Y-102460000D01*
X169600238Y-102555238D01*
X169647857Y-102650476D01*
X169695476Y-102840952D01*
X169695476Y-102983809D01*
X169647857Y-103174285D01*
X169600238Y-103269523D01*
X169505000Y-103364761D01*
X169362142Y-103412380D01*
X169124047Y-103412380D01*
X170647857Y-103412380D02*
X170076428Y-103412380D01*
X170362142Y-103412380D02*
X170362142Y-102412380D01*
X170266904Y-102555238D01*
X170171666Y-102650476D01*
X170076428Y-102698095D01*
%TO.C,R1*%
X157583333Y-97082380D02*
X157250000Y-96606190D01*
X157011904Y-97082380D02*
X157011904Y-96082380D01*
X157392857Y-96082380D01*
X157488095Y-96130000D01*
X157535714Y-96177619D01*
X157583333Y-96272857D01*
X157583333Y-96415714D01*
X157535714Y-96510952D01*
X157488095Y-96558571D01*
X157392857Y-96606190D01*
X157011904Y-96606190D01*
X158535714Y-97082380D02*
X157964285Y-97082380D01*
X158250000Y-97082380D02*
X158250000Y-96082380D01*
X158154761Y-96225238D01*
X158059523Y-96320476D01*
X157964285Y-96368095D01*
%TO.C,Raspi_Logic*%
X151952380Y-108405238D02*
X151476190Y-108738571D01*
X151952380Y-108976666D02*
X150952380Y-108976666D01*
X150952380Y-108595714D01*
X151000000Y-108500476D01*
X151047619Y-108452857D01*
X151142857Y-108405238D01*
X151285714Y-108405238D01*
X151380952Y-108452857D01*
X151428571Y-108500476D01*
X151476190Y-108595714D01*
X151476190Y-108976666D01*
X151952380Y-107548095D02*
X151428571Y-107548095D01*
X151333333Y-107595714D01*
X151285714Y-107690952D01*
X151285714Y-107881428D01*
X151333333Y-107976666D01*
X151904761Y-107548095D02*
X151952380Y-107643333D01*
X151952380Y-107881428D01*
X151904761Y-107976666D01*
X151809523Y-108024285D01*
X151714285Y-108024285D01*
X151619047Y-107976666D01*
X151571428Y-107881428D01*
X151571428Y-107643333D01*
X151523809Y-107548095D01*
X151904761Y-107119523D02*
X151952380Y-107024285D01*
X151952380Y-106833809D01*
X151904761Y-106738571D01*
X151809523Y-106690952D01*
X151761904Y-106690952D01*
X151666666Y-106738571D01*
X151619047Y-106833809D01*
X151619047Y-106976666D01*
X151571428Y-107071904D01*
X151476190Y-107119523D01*
X151428571Y-107119523D01*
X151333333Y-107071904D01*
X151285714Y-106976666D01*
X151285714Y-106833809D01*
X151333333Y-106738571D01*
X151285714Y-106262380D02*
X152285714Y-106262380D01*
X151333333Y-106262380D02*
X151285714Y-106167142D01*
X151285714Y-105976666D01*
X151333333Y-105881428D01*
X151380952Y-105833809D01*
X151476190Y-105786190D01*
X151761904Y-105786190D01*
X151857142Y-105833809D01*
X151904761Y-105881428D01*
X151952380Y-105976666D01*
X151952380Y-106167142D01*
X151904761Y-106262380D01*
X151952380Y-105357619D02*
X151285714Y-105357619D01*
X150952380Y-105357619D02*
X151000000Y-105405238D01*
X151047619Y-105357619D01*
X151000000Y-105310000D01*
X150952380Y-105357619D01*
X151047619Y-105357619D01*
X152047619Y-105119523D02*
X152047619Y-104357619D01*
X151952380Y-103643333D02*
X151952380Y-104119523D01*
X150952380Y-104119523D01*
X151952380Y-103167142D02*
X151904761Y-103262380D01*
X151857142Y-103310000D01*
X151761904Y-103357619D01*
X151476190Y-103357619D01*
X151380952Y-103310000D01*
X151333333Y-103262380D01*
X151285714Y-103167142D01*
X151285714Y-103024285D01*
X151333333Y-102929047D01*
X151380952Y-102881428D01*
X151476190Y-102833809D01*
X151761904Y-102833809D01*
X151857142Y-102881428D01*
X151904761Y-102929047D01*
X151952380Y-103024285D01*
X151952380Y-103167142D01*
X151285714Y-101976666D02*
X152095238Y-101976666D01*
X152190476Y-102024285D01*
X152238095Y-102071904D01*
X152285714Y-102167142D01*
X152285714Y-102310000D01*
X152238095Y-102405238D01*
X151904761Y-101976666D02*
X151952380Y-102071904D01*
X151952380Y-102262380D01*
X151904761Y-102357619D01*
X151857142Y-102405238D01*
X151761904Y-102452857D01*
X151476190Y-102452857D01*
X151380952Y-102405238D01*
X151333333Y-102357619D01*
X151285714Y-102262380D01*
X151285714Y-102071904D01*
X151333333Y-101976666D01*
X151952380Y-101500476D02*
X151285714Y-101500476D01*
X150952380Y-101500476D02*
X151000000Y-101548095D01*
X151047619Y-101500476D01*
X151000000Y-101452857D01*
X150952380Y-101500476D01*
X151047619Y-101500476D01*
X151904761Y-100595714D02*
X151952380Y-100690952D01*
X151952380Y-100881428D01*
X151904761Y-100976666D01*
X151857142Y-101024285D01*
X151761904Y-101071904D01*
X151476190Y-101071904D01*
X151380952Y-101024285D01*
X151333333Y-100976666D01*
X151285714Y-100881428D01*
X151285714Y-100690952D01*
X151333333Y-100595714D01*
%TO.C,Motor_1*%
X194202380Y-88190476D02*
X193202380Y-88190476D01*
X193916666Y-87857142D01*
X193202380Y-87523809D01*
X194202380Y-87523809D01*
X194202380Y-86904761D02*
X194154761Y-87000000D01*
X194107142Y-87047619D01*
X194011904Y-87095238D01*
X193726190Y-87095238D01*
X193630952Y-87047619D01*
X193583333Y-87000000D01*
X193535714Y-86904761D01*
X193535714Y-86761904D01*
X193583333Y-86666666D01*
X193630952Y-86619047D01*
X193726190Y-86571428D01*
X194011904Y-86571428D01*
X194107142Y-86619047D01*
X194154761Y-86666666D01*
X194202380Y-86761904D01*
X194202380Y-86904761D01*
X193535714Y-86285714D02*
X193535714Y-85904761D01*
X193202380Y-86142857D02*
X194059523Y-86142857D01*
X194154761Y-86095238D01*
X194202380Y-86000000D01*
X194202380Y-85904761D01*
X194202380Y-85428571D02*
X194154761Y-85523809D01*
X194107142Y-85571428D01*
X194011904Y-85619047D01*
X193726190Y-85619047D01*
X193630952Y-85571428D01*
X193583333Y-85523809D01*
X193535714Y-85428571D01*
X193535714Y-85285714D01*
X193583333Y-85190476D01*
X193630952Y-85142857D01*
X193726190Y-85095238D01*
X194011904Y-85095238D01*
X194107142Y-85142857D01*
X194154761Y-85190476D01*
X194202380Y-85285714D01*
X194202380Y-85428571D01*
X194202380Y-84666666D02*
X193535714Y-84666666D01*
X193726190Y-84666666D02*
X193630952Y-84619047D01*
X193583333Y-84571428D01*
X193535714Y-84476190D01*
X193535714Y-84380952D01*
X194297619Y-84285714D02*
X194297619Y-83523809D01*
X194202380Y-82761904D02*
X194202380Y-83333333D01*
X194202380Y-83047619D02*
X193202380Y-83047619D01*
X193345238Y-83142857D01*
X193440476Y-83238095D01*
X193488095Y-83333333D01*
%TO.C,R2*%
X157583333Y-105082380D02*
X157250000Y-104606190D01*
X157011904Y-105082380D02*
X157011904Y-104082380D01*
X157392857Y-104082380D01*
X157488095Y-104130000D01*
X157535714Y-104177619D01*
X157583333Y-104272857D01*
X157583333Y-104415714D01*
X157535714Y-104510952D01*
X157488095Y-104558571D01*
X157392857Y-104606190D01*
X157011904Y-104606190D01*
X157964285Y-104177619D02*
X158011904Y-104130000D01*
X158107142Y-104082380D01*
X158345238Y-104082380D01*
X158440476Y-104130000D01*
X158488095Y-104177619D01*
X158535714Y-104272857D01*
X158535714Y-104368095D01*
X158488095Y-104510952D01*
X157916666Y-105082380D01*
X158535714Y-105082380D01*
%TO.C,Motor_2*%
X194202380Y-116675476D02*
X193202380Y-116675476D01*
X193916666Y-116342142D01*
X193202380Y-116008809D01*
X194202380Y-116008809D01*
X194202380Y-115389761D02*
X194154761Y-115485000D01*
X194107142Y-115532619D01*
X194011904Y-115580238D01*
X193726190Y-115580238D01*
X193630952Y-115532619D01*
X193583333Y-115485000D01*
X193535714Y-115389761D01*
X193535714Y-115246904D01*
X193583333Y-115151666D01*
X193630952Y-115104047D01*
X193726190Y-115056428D01*
X194011904Y-115056428D01*
X194107142Y-115104047D01*
X194154761Y-115151666D01*
X194202380Y-115246904D01*
X194202380Y-115389761D01*
X193535714Y-114770714D02*
X193535714Y-114389761D01*
X193202380Y-114627857D02*
X194059523Y-114627857D01*
X194154761Y-114580238D01*
X194202380Y-114485000D01*
X194202380Y-114389761D01*
X194202380Y-113913571D02*
X194154761Y-114008809D01*
X194107142Y-114056428D01*
X194011904Y-114104047D01*
X193726190Y-114104047D01*
X193630952Y-114056428D01*
X193583333Y-114008809D01*
X193535714Y-113913571D01*
X193535714Y-113770714D01*
X193583333Y-113675476D01*
X193630952Y-113627857D01*
X193726190Y-113580238D01*
X194011904Y-113580238D01*
X194107142Y-113627857D01*
X194154761Y-113675476D01*
X194202380Y-113770714D01*
X194202380Y-113913571D01*
X194202380Y-113151666D02*
X193535714Y-113151666D01*
X193726190Y-113151666D02*
X193630952Y-113104047D01*
X193583333Y-113056428D01*
X193535714Y-112961190D01*
X193535714Y-112865952D01*
X194297619Y-112770714D02*
X194297619Y-112008809D01*
X193297619Y-111818333D02*
X193250000Y-111770714D01*
X193202380Y-111675476D01*
X193202380Y-111437380D01*
X193250000Y-111342142D01*
X193297619Y-111294523D01*
X193392857Y-111246904D01*
X193488095Y-111246904D01*
X193630952Y-111294523D01*
X194202380Y-111865952D01*
X194202380Y-111246904D01*
%TO.C,LED2*%
X167860952Y-112162380D02*
X167384761Y-112162380D01*
X167384761Y-111162380D01*
X168194285Y-111638571D02*
X168527619Y-111638571D01*
X168670476Y-112162380D02*
X168194285Y-112162380D01*
X168194285Y-111162380D01*
X168670476Y-111162380D01*
X169099047Y-112162380D02*
X169099047Y-111162380D01*
X169337142Y-111162380D01*
X169480000Y-111210000D01*
X169575238Y-111305238D01*
X169622857Y-111400476D01*
X169670476Y-111590952D01*
X169670476Y-111733809D01*
X169622857Y-111924285D01*
X169575238Y-112019523D01*
X169480000Y-112114761D01*
X169337142Y-112162380D01*
X169099047Y-112162380D01*
X170051428Y-111257619D02*
X170099047Y-111210000D01*
X170194285Y-111162380D01*
X170432380Y-111162380D01*
X170527619Y-111210000D01*
X170575238Y-111257619D01*
X170622857Y-111352857D01*
X170622857Y-111448095D01*
X170575238Y-111590952D01*
X170003809Y-112162380D01*
X170622857Y-112162380D01*
%TO.C,L293D*%
X198907380Y-101879047D02*
X198907380Y-102355238D01*
X197907380Y-102355238D01*
X198002619Y-101593333D02*
X197955000Y-101545714D01*
X197907380Y-101450476D01*
X197907380Y-101212380D01*
X197955000Y-101117142D01*
X198002619Y-101069523D01*
X198097857Y-101021904D01*
X198193095Y-101021904D01*
X198335952Y-101069523D01*
X198907380Y-101640952D01*
X198907380Y-101021904D01*
X198907380Y-100545714D02*
X198907380Y-100355238D01*
X198859761Y-100260000D01*
X198812142Y-100212380D01*
X198669285Y-100117142D01*
X198478809Y-100069523D01*
X198097857Y-100069523D01*
X198002619Y-100117142D01*
X197955000Y-100164761D01*
X197907380Y-100260000D01*
X197907380Y-100450476D01*
X197955000Y-100545714D01*
X198002619Y-100593333D01*
X198097857Y-100640952D01*
X198335952Y-100640952D01*
X198431190Y-100593333D01*
X198478809Y-100545714D01*
X198526428Y-100450476D01*
X198526428Y-100260000D01*
X198478809Y-100164761D01*
X198431190Y-100117142D01*
X198335952Y-100069523D01*
X197907380Y-99736190D02*
X197907380Y-99117142D01*
X198288333Y-99450476D01*
X198288333Y-99307619D01*
X198335952Y-99212380D01*
X198383571Y-99164761D01*
X198478809Y-99117142D01*
X198716904Y-99117142D01*
X198812142Y-99164761D01*
X198859761Y-99212380D01*
X198907380Y-99307619D01*
X198907380Y-99593333D01*
X198859761Y-99688571D01*
X198812142Y-99736190D01*
X198907380Y-98688571D02*
X197907380Y-98688571D01*
X197907380Y-98450476D01*
X197955000Y-98307619D01*
X198050238Y-98212380D01*
X198145476Y-98164761D01*
X198335952Y-98117142D01*
X198478809Y-98117142D01*
X198669285Y-98164761D01*
X198764523Y-98212380D01*
X198859761Y-98307619D01*
X198907380Y-98450476D01*
X198907380Y-98688571D01*
%TO.C,Raspi_PWR*%
X185059523Y-75452380D02*
X184726190Y-74976190D01*
X184488095Y-75452380D02*
X184488095Y-74452380D01*
X184869047Y-74452380D01*
X184964285Y-74500000D01*
X185011904Y-74547619D01*
X185059523Y-74642857D01*
X185059523Y-74785714D01*
X185011904Y-74880952D01*
X184964285Y-74928571D01*
X184869047Y-74976190D01*
X184488095Y-74976190D01*
X185916666Y-75452380D02*
X185916666Y-74928571D01*
X185869047Y-74833333D01*
X185773809Y-74785714D01*
X185583333Y-74785714D01*
X185488095Y-74833333D01*
X185916666Y-75404761D02*
X185821428Y-75452380D01*
X185583333Y-75452380D01*
X185488095Y-75404761D01*
X185440476Y-75309523D01*
X185440476Y-75214285D01*
X185488095Y-75119047D01*
X185583333Y-75071428D01*
X185821428Y-75071428D01*
X185916666Y-75023809D01*
X186345238Y-75404761D02*
X186440476Y-75452380D01*
X186630952Y-75452380D01*
X186726190Y-75404761D01*
X186773809Y-75309523D01*
X186773809Y-75261904D01*
X186726190Y-75166666D01*
X186630952Y-75119047D01*
X186488095Y-75119047D01*
X186392857Y-75071428D01*
X186345238Y-74976190D01*
X186345238Y-74928571D01*
X186392857Y-74833333D01*
X186488095Y-74785714D01*
X186630952Y-74785714D01*
X186726190Y-74833333D01*
X187202380Y-74785714D02*
X187202380Y-75785714D01*
X187202380Y-74833333D02*
X187297619Y-74785714D01*
X187488095Y-74785714D01*
X187583333Y-74833333D01*
X187630952Y-74880952D01*
X187678571Y-74976190D01*
X187678571Y-75261904D01*
X187630952Y-75357142D01*
X187583333Y-75404761D01*
X187488095Y-75452380D01*
X187297619Y-75452380D01*
X187202380Y-75404761D01*
X188107142Y-75452380D02*
X188107142Y-74785714D01*
X188107142Y-74452380D02*
X188059523Y-74500000D01*
X188107142Y-74547619D01*
X188154761Y-74500000D01*
X188107142Y-74452380D01*
X188107142Y-74547619D01*
X188345238Y-75547619D02*
X189107142Y-75547619D01*
X189345238Y-75452380D02*
X189345238Y-74452380D01*
X189726190Y-74452380D01*
X189821428Y-74500000D01*
X189869047Y-74547619D01*
X189916666Y-74642857D01*
X189916666Y-74785714D01*
X189869047Y-74880952D01*
X189821428Y-74928571D01*
X189726190Y-74976190D01*
X189345238Y-74976190D01*
X190250000Y-74452380D02*
X190488095Y-75452380D01*
X190678571Y-74738095D01*
X190869047Y-75452380D01*
X191107142Y-74452380D01*
X192059523Y-75452380D02*
X191726190Y-74976190D01*
X191488095Y-75452380D02*
X191488095Y-74452380D01*
X191869047Y-74452380D01*
X191964285Y-74500000D01*
X192011904Y-74547619D01*
X192059523Y-74642857D01*
X192059523Y-74785714D01*
X192011904Y-74880952D01*
X191964285Y-74928571D01*
X191869047Y-74976190D01*
X191488095Y-74976190D01*
D11*
%TO.C,PWR_GND*%
X177150000Y-74100000D02*
X164300000Y-74100000D01*
X180000000Y-76700000D02*
X177150000Y-74100000D01*
X164300000Y-82400000D02*
X177150000Y-82400000D01*
X180000000Y-79850000D02*
X180000000Y-76700000D01*
X177150000Y-82400000D02*
X180000000Y-79850000D01*
X164300000Y-74100000D02*
X164300000Y-82400000D01*
%TO.C,LED1*%
X171565000Y-100545000D02*
X171565000Y-97455000D01*
X171565000Y-97455170D02*
G75*
G03*
X166015000Y-99000462I-2560000J-1544830D01*
G01*
X166015000Y-98999538D02*
G75*
G03*
X171565000Y-100544830I2990000J-462D01*
G01*
X171505000Y-99000000D02*
G75*
G03*
X171505000Y-99000000I-2500000J0D01*
G01*
%TO.C,R1*%
X154480000Y-100040000D02*
X154480000Y-100370000D01*
X161020000Y-97630000D02*
X161020000Y-97960000D01*
X154480000Y-100370000D02*
X161020000Y-100370000D01*
X154480000Y-97630000D02*
X161020000Y-97630000D01*
X161020000Y-100370000D02*
X161020000Y-100040000D01*
X154480000Y-97960000D02*
X154480000Y-97630000D01*
%TO.C,Raspi_Logic*%
X146920000Y-96880000D02*
X148250000Y-96880000D01*
X146920000Y-112240000D02*
X149580000Y-112240000D01*
X146920000Y-99480000D02*
X149580000Y-99480000D01*
X149580000Y-99480000D02*
X149580000Y-112240000D01*
X146920000Y-99480000D02*
X146920000Y-112240000D01*
X146920000Y-98210000D02*
X146920000Y-96880000D01*
%TO.C,Motor_1*%
X207550000Y-80565000D02*
X206600000Y-80565000D01*
X206600000Y-80565000D02*
X206850000Y-80065000D01*
X206850000Y-80065000D02*
X204950000Y-80065000D01*
X204950000Y-80065000D02*
X204900000Y-80065000D01*
X200050000Y-80065000D02*
X194950000Y-80065000D01*
X194950000Y-90915000D02*
X207550000Y-90915000D01*
X199750000Y-80565000D02*
X200050000Y-80065000D01*
X205150000Y-80565000D02*
X199750000Y-80565000D01*
X207550000Y-90915000D02*
X207550000Y-80565000D01*
X204900000Y-80065000D02*
X205150000Y-80565000D01*
X194950000Y-80065000D02*
X194950000Y-90915000D01*
%TO.C,R2*%
X154480000Y-108040000D02*
X154480000Y-108370000D01*
X154480000Y-105960000D02*
X154480000Y-105630000D01*
X154480000Y-105630000D02*
X161020000Y-105630000D01*
X154480000Y-108370000D02*
X161020000Y-108370000D01*
X161020000Y-108370000D02*
X161020000Y-108040000D01*
X161020000Y-105630000D02*
X161020000Y-105960000D01*
%TO.C,Motor_2*%
X205150000Y-109050000D02*
X199750000Y-109050000D01*
X204950000Y-108550000D02*
X204900000Y-108550000D01*
X206850000Y-108550000D02*
X204950000Y-108550000D01*
X194950000Y-108550000D02*
X194950000Y-119400000D01*
X207550000Y-109050000D02*
X206600000Y-109050000D01*
X206600000Y-109050000D02*
X206850000Y-108550000D01*
X207550000Y-119400000D02*
X207550000Y-109050000D01*
X200050000Y-108550000D02*
X194950000Y-108550000D01*
X204900000Y-108550000D02*
X205150000Y-109050000D01*
X194950000Y-119400000D02*
X207550000Y-119400000D01*
X199750000Y-109050000D02*
X200050000Y-108550000D01*
%TO.C,LED2*%
X171540000Y-109295000D02*
X171540000Y-106205000D01*
X171540000Y-106205170D02*
G75*
G03*
X165990000Y-107750462I-2560000J-1544830D01*
G01*
X165990000Y-107749538D02*
G75*
G03*
X171540000Y-109294830I2990000J-462D01*
G01*
X171480000Y-107750000D02*
G75*
G03*
X171480000Y-107750000I-2500000J0D01*
G01*
%TO.C,L293D*%
X177015000Y-102910000D02*
X197455000Y-102910000D01*
X197455000Y-97610000D02*
X177015000Y-97610000D01*
X197455000Y-99260000D02*
X197455000Y-97610000D01*
X197455000Y-102910000D02*
X197455000Y-101260000D01*
X177015000Y-97610000D02*
X177015000Y-102910000D01*
X197455000Y-99260000D02*
G75*
G03*
X197455000Y-101260000I0J-1000000D01*
G01*
%TO.C,Raspi_PWR*%
X190605000Y-76920000D02*
X190605000Y-78250000D01*
X189275000Y-76920000D02*
X190605000Y-76920000D01*
X188005000Y-76920000D02*
X188005000Y-79580000D01*
X188005000Y-76920000D02*
X185405000Y-76920000D01*
X188005000Y-79580000D02*
X185405000Y-79580000D01*
X185405000Y-76920000D02*
X185405000Y-79580000D01*
%TD*%
M02*
