M48
; DRILL file {KiCad (6.0.4)} date Tue Aug 23 18:09:00 2022
; FORMAT={-:-/ absolute / metric / decimal}
; #@! TF.CreationDate,2022-08-23T18:09:00-07:00
; #@! TF.GenerationSoftware,Kicad,Pcbnew,(6.0.4)
; #@! TF.FileFunction,MixedPlating,1,2
FMAT,2
METRIC
; #@! TA.AperFunction,Plated,PTH,ViaDrill
T1C0.400
; #@! TA.AperFunction,Plated,PTH,ComponentDrill
T2C0.800
; #@! TA.AperFunction,Plated,PTH,ComponentDrill
T3C0.900
; #@! TA.AperFunction,Plated,PTH,ComponentDrill
T4C1.000
; #@! TA.AperFunction,Plated,PTH,ComponentDrill
T5C1.320
; #@! TA.AperFunction,Plated,PTH,ComponentDrill
T6C4.500
; #@! TA.AperFunction,NonPlated,NPTH,ComponentDrill
T7C2.200
%
G90
G05
T1
X170.0Y-85.0
X173.0Y-99.0
X173.0Y-108.0
X179.5Y-102.099
X179.75Y-98.25
X180.75Y-100.25
X182.75Y-98.25
X186.0Y-94.0
X186.0Y-102.5
X186.75Y-80.75
X188.5Y-94.0
X188.5Y-102.5
T2
X153.94Y-99.0
X153.94Y-107.0
X161.56Y-99.0
X161.56Y-107.0
X178.345Y-96.45
X178.345Y-104.07
X180.885Y-96.45
X180.885Y-104.07
X183.425Y-96.45
X183.425Y-104.07
X185.965Y-96.45
X185.965Y-104.07
X188.505Y-96.45
X188.505Y-104.07
X191.045Y-96.45
X191.045Y-104.07
X193.585Y-96.45
X193.585Y-104.07
X196.125Y-96.45
X196.125Y-104.07
T3
X167.71Y-107.75
X167.735Y-99.0
X170.25Y-107.75
X170.275Y-99.0
T4
X148.25Y-98.21
X148.25Y-100.75
X148.25Y-103.29
X148.25Y-105.83
X148.25Y-108.37
X148.25Y-110.91
X186.735Y-78.25
X189.275Y-78.25
T5
X201.25Y-83.265
X201.25Y-88.265
X201.25Y-111.75
X201.25Y-116.75
T6
X168.55Y-78.25
X175.75Y-78.25
T7
X149.0Y-76.5
X149.0Y-123.0
X205.0Y-76.5
X205.0Y-123.05
T0
M30
